<?xml version="1.0" encoding="UTF-8" standalone="no"?>
<!-- Created with Inkscape (http://www.inkscape.org/) -->

<svg
   xmlns:dc="http://purl.org/dc/elements/1.1/"
   xmlns:cc="http://creativecommons.org/ns#"
   xmlns:rdf="http://www.w3.org/1999/02/22-rdf-syntax-ns#"
   xmlns:svg="http://www.w3.org/2000/svg"
   xmlns="http://www.w3.org/2000/svg"
   xmlns:sodipodi="http://sodipodi.sourceforge.net/DTD/sodipodi-0.dtd"
   xmlns:inkscape="http://www.inkscape.org/namespaces/inkscape"
   width="744.09448"
   height="1052.3622"
   id="svg2"
   version="1.1"
   inkscape:version="0.48.2 r9819"
   sodipodi:docname="nema17.svg">
  <defs
     id="defs4" />
  <sodipodi:namedview
     id="base"
     pagecolor="#ffffff"
     bordercolor="#666666"
     borderopacity="1.0"
     inkscape:pageopacity="0.0"
     inkscape:pageshadow="2"
     inkscape:zoom="6.6136926"
     inkscape:cx="269.84794"
     inkscape:cy="266.69311"
     inkscape:document-units="mm"
     inkscape:current-layer="layer3"
     showgrid="false"
     units="mm"
     inkscape:window-width="1914"
     inkscape:window-height="1057"
     inkscape:window-x="1920"
     inkscape:window-y="0"
     inkscape:window-maximized="1" />
  <metadata
     id="metadata7">
    <rdf:RDF>
      <cc:Work
         rdf:about="">
        <dc:format>image/svg+xml</dc:format>
        <dc:type
           rdf:resource="http://purl.org/dc/dcmitype/StillImage" />
        <dc:title></dc:title>
      </cc:Work>
    </rdf:RDF>
  </metadata>
  <g
     inkscape:label="NEMA17 motor"
     inkscape:groupmode="layer"
     id="layer1"
     transform="translate(0,-2.5390623e-6)"
     style="opacity:0.68468472"
     sodipodi:insensitive="true">
    <rect
       style="fill:#aaccff"
       id="rect2985"
       width="148.81889"
       height="148.81889"
       x="177.16536"
       y="726.37793"
       ry="18.940588" />
  </g>
  <g
     inkscape:groupmode="layer"
     id="layer2"
     inkscape:label="NEMA17 holes"
     sodipodi:insensitive="true">
    <path
       sodipodi:type="arc"
       style="fill:#000000"
       id="path2988"
       sodipodi:cx="269.96326"
       sodipodi:cy="817.50171"
       sodipodi:rx="18.435284"
       sodipodi:ry="18.687822"
       d="m 288.39854,817.50171 a 18.435284,18.687822 0 1 1 -36.87057,0 18.435284,18.687822 0 1 1 36.87057,0 z"
       transform="matrix(2.1142272,0,0,2.0856565,-319.18886,-904.24037)" />
    <path
       sodipodi:type="arc"
       style="fill:#000000"
       id="path2990"
       sodipodi:cx="201.52544"
       sodipodi:cy="859.17053"
       sodipodi:rx="3.0304577"
       sodipodi:ry="3.7880721"
       d="m 204.55589,859.17053 a 3.0304577,3.7880721 0 1 1 -6.06091,0 3.0304577,3.7880721 0 1 1 6.06091,0 z"
       transform="matrix(1.8707706,0,0,1.4966165,-180.35432,-430.14016)" />
    <path
       sodipodi:type="arc"
       style="fill:#000000"
       id="path2990-7"
       sodipodi:cx="201.52544"
       sodipodi:cy="859.17053"
       sodipodi:rx="3.0304577"
       sodipodi:ry="3.7880721"
       d="m 204.55589,859.17053 a 3.0304577,3.7880721 0 1 1 -6.06091,0 3.0304577,3.7880721 0 1 1 6.06091,0 z"
       transform="matrix(1.8707706,0,0,1.4966165,-180.35432,-539.98268)" />
    <path
       sodipodi:type="arc"
       style="fill:#000000"
       id="path2990-8"
       sodipodi:cx="201.52544"
       sodipodi:cy="859.17053"
       sodipodi:rx="3.0304577"
       sodipodi:ry="3.7880721"
       d="m 204.55589,859.17053 a 3.0304577,3.7880721 0 1 1 -6.06091,0 3.0304577,3.7880721 0 1 1 6.06091,0 z"
       transform="matrix(1.8707706,0,0,1.4966165,-70.511799,-430.14016)" />
    <path
       sodipodi:type="arc"
       style="fill:#000000"
       id="path2990-8-6"
       sodipodi:cx="201.52544"
       sodipodi:cy="859.17053"
       sodipodi:rx="3.0304577"
       sodipodi:ry="3.7880721"
       d="m 204.55589,859.17053 a 3.0304577,3.7880721 0 1 1 -6.06091,0 3.0304577,3.7880721 0 1 1 6.06091,0 z"
       transform="matrix(1.8707706,0,0,1.4966165,-70.511799,-539.98268)" />
  </g>
  <g
     inkscape:groupmode="layer"
     id="layer3"
     inkscape:label="NEMA17 center">
    <path
       sodipodi:type="arc"
       style="fill:#ffffff"
       id="path3066"
       sodipodi:cx="251.10719"
       sodipodi:cy="802.28717"
       sodipodi:rx="1.9168488"
       sodipodi:ry="1.7693988"
       d="m 253.02404,802.28717 a 1.9168488,1.7693988 0 1 1 -3.8337,0 1.9168488,1.7693988 0 1 1 3.8337,0 z"
       transform="matrix(0.92425316,0,0,1.0012743,19.488187,-2.5221425)" />
  </g>
</svg>
