<?xml version="1.0" encoding="UTF-8" standalone="no"?>
<!-- Created with Inkscape (http://www.inkscape.org/) -->

<svg
   xmlns:dc="http://purl.org/dc/elements/1.1/"
   xmlns:cc="http://creativecommons.org/ns#"
   xmlns:rdf="http://www.w3.org/1999/02/22-rdf-syntax-ns#"
   xmlns:svg="http://www.w3.org/2000/svg"
   xmlns="http://www.w3.org/2000/svg"
   xmlns:sodipodi="http://sodipodi.sourceforge.net/DTD/sodipodi-0.dtd"
   xmlns:inkscape="http://www.inkscape.org/namespaces/inkscape"
   width="210mm"
   height="297mm"
   id="svg3087"
   version="1.1"
   inkscape:version="0.48.2 r9819"
   sodipodi:docname="z-motor-mount.svg">
  <defs
     id="defs3" />
  <sodipodi:namedview
     inkscape:document-units="mm"
     id="base"
     pagecolor="#ffffff"
     bordercolor="#666666"
     borderopacity="1.0"
     inkscape:pageopacity="0.0"
     inkscape:pageshadow="2"
     inkscape:zoom="4"
     inkscape:cx="478.10547"
     inkscape:cy="425.65186"
     inkscape:current-layer="layer1"
     showgrid="false"
     inkscape:window-width="1765"
     inkscape:window-height="1053"
     inkscape:window-x="1961"
     inkscape:window-y="0"
     inkscape:window-maximized="0" />
  <metadata
     id="metadata4">
    <rdf:RDF>
      <cc:Work
         rdf:about="">
        <dc:format>image/svg+xml</dc:format>
        <dc:type
           rdf:resource="http://purl.org/dc/dcmitype/StillImage" />
      </cc:Work>
    </rdf:RDF>
  </metadata>
  <g
     inkscape:label="Layer 1"
     inkscape:groupmode="layer"
     id="layer1">
    <path
       style="fill:#2ad4ff"
       d="M 368.90625 520.875 C 360.82649 520.875 354.34375 527.35774 354.34375 535.4375 L 354.34375 683.4375 C 354.34375 691.51726 360.82649 698.03125 368.90625 698.03125 L 623.21875 698.03125 C 631.29851 698.03125 637.78125 691.51726 637.78125 683.4375 L 637.78125 535.4375 C 637.78125 527.35774 631.29851 520.875 623.21875 520.875 L 368.90625 520.875 z M 407.46875 547.09375 C 412.55673 547.09375 416.6875 551.22452 416.6875 556.3125 C 416.6875 561.40048 412.55673 565.5 407.46875 565.5 C 402.38077 565.5 398.28125 561.40048 398.28125 556.3125 C 398.28125 551.22452 402.38077 547.09375 407.46875 547.09375 z M 508.34375 548.78125 C 511.47481 548.78125 514 551.30644 514 554.4375 C 514 557.56856 511.47481 560.125 508.34375 560.125 C 505.21269 560.125 502.65625 557.56856 502.65625 554.4375 C 502.65625 551.30644 505.21269 548.78125 508.34375 548.78125 z M 618.15625 548.78125 C 621.28731 548.78125 623.84375 551.30644 623.84375 554.4375 C 623.84375 557.56856 621.28731 560.125 618.15625 560.125 C 615.02519 560.125 612.5 557.56856 612.5 554.4375 C 612.5 551.30644 615.02519 548.78125 618.15625 548.78125 z M 563.25 570.375 C 584.77606 570.375 602.21875 587.84894 602.21875 609.375 C 602.21875 630.90106 584.77606 648.34375 563.25 648.34375 C 541.72394 648.34375 524.28125 630.90106 524.28125 609.375 C 524.28125 587.84894 541.72394 570.375 563.25 570.375 z M 407.46875 653.375 C 412.55673 653.375 416.6875 657.50577 416.6875 662.59375 C 416.6875 667.68173 412.55673 671.8125 407.46875 671.8125 C 402.38077 671.8125 398.28125 667.68173 398.28125 662.59375 C 398.28125 657.50577 402.38077 653.375 407.46875 653.375 z M 508.34375 658.625 C 511.47481 658.625 514 661.15019 514 664.28125 C 514 667.41231 511.47481 669.9375 508.34375 669.9375 C 505.21269 669.9375 502.65625 667.41231 502.65625 664.28125 C 502.65625 661.15019 505.21269 658.625 508.34375 658.625 z M 618.15625 658.625 C 621.28731 658.625 623.84375 661.15019 623.84375 664.28125 C 623.84375 667.41231 621.28731 669.9375 618.15625 669.9375 C 615.02519 669.9375 612.5 667.41231 612.5 664.28125 C 612.5 661.15019 615.02519 658.625 618.15625 658.625 z "
       id="rect3093" />
  </g>
</svg>
