G04 (created by PCBNEW-RS274X (2011-05-25)-stable) date Mon 09 Jul 2012 09:12:41 PM CEST*
G01*
G70*
G90*
%MOIN*%
G04 Gerber Fmt 3.4, Leading zero omitted, Abs format*
%FSLAX34Y34*%
G04 APERTURE LIST*
%ADD10C,0.006000*%
%ADD11C,0.015000*%
%ADD12R,0.055000X0.055000*%
%ADD13C,0.055000*%
%ADD14R,0.060000X0.060000*%
%ADD15C,0.060000*%
%ADD16C,0.150000*%
%ADD17C,0.236200*%
%ADD18C,0.039400*%
%ADD19C,0.019700*%
%ADD20C,0.039400*%
%ADD21C,0.010000*%
G04 APERTURE END LIST*
G54D10*
G54D11*
X19685Y-20866D02*
X19685Y-57874D01*
X57874Y-19685D02*
X20866Y-19685D01*
X59055Y-57874D02*
X59055Y-20866D01*
X20866Y-59055D02*
X57874Y-59055D01*
X19685Y-57874D02*
X19690Y-57976D01*
X19703Y-58079D01*
X19726Y-58179D01*
X19757Y-58277D01*
X19796Y-58373D01*
X19844Y-58464D01*
X19899Y-58551D01*
X19962Y-58633D01*
X20031Y-58709D01*
X20107Y-58778D01*
X20189Y-58841D01*
X20276Y-58896D01*
X20367Y-58944D01*
X20463Y-58983D01*
X20561Y-59014D01*
X20661Y-59037D01*
X20764Y-59050D01*
X20866Y-59055D01*
X20866Y-19685D02*
X20764Y-19690D01*
X20661Y-19703D01*
X20561Y-19726D01*
X20463Y-19757D01*
X20367Y-19796D01*
X20276Y-19844D01*
X20189Y-19899D01*
X20107Y-19962D01*
X20031Y-20031D01*
X19962Y-20107D01*
X19899Y-20189D01*
X19844Y-20276D01*
X19796Y-20367D01*
X19757Y-20463D01*
X19726Y-20561D01*
X19703Y-20661D01*
X19690Y-20764D01*
X19685Y-20866D01*
X59055Y-20866D02*
X59050Y-20764D01*
X59037Y-20661D01*
X59014Y-20561D01*
X58983Y-20463D01*
X58944Y-20367D01*
X58896Y-20276D01*
X58841Y-20189D01*
X58778Y-20107D01*
X58709Y-20031D01*
X58633Y-19962D01*
X58551Y-19899D01*
X58464Y-19844D01*
X58373Y-19796D01*
X58277Y-19757D01*
X58179Y-19726D01*
X58079Y-19703D01*
X57976Y-19690D01*
X57874Y-19685D01*
X57874Y-59055D02*
X57976Y-59050D01*
X58079Y-59037D01*
X58179Y-59014D01*
X58277Y-58983D01*
X58373Y-58944D01*
X58464Y-58896D01*
X58551Y-58841D01*
X58633Y-58778D01*
X58709Y-58709D01*
X58778Y-58633D01*
X58841Y-58551D01*
X58896Y-58464D01*
X58944Y-58373D01*
X58983Y-58277D01*
X59014Y-58179D01*
X59037Y-58079D01*
X59050Y-57976D01*
X59055Y-57874D01*
G54D12*
X27043Y-28543D03*
G54D13*
X28043Y-28543D03*
X29043Y-28543D03*
X30043Y-28543D03*
G54D12*
X27043Y-36417D03*
G54D13*
X28043Y-36417D03*
X29043Y-36417D03*
X30043Y-36417D03*
G54D12*
X27043Y-52166D03*
G54D13*
X28043Y-52166D03*
X29043Y-52166D03*
X30043Y-52166D03*
G54D12*
X27043Y-34448D03*
G54D13*
X28043Y-34448D03*
X29043Y-34448D03*
X30043Y-34448D03*
G54D12*
X27043Y-38385D03*
G54D13*
X28043Y-38385D03*
X29043Y-38385D03*
X30043Y-38385D03*
G54D12*
X27043Y-50198D03*
G54D13*
X28043Y-50198D03*
X29043Y-50198D03*
X30043Y-50198D03*
G54D12*
X27043Y-46261D03*
G54D13*
X28043Y-46261D03*
X29043Y-46261D03*
X30043Y-46261D03*
G54D12*
X27043Y-44292D03*
G54D13*
X28043Y-44292D03*
X29043Y-44292D03*
X30043Y-44292D03*
G54D12*
X27043Y-48229D03*
G54D13*
X28043Y-48229D03*
X29043Y-48229D03*
X30043Y-48229D03*
G54D12*
X27043Y-26575D03*
G54D13*
X28043Y-26575D03*
X29043Y-26575D03*
X30043Y-26575D03*
G54D14*
X32965Y-46260D03*
G54D15*
X33965Y-46260D03*
G54D14*
X32965Y-34449D03*
G54D15*
X33965Y-34449D03*
G54D14*
X52650Y-34449D03*
G54D15*
X53650Y-34449D03*
G54D14*
X32965Y-36417D03*
G54D15*
X33965Y-36417D03*
G54D14*
X32965Y-44291D03*
G54D15*
X33965Y-44291D03*
G54D14*
X52650Y-32480D03*
G54D15*
X53650Y-32480D03*
G54D14*
X52650Y-30512D03*
G54D15*
X53650Y-30512D03*
G54D14*
X52650Y-28543D03*
G54D15*
X53650Y-28543D03*
G54D14*
X32964Y-28543D03*
G54D15*
X33964Y-28543D03*
G54D14*
X32964Y-26575D03*
G54D15*
X33964Y-26575D03*
G54D14*
X42800Y-28950D03*
G54D15*
X41800Y-28950D03*
X42800Y-29950D03*
X41800Y-29950D03*
X42800Y-30950D03*
X41800Y-30950D03*
X42800Y-31950D03*
X41800Y-31950D03*
X42800Y-32950D03*
X41800Y-32950D03*
X42800Y-33950D03*
X41800Y-33950D03*
X42800Y-34950D03*
X41800Y-34950D03*
X42800Y-35950D03*
X41800Y-35950D03*
X42800Y-36950D03*
X41800Y-36950D03*
X42800Y-37950D03*
X41800Y-37950D03*
X42800Y-38950D03*
X41800Y-38950D03*
X42800Y-39950D03*
X41800Y-39950D03*
G54D16*
X40376Y-49163D03*
X50226Y-49163D03*
G54D14*
X47426Y-48613D03*
G54D15*
X46376Y-48613D03*
X45276Y-48613D03*
X44226Y-48613D03*
X43126Y-48613D03*
X46926Y-49713D03*
X45826Y-49713D03*
X44776Y-49713D03*
X43676Y-49713D03*
G54D12*
X53150Y-42839D03*
G54D13*
X53150Y-41839D03*
X53150Y-40839D03*
X53150Y-39839D03*
G54D17*
X57874Y-20866D03*
X57874Y-57874D03*
X20866Y-57874D03*
X20866Y-20866D03*
G54D18*
X44193Y-41634D03*
G54D19*
X42800Y-39950D02*
X44871Y-39950D01*
X46926Y-42005D02*
X46926Y-49713D01*
X44871Y-39950D02*
X46926Y-42005D01*
X41800Y-39950D02*
X41820Y-39950D01*
X45826Y-41987D02*
X45826Y-49713D01*
X44489Y-40650D02*
X45826Y-41987D01*
X42520Y-40650D02*
X44489Y-40650D01*
X41820Y-39950D02*
X42520Y-40650D01*
X44776Y-49713D02*
X44776Y-42217D01*
X44776Y-42217D02*
X44193Y-41634D01*
X43676Y-49713D02*
X43676Y-43381D01*
X41463Y-38950D02*
X41800Y-38950D01*
X40846Y-39567D02*
X41463Y-38950D01*
X40846Y-40551D02*
X40846Y-39567D01*
X43676Y-43381D02*
X40846Y-40551D01*
G54D20*
X20866Y-20866D02*
X57874Y-20866D01*
X57874Y-20866D02*
X57874Y-57874D01*
X57874Y-57874D02*
X20866Y-57874D01*
G54D19*
X32964Y-28543D02*
X32964Y-28136D01*
X42300Y-33450D02*
X42800Y-33950D01*
X40800Y-33450D02*
X42300Y-33450D01*
X35100Y-27750D02*
X40800Y-33450D01*
X33350Y-27750D02*
X35100Y-27750D01*
X32964Y-28136D02*
X33350Y-27750D01*
X33964Y-28543D02*
X35093Y-28543D01*
X40500Y-33950D02*
X41800Y-33950D01*
X35093Y-28543D02*
X40500Y-33950D01*
X42800Y-32950D02*
X42300Y-32450D01*
X32964Y-26036D02*
X32964Y-26575D01*
X33300Y-25700D02*
X32964Y-26036D01*
X34350Y-25700D02*
X33300Y-25700D01*
X41100Y-32450D02*
X34350Y-25700D01*
X42300Y-32450D02*
X41100Y-32450D01*
X33964Y-26575D02*
X34475Y-26575D01*
X40850Y-32950D02*
X41800Y-32950D01*
X34475Y-26575D02*
X40850Y-32950D01*
X32965Y-36417D02*
X32965Y-36135D01*
X42300Y-35450D02*
X42800Y-35950D01*
X33650Y-35450D02*
X42300Y-35450D01*
X32965Y-36135D02*
X33650Y-35450D01*
X33965Y-36417D02*
X39283Y-36417D01*
X39750Y-35950D02*
X41800Y-35950D01*
X39283Y-36417D02*
X39750Y-35950D01*
X32965Y-34449D02*
X32965Y-33935D01*
X42300Y-34450D02*
X42800Y-34950D01*
X40150Y-34450D02*
X42300Y-34450D01*
X39300Y-33600D02*
X40150Y-34450D01*
X33300Y-33600D02*
X39300Y-33600D01*
X32965Y-33935D02*
X33300Y-33600D01*
X33965Y-34449D02*
X39249Y-34449D01*
X39750Y-34950D02*
X41800Y-34950D01*
X39249Y-34449D02*
X39750Y-34950D01*
X34350Y-45300D02*
X33350Y-45300D01*
X34350Y-45300D02*
X35100Y-44550D01*
X35100Y-44550D02*
X35100Y-43250D01*
X35100Y-43250D02*
X40900Y-37450D01*
X40900Y-37450D02*
X42300Y-37450D01*
X42800Y-37950D02*
X42300Y-37450D01*
X32965Y-45685D02*
X32965Y-46260D01*
X33350Y-45300D02*
X32965Y-45685D01*
X33965Y-46260D02*
X34440Y-46260D01*
X41200Y-37950D02*
X41800Y-37950D01*
X35550Y-43600D02*
X41200Y-37950D01*
X35550Y-45150D02*
X35550Y-43600D01*
X34440Y-46260D02*
X35550Y-45150D01*
X32965Y-44291D02*
X32965Y-43735D01*
X42300Y-36450D02*
X42800Y-36950D01*
X40250Y-36450D02*
X42300Y-36450D01*
X32965Y-43735D02*
X40250Y-36450D01*
X33965Y-44291D02*
X33965Y-43485D01*
X40500Y-36950D02*
X41800Y-36950D01*
X33965Y-43485D02*
X40500Y-36950D01*
G54D10*
G36*
X58730Y-57841D02*
X58658Y-58200D01*
X58475Y-58473D01*
X58199Y-58658D01*
X57840Y-58730D01*
X55168Y-58730D01*
X55168Y-55168D01*
X55168Y-23572D01*
X23572Y-23572D01*
X23572Y-55168D01*
X55168Y-55168D01*
X55168Y-58730D01*
X20898Y-58730D01*
X20539Y-58658D01*
X20266Y-58475D01*
X20081Y-58199D01*
X20010Y-57840D01*
X20010Y-20899D01*
X20081Y-20540D01*
X20266Y-20264D01*
X20539Y-20081D01*
X20898Y-20010D01*
X57840Y-20010D01*
X58199Y-20081D01*
X58475Y-20266D01*
X58658Y-20539D01*
X58730Y-20898D01*
X58730Y-57841D01*
X58730Y-57841D01*
G37*
G54D21*
X58730Y-57841D02*
X58658Y-58200D01*
X58475Y-58473D01*
X58199Y-58658D01*
X57840Y-58730D01*
X55168Y-58730D01*
X55168Y-55168D01*
X55168Y-23572D01*
X23572Y-23572D01*
X23572Y-55168D01*
X55168Y-55168D01*
X55168Y-58730D01*
X20898Y-58730D01*
X20539Y-58658D01*
X20266Y-58475D01*
X20081Y-58199D01*
X20010Y-57840D01*
X20010Y-20899D01*
X20081Y-20540D01*
X20266Y-20264D01*
X20539Y-20081D01*
X20898Y-20010D01*
X57840Y-20010D01*
X58199Y-20081D01*
X58475Y-20266D01*
X58658Y-20539D01*
X58730Y-20898D01*
X58730Y-57841D01*
M02*
