G04 (created by PCBNEW-RS274X (2011-05-25)-stable) date Mon 09 Jul 2012 09:12:41 PM CEST*
G01*
G70*
G90*
%MOIN*%
G04 Gerber Fmt 3.4, Leading zero omitted, Abs format*
%FSLAX34Y34*%
G04 APERTURE LIST*
%ADD10C,0.006000*%
%ADD11C,0.012000*%
%ADD12C,0.015000*%
%ADD13C,0.010700*%
%ADD14C,0.010000*%
%ADD15C,0.008000*%
%ADD16R,0.075000X0.075000*%
%ADD17C,0.075000*%
%ADD18R,0.080000X0.080000*%
%ADD19C,0.080000*%
%ADD20C,0.170000*%
%ADD21C,0.256200*%
G04 APERTURE END LIST*
G54D10*
G54D11*
X58450Y-46179D02*
X58487Y-46067D01*
X58487Y-45879D01*
X58450Y-45804D01*
X58412Y-45767D01*
X58337Y-45729D01*
X58262Y-45729D01*
X58187Y-45767D01*
X58150Y-45804D01*
X58112Y-45879D01*
X58075Y-46029D01*
X58037Y-46104D01*
X58000Y-46142D01*
X57925Y-46179D01*
X57850Y-46179D01*
X57775Y-46142D01*
X57738Y-46104D01*
X57700Y-46029D01*
X57700Y-45842D01*
X57738Y-45729D01*
X58450Y-45092D02*
X58487Y-45167D01*
X58487Y-45317D01*
X58450Y-45392D01*
X58375Y-45429D01*
X58075Y-45429D01*
X58000Y-45392D01*
X57962Y-45317D01*
X57962Y-45167D01*
X58000Y-45092D01*
X58075Y-45054D01*
X58150Y-45054D01*
X58225Y-45429D01*
X58450Y-44417D02*
X58487Y-44492D01*
X58487Y-44642D01*
X58450Y-44717D01*
X58375Y-44754D01*
X58075Y-44754D01*
X58000Y-44717D01*
X57962Y-44642D01*
X57962Y-44492D01*
X58000Y-44417D01*
X58075Y-44379D01*
X58150Y-44379D01*
X58225Y-44754D01*
X58450Y-43742D02*
X58487Y-43817D01*
X58487Y-43967D01*
X58450Y-44042D01*
X58375Y-44079D01*
X58075Y-44079D01*
X58000Y-44042D01*
X57962Y-43967D01*
X57962Y-43817D01*
X58000Y-43742D01*
X58075Y-43704D01*
X58150Y-43704D01*
X58225Y-44079D01*
X58487Y-43029D02*
X57700Y-43029D01*
X58450Y-43029D02*
X58487Y-43104D01*
X58487Y-43254D01*
X58450Y-43329D01*
X58412Y-43367D01*
X58337Y-43404D01*
X58112Y-43404D01*
X58037Y-43367D01*
X58000Y-43329D01*
X57962Y-43254D01*
X57962Y-43104D01*
X58000Y-43029D01*
X58450Y-42092D02*
X58487Y-42017D01*
X58487Y-41867D01*
X58450Y-41792D01*
X58375Y-41755D01*
X58337Y-41755D01*
X58262Y-41792D01*
X58225Y-41867D01*
X58225Y-41980D01*
X58187Y-42055D01*
X58112Y-42092D01*
X58075Y-42092D01*
X58000Y-42055D01*
X57962Y-41980D01*
X57962Y-41867D01*
X58000Y-41792D01*
X57962Y-41530D02*
X57962Y-41230D01*
X57700Y-41418D02*
X58375Y-41418D01*
X58450Y-41380D01*
X58487Y-41305D01*
X58487Y-41230D01*
X57962Y-40630D02*
X58487Y-40630D01*
X57962Y-40968D02*
X58375Y-40968D01*
X58450Y-40930D01*
X58487Y-40855D01*
X58487Y-40743D01*
X58450Y-40668D01*
X58412Y-40630D01*
X58487Y-39918D02*
X57700Y-39918D01*
X58450Y-39918D02*
X58487Y-39993D01*
X58487Y-40143D01*
X58450Y-40218D01*
X58412Y-40256D01*
X58337Y-40293D01*
X58112Y-40293D01*
X58037Y-40256D01*
X58000Y-40218D01*
X57962Y-40143D01*
X57962Y-39993D01*
X58000Y-39918D01*
X58487Y-39544D02*
X57962Y-39544D01*
X57700Y-39544D02*
X57738Y-39581D01*
X57775Y-39544D01*
X57738Y-39506D01*
X57700Y-39544D01*
X57775Y-39544D01*
X58487Y-39056D02*
X58450Y-39131D01*
X58412Y-39169D01*
X58337Y-39206D01*
X58112Y-39206D01*
X58037Y-39169D01*
X58000Y-39131D01*
X57962Y-39056D01*
X57962Y-38944D01*
X58000Y-38869D01*
X58037Y-38831D01*
X58112Y-38794D01*
X58337Y-38794D01*
X58412Y-38831D01*
X58450Y-38869D01*
X58487Y-38944D01*
X58487Y-39056D01*
X58487Y-37744D02*
X58450Y-37819D01*
X58412Y-37857D01*
X58337Y-37894D01*
X58112Y-37894D01*
X58037Y-37857D01*
X58000Y-37819D01*
X57962Y-37744D01*
X57962Y-37632D01*
X58000Y-37557D01*
X58037Y-37519D01*
X58112Y-37482D01*
X58337Y-37482D01*
X58412Y-37519D01*
X58450Y-37557D01*
X58487Y-37632D01*
X58487Y-37744D01*
X58487Y-37145D02*
X57962Y-37145D01*
X58112Y-37145D02*
X58037Y-37107D01*
X58000Y-37070D01*
X57962Y-36995D01*
X57962Y-36920D01*
X58487Y-36320D02*
X57700Y-36320D01*
X58450Y-36320D02*
X58487Y-36395D01*
X58487Y-36545D01*
X58450Y-36620D01*
X58412Y-36658D01*
X58337Y-36695D01*
X58112Y-36695D01*
X58037Y-36658D01*
X58000Y-36620D01*
X57962Y-36545D01*
X57962Y-36395D01*
X58000Y-36320D01*
X58450Y-35646D02*
X58487Y-35721D01*
X58487Y-35871D01*
X58450Y-35946D01*
X58375Y-35983D01*
X58075Y-35983D01*
X58000Y-35946D01*
X57962Y-35871D01*
X57962Y-35721D01*
X58000Y-35646D01*
X58075Y-35608D01*
X58150Y-35608D01*
X58225Y-35983D01*
X58487Y-35271D02*
X57962Y-35271D01*
X58112Y-35271D02*
X58037Y-35233D01*
X58000Y-35196D01*
X57962Y-35121D01*
X57962Y-35046D01*
X58412Y-34784D02*
X58450Y-34746D01*
X58487Y-34784D01*
X58450Y-34821D01*
X58412Y-34784D01*
X58487Y-34784D01*
X58000Y-34784D02*
X58037Y-34746D01*
X58075Y-34784D01*
X58037Y-34821D01*
X58000Y-34784D01*
X58075Y-34784D01*
X58487Y-33809D02*
X57700Y-33809D01*
X57700Y-33621D01*
X57738Y-33509D01*
X57812Y-33434D01*
X57887Y-33396D01*
X58037Y-33359D01*
X58150Y-33359D01*
X58300Y-33396D01*
X58375Y-33434D01*
X58450Y-33509D01*
X58487Y-33621D01*
X58487Y-33809D01*
X57700Y-32647D02*
X57700Y-33022D01*
X58075Y-33059D01*
X58037Y-33022D01*
X58000Y-32947D01*
X58000Y-32759D01*
X58037Y-32684D01*
X58075Y-32647D01*
X58150Y-32609D01*
X58337Y-32609D01*
X58412Y-32647D01*
X58450Y-32684D01*
X58487Y-32759D01*
X58487Y-32947D01*
X58450Y-33022D01*
X58412Y-33059D01*
X57962Y-31934D02*
X58487Y-31934D01*
X57663Y-32122D02*
X58225Y-32309D01*
X58225Y-31822D01*
X57700Y-31147D02*
X57700Y-31522D01*
X58075Y-31559D01*
X58037Y-31522D01*
X58000Y-31447D01*
X58000Y-31259D01*
X58037Y-31184D01*
X58075Y-31147D01*
X58150Y-31109D01*
X58337Y-31109D01*
X58412Y-31147D01*
X58450Y-31184D01*
X58487Y-31259D01*
X58487Y-31447D01*
X58450Y-31522D01*
X58412Y-31559D01*
X57775Y-30809D02*
X57738Y-30772D01*
X57700Y-30697D01*
X57700Y-30509D01*
X57738Y-30434D01*
X57775Y-30397D01*
X57850Y-30359D01*
X57925Y-30359D01*
X58037Y-30397D01*
X58487Y-30847D01*
X58487Y-30359D01*
X57700Y-29647D02*
X57700Y-30022D01*
X58075Y-30059D01*
X58037Y-30022D01*
X58000Y-29947D01*
X58000Y-29759D01*
X58037Y-29684D01*
X58075Y-29647D01*
X58150Y-29609D01*
X58337Y-29609D01*
X58412Y-29647D01*
X58450Y-29684D01*
X58487Y-29759D01*
X58487Y-29947D01*
X58450Y-30022D01*
X58412Y-30059D01*
G54D12*
X43701Y-28051D02*
X43701Y-29429D01*
X42421Y-28051D02*
X43701Y-28051D01*
X26280Y-43799D02*
X26280Y-44783D01*
X26280Y-37894D02*
X26280Y-38878D01*
X26280Y-28051D02*
X26280Y-29035D01*
X19685Y-20866D02*
X19685Y-57874D01*
X57874Y-19685D02*
X20866Y-19685D01*
X59055Y-57874D02*
X59055Y-20866D01*
X20866Y-59055D02*
X57874Y-59055D01*
X19685Y-57874D02*
X19690Y-57976D01*
X19703Y-58079D01*
X19726Y-58179D01*
X19757Y-58277D01*
X19796Y-58373D01*
X19844Y-58464D01*
X19899Y-58551D01*
X19962Y-58633D01*
X20031Y-58709D01*
X20107Y-58778D01*
X20189Y-58841D01*
X20276Y-58896D01*
X20367Y-58944D01*
X20463Y-58983D01*
X20561Y-59014D01*
X20661Y-59037D01*
X20764Y-59050D01*
X20866Y-59055D01*
X20866Y-19685D02*
X20764Y-19690D01*
X20661Y-19703D01*
X20561Y-19726D01*
X20463Y-19757D01*
X20367Y-19796D01*
X20276Y-19844D01*
X20189Y-19899D01*
X20107Y-19962D01*
X20031Y-20031D01*
X19962Y-20107D01*
X19899Y-20189D01*
X19844Y-20276D01*
X19796Y-20367D01*
X19757Y-20463D01*
X19726Y-20561D01*
X19703Y-20661D01*
X19690Y-20764D01*
X19685Y-20866D01*
X59055Y-20866D02*
X59050Y-20764D01*
X59037Y-20661D01*
X59014Y-20561D01*
X58983Y-20463D01*
X58944Y-20367D01*
X58896Y-20276D01*
X58841Y-20189D01*
X58778Y-20107D01*
X58709Y-20031D01*
X58633Y-19962D01*
X58551Y-19899D01*
X58464Y-19844D01*
X58373Y-19796D01*
X58277Y-19757D01*
X58179Y-19726D01*
X58079Y-19703D01*
X57976Y-19690D01*
X57874Y-19685D01*
X57874Y-59055D02*
X57976Y-59050D01*
X58079Y-59037D01*
X58179Y-59014D01*
X58277Y-58983D01*
X58373Y-58944D01*
X58464Y-58896D01*
X58551Y-58841D01*
X58633Y-58778D01*
X58709Y-58709D01*
X58778Y-58633D01*
X58841Y-58551D01*
X58896Y-58464D01*
X58944Y-58373D01*
X58983Y-58277D01*
X59014Y-58179D01*
X59037Y-58079D01*
X59050Y-57976D01*
X59055Y-57874D01*
G54D11*
X26543Y-29043D02*
X26543Y-29043D01*
X26543Y-28043D02*
X26543Y-29043D01*
X26543Y-29043D02*
X26543Y-29043D01*
X26543Y-29043D02*
X30543Y-29043D01*
X30543Y-29043D02*
X30543Y-28043D01*
X30543Y-28043D02*
X26543Y-28043D01*
X27543Y-28043D02*
X27543Y-29043D01*
X26543Y-38885D02*
X26543Y-38885D01*
X26543Y-37885D02*
X26543Y-38885D01*
X26543Y-38885D02*
X26543Y-38885D01*
X26543Y-38885D02*
X30543Y-38885D01*
X30543Y-38885D02*
X30543Y-37885D01*
X30543Y-37885D02*
X26543Y-37885D01*
X27543Y-37885D02*
X27543Y-38885D01*
X26543Y-44792D02*
X26543Y-44792D01*
X26543Y-43792D02*
X26543Y-44792D01*
X26543Y-44792D02*
X26543Y-44792D01*
X26543Y-44792D02*
X30543Y-44792D01*
X30543Y-44792D02*
X30543Y-43792D01*
X30543Y-43792D02*
X26543Y-43792D01*
X27543Y-43792D02*
X27543Y-44792D01*
G54D12*
X41300Y-28450D02*
X43300Y-28450D01*
X43300Y-28450D02*
X43300Y-40450D01*
X43300Y-40450D02*
X41300Y-40450D01*
X41300Y-40450D02*
X41300Y-28450D01*
G54D11*
X53650Y-43339D02*
X53650Y-43339D01*
X52650Y-43339D02*
X53650Y-43339D01*
X53650Y-43339D02*
X53650Y-43339D01*
X53650Y-43339D02*
X53650Y-39339D01*
X53650Y-39339D02*
X52650Y-39339D01*
X52650Y-39339D02*
X52650Y-43339D01*
X52650Y-42339D02*
X53650Y-42339D01*
G54D13*
X26216Y-28926D02*
X26216Y-28243D01*
X26053Y-28243D01*
X26012Y-28275D01*
X25992Y-28308D01*
X25972Y-28373D01*
X25972Y-28471D01*
X25992Y-28536D01*
X26012Y-28568D01*
X26053Y-28601D01*
X26216Y-28601D01*
X25564Y-28926D02*
X25808Y-28926D01*
X25686Y-28926D02*
X25686Y-28243D01*
X25727Y-28341D01*
X25768Y-28406D01*
X25808Y-28438D01*
G54D14*
X29171Y-29786D02*
X28961Y-29386D01*
X29171Y-29386D02*
X28961Y-29786D01*
X28809Y-29557D02*
X28504Y-29557D01*
X28314Y-29786D02*
X28314Y-29386D01*
X28314Y-29186D02*
X28333Y-29214D01*
X28314Y-29243D01*
X28295Y-29214D01*
X28314Y-29186D01*
X28314Y-29243D01*
X28124Y-29386D02*
X28124Y-29786D01*
X28124Y-29443D02*
X28105Y-29414D01*
X28067Y-29386D01*
X28009Y-29386D01*
X27971Y-29414D01*
X27952Y-29472D01*
X27952Y-29786D01*
G54D13*
X26120Y-38676D02*
X26120Y-37993D01*
X25957Y-37993D01*
X25916Y-38025D01*
X25896Y-38058D01*
X25876Y-38123D01*
X25876Y-38221D01*
X25896Y-38286D01*
X25916Y-38318D01*
X25957Y-38351D01*
X26120Y-38351D01*
X25468Y-38676D02*
X25712Y-38676D01*
X25590Y-38676D02*
X25590Y-37993D01*
X25631Y-38091D01*
X25672Y-38156D01*
X25712Y-38188D01*
X25203Y-37993D02*
X25162Y-37993D01*
X25121Y-38025D01*
X25101Y-38058D01*
X25080Y-38123D01*
X25060Y-38253D01*
X25060Y-38416D01*
X25080Y-38546D01*
X25101Y-38611D01*
X25121Y-38643D01*
X25162Y-38676D01*
X25203Y-38676D01*
X25243Y-38643D01*
X25264Y-38611D01*
X25284Y-38546D01*
X25304Y-38416D01*
X25304Y-38253D01*
X25284Y-38123D01*
X25264Y-38058D01*
X25243Y-38025D01*
X25203Y-37993D01*
G54D14*
X29162Y-39228D02*
X29067Y-39628D01*
X28971Y-39228D02*
X29067Y-39628D01*
X29105Y-39771D01*
X29124Y-39799D01*
X29162Y-39828D01*
X28819Y-39399D02*
X28514Y-39399D01*
X28324Y-39628D02*
X28324Y-39228D01*
X28324Y-39028D02*
X28343Y-39056D01*
X28324Y-39085D01*
X28305Y-39056D01*
X28324Y-39028D01*
X28324Y-39085D01*
X28134Y-39228D02*
X28134Y-39628D01*
X28134Y-39285D02*
X28115Y-39256D01*
X28077Y-39228D01*
X28019Y-39228D01*
X27981Y-39256D01*
X27962Y-39314D01*
X27962Y-39628D01*
G54D13*
X26116Y-44545D02*
X26116Y-43862D01*
X25953Y-43862D01*
X25912Y-43894D01*
X25892Y-43927D01*
X25872Y-43992D01*
X25872Y-44090D01*
X25892Y-44155D01*
X25912Y-44187D01*
X25953Y-44220D01*
X26116Y-44220D01*
X25729Y-43862D02*
X25464Y-43862D01*
X25607Y-44122D01*
X25545Y-44122D01*
X25505Y-44155D01*
X25484Y-44187D01*
X25464Y-44252D01*
X25464Y-44415D01*
X25484Y-44480D01*
X25505Y-44512D01*
X25545Y-44545D01*
X25668Y-44545D01*
X25708Y-44512D01*
X25729Y-44480D01*
G54D14*
X29178Y-43112D02*
X28968Y-43112D01*
X29178Y-43512D01*
X28968Y-43512D01*
X28816Y-43283D02*
X28511Y-43283D01*
X28321Y-43512D02*
X28321Y-43112D01*
X28321Y-42912D02*
X28340Y-42940D01*
X28321Y-42969D01*
X28302Y-42940D01*
X28321Y-42912D01*
X28321Y-42969D01*
X28131Y-43112D02*
X28131Y-43512D01*
X28131Y-43169D02*
X28112Y-43140D01*
X28074Y-43112D01*
X28016Y-43112D01*
X27978Y-43140D01*
X27959Y-43198D01*
X27959Y-43512D01*
X40962Y-34155D02*
X40562Y-34155D01*
X40562Y-34308D01*
X40581Y-34346D01*
X40600Y-34365D01*
X40638Y-34384D01*
X40695Y-34384D01*
X40733Y-34365D01*
X40752Y-34346D01*
X40771Y-34308D01*
X40771Y-34155D01*
X40562Y-34746D02*
X40562Y-34555D01*
X40752Y-34536D01*
X40733Y-34555D01*
X40714Y-34593D01*
X40714Y-34689D01*
X40733Y-34727D01*
X40752Y-34746D01*
X40790Y-34765D01*
X40886Y-34765D01*
X40924Y-34746D01*
X40943Y-34727D01*
X40962Y-34689D01*
X40962Y-34593D01*
X40943Y-34555D01*
X40924Y-34536D01*
G54D15*
X43962Y-33793D02*
X43695Y-33793D01*
X43562Y-33793D02*
X43581Y-33774D01*
X43600Y-33793D01*
X43581Y-33812D01*
X43562Y-33793D01*
X43600Y-33793D01*
X43695Y-33983D02*
X43962Y-33983D01*
X43733Y-33983D02*
X43714Y-34002D01*
X43695Y-34040D01*
X43695Y-34098D01*
X43714Y-34136D01*
X43752Y-34155D01*
X43962Y-34155D01*
X43695Y-34345D02*
X44095Y-34345D01*
X43714Y-34345D02*
X43695Y-34383D01*
X43695Y-34460D01*
X43714Y-34498D01*
X43733Y-34517D01*
X43771Y-34536D01*
X43886Y-34536D01*
X43924Y-34517D01*
X43943Y-34498D01*
X43962Y-34460D01*
X43962Y-34383D01*
X43943Y-34345D01*
X43695Y-34879D02*
X43962Y-34879D01*
X43695Y-34707D02*
X43905Y-34707D01*
X43943Y-34726D01*
X43962Y-34764D01*
X43962Y-34822D01*
X43943Y-34860D01*
X43924Y-34879D01*
X43695Y-35012D02*
X43695Y-35164D01*
X43562Y-35069D02*
X43905Y-35069D01*
X43943Y-35088D01*
X43962Y-35126D01*
X43962Y-35164D01*
G54D13*
X53576Y-43630D02*
X52893Y-43630D01*
X52893Y-43793D01*
X52925Y-43834D01*
X52958Y-43854D01*
X53023Y-43874D01*
X53121Y-43874D01*
X53186Y-43854D01*
X53218Y-43834D01*
X53251Y-43793D01*
X53251Y-43630D01*
X52958Y-44038D02*
X52925Y-44058D01*
X52893Y-44099D01*
X52893Y-44201D01*
X52925Y-44241D01*
X52958Y-44262D01*
X53023Y-44282D01*
X53088Y-44282D01*
X53186Y-44262D01*
X53576Y-44017D01*
X53576Y-44282D01*
X52958Y-44446D02*
X52925Y-44466D01*
X52893Y-44507D01*
X52893Y-44609D01*
X52925Y-44649D01*
X52958Y-44670D01*
X53023Y-44690D01*
X53088Y-44690D01*
X53186Y-44670D01*
X53576Y-44425D01*
X53576Y-44690D01*
G54D14*
X54221Y-40720D02*
X54221Y-40911D01*
X54393Y-40682D02*
X53793Y-40815D01*
X54393Y-40949D01*
X54164Y-41082D02*
X54164Y-41387D01*
X54393Y-41577D02*
X53993Y-41577D01*
X53793Y-41577D02*
X53821Y-41558D01*
X53850Y-41577D01*
X53821Y-41596D01*
X53793Y-41577D01*
X53850Y-41577D01*
X53993Y-41767D02*
X54393Y-41767D01*
X54050Y-41767D02*
X54021Y-41786D01*
X53993Y-41824D01*
X53993Y-41882D01*
X54021Y-41920D01*
X54079Y-41939D01*
X54393Y-41939D01*
%LPC*%
G54D16*
X27043Y-28543D03*
G54D17*
X28043Y-28543D03*
X29043Y-28543D03*
X30043Y-28543D03*
G54D16*
X27043Y-36417D03*
G54D17*
X28043Y-36417D03*
X29043Y-36417D03*
X30043Y-36417D03*
G54D16*
X27043Y-52166D03*
G54D17*
X28043Y-52166D03*
X29043Y-52166D03*
X30043Y-52166D03*
G54D16*
X27043Y-34448D03*
G54D17*
X28043Y-34448D03*
X29043Y-34448D03*
X30043Y-34448D03*
G54D16*
X27043Y-38385D03*
G54D17*
X28043Y-38385D03*
X29043Y-38385D03*
X30043Y-38385D03*
G54D16*
X27043Y-50198D03*
G54D17*
X28043Y-50198D03*
X29043Y-50198D03*
X30043Y-50198D03*
G54D16*
X27043Y-46261D03*
G54D17*
X28043Y-46261D03*
X29043Y-46261D03*
X30043Y-46261D03*
G54D16*
X27043Y-44292D03*
G54D17*
X28043Y-44292D03*
X29043Y-44292D03*
X30043Y-44292D03*
G54D16*
X27043Y-48229D03*
G54D17*
X28043Y-48229D03*
X29043Y-48229D03*
X30043Y-48229D03*
G54D16*
X27043Y-26575D03*
G54D17*
X28043Y-26575D03*
X29043Y-26575D03*
X30043Y-26575D03*
G54D18*
X32965Y-46260D03*
G54D19*
X33965Y-46260D03*
G54D18*
X32965Y-34449D03*
G54D19*
X33965Y-34449D03*
G54D18*
X52650Y-34449D03*
G54D19*
X53650Y-34449D03*
G54D18*
X32965Y-36417D03*
G54D19*
X33965Y-36417D03*
G54D18*
X32965Y-44291D03*
G54D19*
X33965Y-44291D03*
G54D18*
X52650Y-32480D03*
G54D19*
X53650Y-32480D03*
G54D18*
X52650Y-30512D03*
G54D19*
X53650Y-30512D03*
G54D18*
X52650Y-28543D03*
G54D19*
X53650Y-28543D03*
G54D18*
X32964Y-28543D03*
G54D19*
X33964Y-28543D03*
G54D18*
X32964Y-26575D03*
G54D19*
X33964Y-26575D03*
G54D18*
X42800Y-28950D03*
G54D19*
X41800Y-28950D03*
X42800Y-29950D03*
X41800Y-29950D03*
X42800Y-30950D03*
X41800Y-30950D03*
X42800Y-31950D03*
X41800Y-31950D03*
X42800Y-32950D03*
X41800Y-32950D03*
X42800Y-33950D03*
X41800Y-33950D03*
X42800Y-34950D03*
X41800Y-34950D03*
X42800Y-35950D03*
X41800Y-35950D03*
X42800Y-36950D03*
X41800Y-36950D03*
X42800Y-37950D03*
X41800Y-37950D03*
X42800Y-38950D03*
X41800Y-38950D03*
X42800Y-39950D03*
X41800Y-39950D03*
G54D20*
X40376Y-49163D03*
X50226Y-49163D03*
G54D18*
X47426Y-48613D03*
G54D19*
X46376Y-48613D03*
X45276Y-48613D03*
X44226Y-48613D03*
X43126Y-48613D03*
X46926Y-49713D03*
X45826Y-49713D03*
X44776Y-49713D03*
X43676Y-49713D03*
G54D16*
X53150Y-42839D03*
G54D17*
X53150Y-41839D03*
X53150Y-40839D03*
X53150Y-39839D03*
G54D21*
X57874Y-20866D03*
X57874Y-57874D03*
X20866Y-57874D03*
X20866Y-20866D03*
M02*
