M48
;DRILL file {PCBnew (2011-05-25)-stable} date Mon 09 Jul 2012 08:43:33 PM CEST
;FORMAT={-:-/ absolute / metric / decimal}
FMAT,2
METRIC,TZ
T1C0.300
T2C0.813
T3C1.016
T4C3.000
T5C3.048
%
G90
G05
M71
T1
X112.250Y-105.750
T2
X68.689Y-67.501
X68.689Y-72.499
X68.689Y-87.498
X68.689Y-92.499
X68.689Y-97.498
X68.689Y-112.502
X68.689Y-117.503
X68.689Y-122.502
X68.689Y-127.503
X68.689Y-132.502
X71.229Y-67.501
X71.229Y-72.499
X71.229Y-87.498
X71.229Y-92.499
X71.229Y-97.498
X71.229Y-112.502
X71.229Y-117.503
X71.229Y-122.502
X71.229Y-127.503
X71.229Y-132.502
X73.769Y-67.501
X73.769Y-72.499
X73.769Y-87.498
X73.769Y-92.499
X73.769Y-97.498
X73.769Y-112.502
X73.769Y-117.503
X73.769Y-122.502
X73.769Y-127.503
X73.769Y-132.502
X76.309Y-67.501
X76.309Y-72.499
X76.309Y-87.498
X76.309Y-92.499
X76.309Y-97.498
X76.309Y-112.502
X76.309Y-117.503
X76.309Y-122.502
X76.309Y-127.503
X76.309Y-132.502
X108.712Y-73.533
X135.001Y-101.191
X135.001Y-103.731
X135.001Y-106.271
X135.001Y-108.811
T3
X83.729Y-67.501
X83.729Y-72.499
X83.731Y-87.500
X83.731Y-92.499
X83.731Y-112.499
X83.731Y-117.500
X86.269Y-67.501
X86.269Y-72.499
X86.271Y-87.500
X86.271Y-92.499
X86.271Y-112.499
X86.271Y-117.500
X106.172Y-73.533
X106.172Y-76.073
X106.172Y-78.613
X106.172Y-81.153
X106.172Y-83.693
X106.172Y-86.233
X106.172Y-88.773
X106.172Y-91.313
X106.172Y-93.853
X106.172Y-96.393
X106.172Y-98.933
X106.172Y-101.473
X108.712Y-76.073
X108.712Y-78.613
X108.712Y-81.153
X108.712Y-83.693
X108.712Y-86.233
X108.712Y-88.773
X108.712Y-91.313
X108.712Y-93.853
X108.712Y-96.393
X108.712Y-98.933
X108.712Y-101.473
X109.540Y-123.477
X110.937Y-126.271
X112.334Y-123.477
X113.731Y-126.271
X115.001Y-123.477
X116.398Y-126.271
X117.795Y-123.477
X119.192Y-126.271
X120.462Y-123.477
X133.731Y-72.499
X133.731Y-77.500
X133.731Y-82.499
X133.731Y-87.500
X136.271Y-72.499
X136.271Y-77.500
X136.271Y-82.499
X136.271Y-87.500
T4
X53.000Y-53.000
X53.000Y-147.000
X147.000Y-53.000
X147.000Y-147.000
T5
X102.555Y-124.874
X127.574Y-124.874
T0
M30
