G04 (created by PCBNEW-RS274X (2011-05-25)-stable) date 2011-12-18T13:02:57 CET*
G01*
G70*
G90*
%MOIN*%
G04 Gerber Fmt 3.4, Leading zero omitted, Abs format*
%FSLAX34Y34*%
G04 APERTURE LIST*
%ADD10C,0.006000*%
%ADD11C,0.015000*%
%ADD12C,0.060000*%
%ADD13C,0.106300*%
%ADD14R,0.080000X0.060000*%
%ADD15R,0.045000X0.025000*%
%ADD16R,0.025000X0.045000*%
%ADD17C,0.055000*%
%ADD18C,0.050000*%
%ADD19R,0.060000X0.060000*%
%ADD20R,0.075000X0.075000*%
%ADD21C,0.075000*%
%ADD22C,0.236200*%
%ADD23R,0.100000X0.100000*%
%ADD24C,0.100000*%
%ADD25R,0.039400X0.039400*%
%ADD26C,0.039400*%
%ADD27R,0.059100X0.031500*%
%ADD28R,0.055100X0.070900*%
%ADD29R,0.074800X0.055100*%
%ADD30C,0.078700*%
%ADD31R,0.381900X0.133900*%
%ADD32C,0.011800*%
%ADD33C,0.031500*%
%ADD34C,0.008000*%
%ADD35C,0.078700*%
%ADD36C,0.015700*%
%ADD37C,0.010000*%
G04 APERTURE END LIST*
G54D10*
G54D11*
X39375Y-01325D02*
X39375Y-37975D01*
X01400Y00000D02*
X38100Y00000D01*
X00000Y-37925D02*
X00000Y-01325D01*
X38075Y-39375D02*
X01275Y-39375D01*
X01375Y-00001D02*
X01259Y-00004D01*
X01142Y-00017D01*
X01026Y-00040D01*
X00913Y-00073D01*
X00804Y-00116D01*
X00698Y-00169D01*
X00598Y-00230D01*
X00503Y-00300D01*
X00414Y-00378D01*
X00333Y-00463D01*
X00260Y-00555D01*
X00195Y-00653D01*
X00138Y-00757D01*
X00091Y-00865D01*
X00053Y-00976D01*
X00026Y-01091D01*
X00008Y-01207D01*
X00001Y-01325D01*
X00001Y-37950D02*
X-00001Y-38067D01*
X00008Y-38185D01*
X00027Y-38301D01*
X00056Y-38415D01*
X00095Y-38527D01*
X00144Y-38634D01*
X00201Y-38737D01*
X00268Y-38834D01*
X00343Y-38926D01*
X00425Y-39010D01*
X00514Y-39087D01*
X00610Y-39156D01*
X00712Y-39216D01*
X00818Y-39267D01*
X00928Y-39309D01*
X01042Y-39341D01*
X01158Y-39363D01*
X01275Y-39374D01*
X38074Y-39374D02*
X38191Y-39364D01*
X38307Y-39345D01*
X38421Y-39315D01*
X38532Y-39275D01*
X38639Y-39226D01*
X38742Y-39168D01*
X38839Y-39101D01*
X38930Y-39026D01*
X39013Y-38943D01*
X39090Y-38854D01*
X39158Y-38758D01*
X39218Y-38656D01*
X39268Y-38550D01*
X39309Y-38439D01*
X39340Y-38326D01*
X39362Y-38210D01*
X39373Y-38093D01*
X39374Y-37976D01*
X39374Y-01324D02*
X39371Y-01212D01*
X39359Y-01099D01*
X39336Y-00988D01*
X39304Y-00879D01*
X39263Y-00774D01*
X39213Y-00672D01*
X39154Y-00575D01*
X39086Y-00484D01*
X39011Y-00399D01*
X38929Y-00321D01*
X38840Y-00250D01*
X38746Y-00187D01*
X38646Y-00133D01*
X38542Y-00088D01*
X38435Y-00051D01*
X38325Y-00025D01*
X38213Y-00008D01*
X38099Y-00001D01*
G54D12*
X03600Y-28350D03*
X03600Y-27350D03*
X02813Y-27350D03*
X02813Y-28350D03*
G54D13*
X01750Y-30212D03*
X01750Y-25488D03*
G54D14*
X36650Y-23525D03*
X36650Y-24825D03*
G54D15*
X03350Y-20000D03*
X03350Y-20600D03*
X04900Y-19850D03*
X04900Y-20450D03*
X19775Y-16275D03*
X19775Y-16875D03*
X19775Y-19075D03*
X19775Y-18475D03*
G54D16*
X16125Y-15175D03*
X15525Y-15175D03*
G54D15*
X18875Y-19075D03*
X18875Y-18475D03*
G54D17*
X05800Y-31950D03*
X05800Y-30950D03*
X05800Y-33950D03*
X05800Y-32950D03*
G54D18*
X18075Y-23075D03*
X18075Y-22075D03*
G54D19*
X36450Y-27025D03*
G54D12*
X37450Y-27025D03*
X36450Y-28025D03*
X37450Y-28025D03*
X36450Y-29025D03*
X37450Y-29025D03*
X36450Y-30025D03*
X37450Y-30025D03*
X36450Y-31025D03*
X37450Y-31025D03*
G54D19*
X01600Y-15475D03*
G54D12*
X01600Y-14475D03*
X02600Y-15475D03*
X02600Y-14475D03*
X03600Y-15475D03*
X03600Y-14475D03*
G54D19*
X14200Y-38400D03*
G54D12*
X14200Y-37400D03*
G54D19*
X16200Y-38400D03*
G54D12*
X16200Y-37400D03*
G54D19*
X35075Y-38375D03*
G54D12*
X35075Y-37375D03*
G54D19*
X34075Y-38375D03*
G54D12*
X34075Y-37375D03*
G54D19*
X19200Y-07300D03*
G54D12*
X20200Y-07300D03*
G54D19*
X08200Y-38400D03*
G54D12*
X08200Y-37400D03*
G54D19*
X07200Y-38400D03*
G54D12*
X07200Y-37400D03*
G54D19*
X06200Y-38400D03*
G54D12*
X06200Y-37400D03*
G54D19*
X29587Y-38385D03*
G54D12*
X28587Y-38385D03*
G54D19*
X17200Y-38400D03*
G54D12*
X17200Y-37400D03*
G54D19*
X12200Y-38400D03*
G54D12*
X12200Y-37400D03*
G54D19*
X13200Y-38400D03*
G54D12*
X13200Y-37400D03*
G54D19*
X09200Y-38400D03*
G54D12*
X09200Y-37400D03*
G54D19*
X31050Y-14200D03*
G54D12*
X31050Y-15200D03*
G54D19*
X11200Y-38400D03*
G54D12*
X11200Y-37400D03*
G54D19*
X10200Y-38400D03*
G54D12*
X10200Y-37400D03*
G54D19*
X15200Y-38400D03*
G54D12*
X15200Y-37400D03*
G54D19*
X21272Y-38385D03*
G54D12*
X22272Y-38385D03*
X23272Y-38385D03*
X24272Y-38385D03*
X25272Y-38385D03*
X26272Y-38385D03*
G54D19*
X15625Y-27325D03*
G54D12*
X15625Y-26325D03*
X15625Y-25325D03*
X15625Y-24325D03*
X15625Y-23325D03*
X15625Y-22325D03*
G54D20*
X35675Y-21350D03*
G54D21*
X33675Y-21350D03*
G54D22*
X01378Y-04735D03*
X37992Y-37993D03*
X01378Y-37993D03*
X37992Y-04735D03*
X19685Y-04735D03*
G54D19*
X30581Y-00700D03*
G54D12*
X31581Y-00700D03*
X32581Y-00700D03*
X33581Y-00700D03*
G54D19*
X12273Y-00700D03*
G54D12*
X13273Y-00700D03*
X14273Y-00700D03*
X15273Y-00700D03*
G54D19*
X22707Y-00700D03*
G54D12*
X23707Y-00700D03*
X24707Y-00700D03*
X25707Y-00700D03*
G54D19*
X04400Y-00700D03*
G54D12*
X05400Y-00700D03*
X06400Y-00700D03*
X07400Y-00700D03*
G54D15*
X30900Y-23650D03*
X30900Y-24250D03*
X35400Y-24425D03*
X35400Y-25025D03*
G54D16*
X31900Y-23350D03*
X32500Y-23350D03*
X32500Y-24550D03*
X31900Y-24550D03*
G54D23*
X37475Y-10025D03*
G54D24*
X37475Y-08025D03*
G54D15*
X15700Y-18475D03*
X15700Y-19075D03*
G54D16*
X19500Y-15150D03*
X18900Y-15150D03*
X17250Y-19300D03*
X17850Y-19300D03*
G54D25*
X13550Y-21000D03*
G54D26*
X14050Y-21000D03*
X13550Y-21500D03*
X14050Y-21500D03*
X13550Y-22000D03*
X14050Y-22000D03*
X13550Y-22500D03*
X14050Y-22500D03*
X13550Y-23000D03*
X14050Y-23000D03*
G54D27*
X02150Y-09997D03*
X02308Y-10411D03*
X02170Y-10844D03*
X02072Y-11296D03*
X02178Y-11730D03*
X02072Y-12163D03*
X02178Y-12596D03*
X02178Y-13068D03*
G54D28*
X06127Y-10450D03*
X06127Y-12714D03*
G54D29*
X00581Y-08141D03*
X00952Y-13381D03*
G54D30*
X19700Y-06300D03*
G54D31*
X06299Y-04735D03*
G54D32*
X04764Y-05176D03*
X05403Y-05176D03*
X06299Y-05176D03*
X05787Y-05176D03*
X07195Y-05176D03*
X06811Y-05176D03*
X07834Y-05176D03*
X07834Y-04294D03*
X07195Y-04294D03*
X06811Y-04294D03*
X06299Y-04294D03*
X05787Y-04294D03*
X05403Y-04294D03*
X04764Y-04294D03*
X04764Y-04735D03*
X05403Y-04735D03*
X05787Y-04735D03*
X06299Y-04735D03*
X06811Y-04735D03*
X07195Y-04735D03*
X07834Y-04735D03*
G54D31*
X24606Y-04735D03*
G54D32*
X23071Y-05176D03*
X23710Y-05176D03*
X24606Y-05176D03*
X24094Y-05176D03*
X25502Y-05176D03*
X25118Y-05176D03*
X26141Y-05176D03*
X26141Y-04294D03*
X25502Y-04294D03*
X25118Y-04294D03*
X24606Y-04294D03*
X24094Y-04294D03*
X23710Y-04294D03*
X23071Y-04294D03*
X23071Y-04735D03*
X23710Y-04735D03*
X24094Y-04735D03*
X24606Y-04735D03*
X25118Y-04735D03*
X25502Y-04735D03*
X26141Y-04735D03*
G54D31*
X14172Y-04735D03*
G54D32*
X12637Y-05176D03*
X13276Y-05176D03*
X14172Y-05176D03*
X13660Y-05176D03*
X15068Y-05176D03*
X14684Y-05176D03*
X15707Y-05176D03*
X15707Y-04294D03*
X15068Y-04294D03*
X14684Y-04294D03*
X14172Y-04294D03*
X13660Y-04294D03*
X13276Y-04294D03*
X12637Y-04294D03*
X12637Y-04735D03*
X13276Y-04735D03*
X13660Y-04735D03*
X14172Y-04735D03*
X14684Y-04735D03*
X15068Y-04735D03*
X15707Y-04735D03*
G54D31*
X32480Y-04735D03*
G54D32*
X30945Y-05176D03*
X31584Y-05176D03*
X32480Y-05176D03*
X31968Y-05176D03*
X33376Y-05176D03*
X32992Y-05176D03*
X34015Y-05176D03*
X34015Y-04294D03*
X33376Y-04294D03*
X32992Y-04294D03*
X32480Y-04294D03*
X31968Y-04294D03*
X31584Y-04294D03*
X30945Y-04294D03*
X30945Y-04735D03*
X31584Y-04735D03*
X31968Y-04735D03*
X32480Y-04735D03*
X32992Y-04735D03*
X33376Y-04735D03*
X34015Y-04735D03*
G54D33*
X00950Y-33825D03*
X36650Y-20350D03*
X36675Y-22725D03*
X34575Y-34632D03*
X36700Y-01450D03*
X35375Y-02275D03*
X32425Y-01425D03*
X30225Y-01825D03*
X22350Y-01850D03*
X27550Y-02250D03*
X24600Y-01450D03*
X36700Y-23975D03*
X17550Y-02250D03*
X09350Y-02250D03*
X14200Y-01400D03*
X11950Y-01850D03*
X06300Y-01350D03*
X04300Y-01950D03*
X25300Y-23150D03*
X17700Y-33400D03*
X27400Y-26325D03*
X27400Y-23650D03*
X18000Y-31175D03*
X01400Y-11300D03*
X29600Y-30575D03*
X10600Y-19300D03*
X13475Y-18725D03*
X29000Y-23650D03*
X27000Y-13875D03*
X27000Y-10925D03*
X27000Y-10125D03*
X31100Y-21275D03*
X30900Y-23325D03*
X03000Y-20000D03*
X05350Y-19800D03*
X13175Y-26525D03*
X19525Y-14800D03*
X16125Y-14825D03*
X16125Y-15525D03*
X15350Y-18475D03*
X20125Y-19075D03*
X20150Y-16250D03*
X22050Y-09650D03*
X29425Y-09500D03*
X33025Y-07550D03*
X25275Y-07600D03*
X21450Y-09500D03*
X03000Y-07850D03*
X14750Y-07550D03*
X22325Y-30125D03*
X24625Y-30125D03*
X26725Y-30125D03*
X30750Y-09500D03*
X22850Y-09500D03*
X12350Y-09500D03*
X10950Y-09500D03*
X07000Y-07600D03*
X04150Y-09500D03*
X19775Y-11300D03*
X17100Y-19525D03*
X04050Y-31650D03*
X02550Y-35450D03*
X06800Y-36350D03*
X08750Y-35700D03*
X18375Y-10825D03*
X01875Y-08825D03*
X31075Y-18600D03*
X18875Y-19600D03*
X26625Y-35825D03*
X27325Y-37400D03*
X29500Y-37400D03*
X24300Y-36350D03*
X21450Y-36350D03*
X10125Y-29250D03*
X02850Y-34950D03*
X10425Y-28925D03*
X07200Y-32500D03*
X07200Y-35700D03*
X10750Y-28525D03*
X08200Y-32500D03*
X08200Y-34850D03*
X16600Y-19525D03*
X19250Y-11300D03*
X30850Y-12100D03*
X19275Y-21750D03*
X20200Y-11125D03*
X18075Y-19625D03*
X17200Y-20650D03*
X17800Y-20650D03*
X09825Y-29600D03*
X07700Y-31600D03*
X07700Y-33750D03*
X18775Y-22575D03*
X20250Y-23700D03*
X21050Y-19850D03*
X25700Y-24575D03*
X13450Y-30500D03*
X20325Y-30225D03*
X21625Y-27975D03*
X23950Y-27975D03*
X25550Y-27975D03*
X36025Y-33875D03*
X34550Y-34000D03*
X33100Y-34100D03*
X22325Y-18325D03*
X14225Y-28100D03*
X26300Y-19975D03*
X07575Y-08275D03*
X04900Y-08325D03*
X16700Y-15350D03*
X16250Y-16500D03*
X13550Y-24450D03*
X13475Y-19150D03*
X16525Y-14525D03*
X25850Y-36350D03*
X29675Y-24075D03*
X36650Y-25425D03*
X30900Y-24575D03*
X35325Y-16300D03*
X22700Y-36950D03*
X34900Y-04725D03*
X10600Y-20500D03*
X03000Y-20600D03*
X05250Y-20450D03*
X19350Y-16900D03*
X18900Y-15475D03*
X18450Y-18475D03*
X16250Y-18450D03*
X18900Y-14800D03*
X15550Y-14825D03*
X15525Y-15500D03*
X15350Y-19075D03*
X20100Y-18475D03*
X20100Y-16875D03*
X31081Y-08325D03*
X33775Y-08300D03*
X33725Y-06700D03*
X29975Y-04775D03*
X28900Y-03025D03*
X23207Y-08325D03*
X25900Y-08275D03*
X25825Y-06900D03*
X21050Y-03000D03*
X27900Y-04050D03*
X27900Y-05300D03*
X22100Y-04800D03*
X29625Y-29625D03*
X31350Y-39000D03*
X35400Y-25425D03*
X15450Y-06750D03*
X15450Y-08250D03*
X12750Y-08350D03*
X11650Y-04700D03*
X17500Y-05400D03*
X17450Y-04050D03*
X10650Y-02950D03*
X02750Y-02900D03*
X03800Y-04850D03*
X07550Y-06900D03*
X09900Y-05850D03*
X09800Y-03650D03*
X04575Y-12600D03*
X02875Y-10925D03*
X17575Y-21500D03*
X37500Y-24925D03*
X34900Y-24425D03*
X05350Y-07100D03*
X02850Y-07100D03*
X10000Y-07250D03*
X07200Y-07250D03*
X06425Y-09100D03*
X08750Y-09125D03*
X13250Y-07100D03*
X10750Y-07100D03*
X16625Y-09075D03*
X14250Y-09075D03*
X18250Y-07250D03*
X15050Y-07250D03*
X23700Y-07100D03*
X21100Y-07100D03*
X27071Y-09075D03*
X24725Y-09050D03*
X25500Y-07250D03*
X28650Y-07250D03*
X34945Y-09050D03*
X32600Y-09075D03*
X31600Y-07100D03*
X29175Y-07100D03*
X33350Y-07250D03*
X36250Y-07250D03*
X05425Y-36975D03*
X05300Y-38700D03*
X17950Y-11325D03*
X07650Y-14700D03*
X15800Y-02250D03*
X16650Y-02250D03*
X26950Y-02250D03*
X26125Y-02250D03*
X19450Y-12550D03*
X08700Y-14700D03*
X17200Y-35700D03*
X12800Y-18450D03*
X17200Y-32500D03*
X12550Y-18125D03*
X16200Y-32500D03*
X16200Y-34850D03*
X12575Y-16925D03*
X12200Y-32500D03*
X12200Y-34850D03*
X12875Y-16625D03*
X11200Y-32500D03*
X11200Y-35700D03*
X10200Y-34850D03*
X12575Y-16300D03*
X10200Y-32500D03*
X12875Y-15975D03*
X09200Y-32500D03*
X09200Y-35700D03*
X23650Y-18125D03*
X23650Y-20800D03*
X23700Y-22875D03*
X14525Y-26450D03*
X12875Y-17825D03*
X15200Y-35700D03*
X15200Y-32500D03*
X12575Y-17525D03*
X14200Y-32500D03*
X14200Y-34850D03*
X12875Y-17225D03*
X13200Y-35700D03*
X13200Y-32500D03*
X08150Y-14700D03*
X20750Y-14225D03*
X34700Y-02250D03*
X34000Y-02250D03*
X07200Y-14700D03*
X10000Y-11325D03*
X07900Y-02300D03*
X08600Y-02300D03*
X21875Y-18300D03*
X08175Y-09950D03*
X21400Y-17925D03*
X16050Y-10600D03*
X26650Y-11625D03*
X26650Y-16625D03*
X27025Y-16175D03*
X33950Y-10325D03*
X22375Y-17150D03*
X22625Y-19750D03*
X08300Y-15900D03*
X04900Y-21150D03*
X20000Y-15275D03*
X18825Y-16000D03*
X17425Y-16025D03*
X11300Y-15800D03*
X03300Y-11850D03*
X01400Y-10425D03*
X15075Y-20625D03*
X14725Y-20100D03*
X04450Y-21150D03*
X17425Y-16550D03*
X18825Y-16550D03*
X20125Y-15725D03*
X08650Y-16200D03*
X11750Y-15800D03*
X26175Y-20675D03*
X14225Y-27000D03*
X26475Y-20350D03*
X14225Y-27500D03*
X10875Y-26150D03*
X17600Y-12325D03*
X14525Y-26025D03*
X19175Y-26525D03*
X35800Y-10000D03*
X06750Y-14700D03*
X09675Y-10925D03*
X27925Y-10000D03*
X17650Y-10000D03*
X09700Y-10000D03*
X20025Y-13075D03*
X21500Y-11675D03*
X17225Y-26225D03*
X18400Y-20775D03*
X01750Y-17400D03*
X03900Y-21150D03*
G54D34*
X32450Y-31025D02*
X31400Y-32075D01*
X36450Y-31025D02*
X32450Y-31025D01*
X18100Y-34100D02*
X18100Y-36000D01*
X18100Y-36000D02*
X17350Y-36750D01*
X17350Y-36750D02*
X06150Y-36750D01*
X06150Y-36750D02*
X05350Y-35950D01*
X05350Y-35950D02*
X02225Y-35950D01*
X02225Y-35950D02*
X00950Y-34675D01*
X00950Y-34675D02*
X00950Y-33825D01*
X20125Y-32075D02*
X18100Y-34100D01*
X31400Y-32075D02*
X20125Y-32075D01*
G54D35*
X38750Y-22375D02*
X38750Y-20850D01*
X37450Y-30025D02*
X38750Y-30025D01*
X38750Y-22375D02*
X38750Y-30025D01*
X33525Y-13975D02*
X37475Y-10025D01*
X33525Y-16950D02*
X33525Y-13975D01*
X34700Y-18125D02*
X33525Y-16950D01*
X36025Y-18125D02*
X34700Y-18125D01*
X38750Y-20850D02*
X36025Y-18125D01*
X36650Y-23525D02*
X36650Y-20350D01*
G54D36*
X36650Y-22750D02*
X36650Y-23525D01*
X36675Y-22725D02*
X36650Y-22750D01*
X35875Y-34625D02*
X36450Y-34050D01*
X36450Y-34050D02*
X36450Y-31025D01*
X35075Y-38375D02*
X35875Y-37575D01*
X35875Y-37575D02*
X35875Y-34625D01*
X35875Y-34625D02*
X35875Y-34650D01*
X35875Y-34650D02*
X35875Y-34625D01*
X34575Y-34632D02*
X34582Y-34625D01*
X34582Y-34625D02*
X35875Y-34625D01*
X35075Y-38375D02*
X34075Y-38375D01*
G54D35*
X37450Y-30025D02*
X37450Y-31025D01*
X36450Y-31025D02*
X37450Y-31025D01*
X36700Y-01450D02*
X36700Y-01425D01*
X36700Y-01425D02*
X36975Y-01425D01*
X35350Y-01425D02*
X37275Y-01425D01*
X36975Y-01425D02*
X37275Y-01425D01*
G54D36*
X35350Y-01425D02*
X35350Y-02250D01*
X35375Y-02275D02*
X35350Y-02250D01*
X32425Y-01425D02*
X35350Y-01425D01*
X30225Y-01825D02*
X30625Y-01425D01*
X30625Y-01425D02*
X32425Y-01425D01*
X29800Y-02250D02*
X27550Y-02250D01*
X30225Y-01825D02*
X29800Y-02250D01*
X24600Y-01450D02*
X22750Y-01450D01*
X22750Y-01450D02*
X22350Y-01850D01*
X26750Y-01450D02*
X24600Y-01450D01*
X27550Y-02250D02*
X26750Y-01450D01*
X36700Y-23975D02*
X36650Y-23925D01*
X36650Y-23925D02*
X36650Y-23525D01*
X36650Y-23525D02*
X36675Y-23500D01*
X16700Y-01400D02*
X14200Y-01400D01*
X17550Y-02250D02*
X16700Y-01400D01*
X09350Y-02250D02*
X09350Y-01700D01*
G54D34*
X13750Y-01850D02*
X11950Y-01850D01*
X14200Y-01400D02*
X13750Y-01850D01*
G54D36*
X06250Y-01700D02*
X09350Y-01700D01*
X06250Y-01700D02*
X05850Y-01700D01*
X09350Y-01700D02*
X10150Y-01700D01*
X11950Y-01850D02*
X11800Y-01700D01*
X11800Y-01700D02*
X10150Y-01700D01*
G54D34*
X05850Y-01750D02*
X05850Y-01700D01*
X05900Y-01700D02*
X05850Y-01750D01*
X05950Y-01700D02*
X05900Y-01700D01*
X06300Y-01350D02*
X05950Y-01700D01*
G54D36*
X04300Y-01950D02*
X04550Y-01700D01*
X04550Y-01700D02*
X05850Y-01700D01*
X25300Y-23150D02*
X25800Y-23650D01*
X25800Y-23650D02*
X27400Y-23650D01*
X22325Y-30125D02*
X21600Y-30850D01*
X20250Y-30850D02*
X17700Y-33400D01*
X21600Y-30850D02*
X20250Y-30850D01*
X27975Y-28575D02*
X27400Y-28000D01*
X27400Y-28000D02*
X27400Y-26325D01*
X30125Y-29425D02*
X29275Y-28575D01*
X29275Y-28575D02*
X27975Y-28575D01*
X29550Y-30425D02*
X29625Y-30425D01*
X30125Y-29925D02*
X30125Y-29425D01*
X29625Y-30425D02*
X30125Y-29925D01*
G54D34*
X12963Y-30463D02*
X12963Y-26525D01*
X12963Y-30463D02*
X13675Y-31175D01*
X13675Y-31175D02*
X18000Y-31175D01*
X02072Y-11296D02*
X01404Y-11296D01*
X01404Y-11296D02*
X01400Y-11300D01*
X29550Y-30425D02*
X29550Y-30525D01*
X29550Y-30525D02*
X29600Y-30575D01*
G54D36*
X12350Y-07600D02*
X08300Y-07600D01*
X13075Y-20575D02*
X13075Y-21000D01*
X13075Y-19050D02*
X13400Y-18725D01*
X13075Y-20575D02*
X13075Y-19050D01*
X13513Y-18612D02*
X13400Y-18725D01*
X13075Y-21000D02*
X13550Y-21000D01*
G54D34*
X12963Y-21574D02*
X12963Y-21037D01*
X12963Y-21037D02*
X13000Y-21000D01*
X13000Y-21000D02*
X13550Y-21000D01*
X12963Y-26525D02*
X12963Y-21574D01*
G54D36*
X10100Y-19800D02*
X10600Y-19300D01*
X05350Y-19800D02*
X10100Y-19800D01*
X13513Y-18687D02*
X13513Y-18612D01*
X13475Y-18725D02*
X13513Y-18687D01*
X13550Y-21000D02*
X13500Y-21000D01*
X13513Y-18612D02*
X13650Y-18475D01*
X13650Y-18475D02*
X15350Y-18475D01*
X12350Y-07600D02*
X14700Y-07600D01*
X14700Y-07600D02*
X14750Y-07550D01*
X12350Y-07600D02*
X12350Y-07750D01*
X12350Y-07750D02*
X12350Y-08100D01*
X12350Y-08100D02*
X12350Y-09500D01*
X08300Y-07600D02*
X07000Y-07600D01*
X22850Y-07825D02*
X15025Y-07825D01*
X15025Y-07825D02*
X14750Y-07550D01*
X22850Y-07825D02*
X22825Y-07825D01*
X22825Y-07825D02*
X22850Y-07825D01*
X23250Y-07625D02*
X22900Y-07625D01*
X25250Y-07625D02*
X23250Y-07625D01*
G54D34*
X25275Y-07600D02*
X25250Y-07625D01*
G54D36*
X22850Y-08025D02*
X22850Y-09500D01*
X22850Y-07675D02*
X22850Y-07825D01*
X22850Y-07825D02*
X22850Y-08025D01*
X22900Y-07625D02*
X22850Y-07675D01*
X30750Y-07600D02*
X25275Y-07600D01*
X31175Y-07600D02*
X30750Y-07600D01*
X33025Y-07550D02*
X32975Y-07600D01*
X32975Y-07600D02*
X31175Y-07600D01*
X30750Y-08025D02*
X30750Y-09500D01*
X30750Y-07600D02*
X30750Y-08025D01*
X27000Y-09500D02*
X27000Y-10125D01*
X27000Y-10925D02*
X27000Y-13875D01*
X30900Y-23650D02*
X29000Y-23650D01*
X29000Y-23650D02*
X27400Y-23650D01*
X30900Y-23325D02*
X30900Y-21475D01*
X30900Y-21475D02*
X31100Y-21275D01*
X28625Y-30425D02*
X29550Y-30425D01*
X31900Y-23350D02*
X31600Y-23350D01*
X31300Y-23650D02*
X30900Y-23650D01*
X31600Y-23350D02*
X31300Y-23650D01*
X30900Y-23325D02*
X30900Y-23650D01*
G54D34*
X03000Y-20000D02*
X03350Y-20000D01*
X05300Y-19850D02*
X04900Y-19850D01*
X05350Y-19800D02*
X05300Y-19850D01*
X13175Y-26525D02*
X12963Y-26525D01*
X12963Y-26525D02*
X13000Y-26525D01*
X13000Y-26525D02*
X12963Y-26525D01*
X19500Y-14825D02*
X19500Y-15150D01*
X19525Y-14800D02*
X19500Y-14825D01*
X16125Y-14825D02*
X16125Y-15175D01*
X16125Y-15525D02*
X16125Y-15175D01*
X15350Y-18475D02*
X15700Y-18475D01*
X20125Y-19075D02*
X19775Y-19075D01*
X20125Y-16275D02*
X19775Y-16275D01*
X20150Y-16250D02*
X20125Y-16275D01*
X13550Y-21000D02*
X13537Y-21000D01*
X22050Y-09650D02*
X22050Y-09500D01*
X29425Y-09500D02*
X30750Y-09500D01*
X22850Y-09500D02*
X22050Y-09500D01*
X22050Y-09500D02*
X21450Y-09500D01*
G54D36*
X28625Y-30425D02*
X28325Y-30125D01*
X28325Y-30125D02*
X26725Y-30125D01*
X04150Y-07850D02*
X03000Y-07850D01*
X04150Y-07850D02*
X04100Y-07850D01*
X04100Y-07850D02*
X04150Y-07850D01*
X04150Y-09500D02*
X04150Y-07850D01*
X04150Y-07850D02*
X04150Y-07750D01*
X04300Y-07600D02*
X07000Y-07600D01*
X04150Y-07750D02*
X04300Y-07600D01*
X24625Y-30125D02*
X22325Y-30125D01*
X26725Y-30125D02*
X24625Y-30125D01*
X22850Y-09500D02*
X27000Y-09500D01*
X27000Y-09500D02*
X30750Y-09500D01*
X12350Y-09500D02*
X22850Y-09500D01*
X10950Y-09500D02*
X04600Y-09500D01*
X04600Y-09500D02*
X04150Y-09500D01*
X10950Y-09500D02*
X12350Y-09500D01*
G54D34*
X07000Y-07600D02*
X06950Y-07650D01*
X17250Y-18596D02*
X17250Y-19300D01*
X18350Y-17496D02*
X18350Y-12725D01*
X17250Y-18596D02*
X18350Y-17496D01*
X19775Y-11300D02*
X18350Y-12725D01*
X17250Y-19300D02*
X17250Y-19375D01*
X17250Y-19375D02*
X17100Y-19525D01*
X05800Y-33950D02*
X04950Y-33950D01*
X04050Y-33050D02*
X04050Y-31650D01*
X04950Y-33950D02*
X04050Y-33050D01*
X06800Y-35500D02*
X06800Y-36350D01*
X06750Y-35450D02*
X06800Y-35500D01*
X02550Y-35450D02*
X06750Y-35450D01*
X08100Y-36350D02*
X06800Y-36350D01*
X08750Y-35700D02*
X08100Y-36350D01*
X01875Y-08825D02*
X01925Y-08825D01*
X18250Y-10950D02*
X18375Y-10825D01*
X15825Y-10950D02*
X18250Y-10950D01*
X15475Y-10600D02*
X15825Y-10950D01*
X07825Y-10600D02*
X15475Y-10600D01*
X07425Y-11000D02*
X07825Y-10600D01*
X04100Y-11000D02*
X07425Y-11000D01*
X01925Y-08825D02*
X04100Y-11000D01*
X20425Y-21150D02*
X24000Y-21150D01*
X27325Y-18600D02*
X31075Y-18600D01*
X24450Y-18600D02*
X27325Y-18600D01*
X24275Y-18775D02*
X24450Y-18600D01*
X24275Y-20875D02*
X24275Y-18775D01*
X24000Y-21150D02*
X24275Y-20875D01*
X20325Y-21050D02*
X20425Y-21150D01*
X20425Y-21150D02*
X20400Y-21125D01*
X18875Y-19600D02*
X20325Y-21050D01*
X18875Y-19075D02*
X18875Y-19600D01*
X26625Y-35925D02*
X26650Y-35950D01*
X26625Y-35825D02*
X26625Y-35925D01*
G54D36*
X26650Y-35925D02*
X26650Y-35950D01*
X26650Y-35950D02*
X26650Y-37400D01*
X24300Y-36350D02*
X24725Y-35925D01*
X24725Y-35925D02*
X26650Y-35925D01*
X26650Y-35925D02*
X26600Y-35925D01*
X26600Y-35925D02*
X26650Y-35925D01*
X26650Y-37400D02*
X26600Y-37400D01*
X29500Y-37400D02*
X27325Y-37400D01*
X27325Y-37400D02*
X26600Y-37400D01*
X26272Y-37728D02*
X26272Y-38385D01*
X26600Y-37400D02*
X26272Y-37728D01*
X21450Y-36350D02*
X24300Y-36350D01*
G54D34*
X26365Y-38385D02*
X26272Y-38385D01*
X07225Y-30925D02*
X06850Y-31300D01*
X09500Y-30925D02*
X07225Y-30925D01*
X10150Y-30275D02*
X09500Y-30925D01*
X10150Y-29275D02*
X10150Y-30275D01*
X10125Y-29250D02*
X10150Y-29275D01*
X06850Y-31300D02*
X06850Y-34950D01*
X06850Y-34950D02*
X02850Y-34950D01*
X07200Y-31350D02*
X07200Y-32500D01*
X07450Y-31100D02*
X07200Y-31350D01*
X09575Y-31100D02*
X07450Y-31100D01*
X10425Y-30250D02*
X09575Y-31100D01*
X10425Y-28925D02*
X10425Y-30250D01*
X07200Y-35700D02*
X07200Y-32500D01*
X08200Y-32500D02*
X08725Y-32500D01*
X10750Y-30475D02*
X10750Y-28525D01*
X08725Y-32500D02*
X10750Y-30475D01*
X08200Y-34850D02*
X08200Y-32500D01*
X16600Y-19525D02*
X16600Y-19350D01*
X19250Y-11575D02*
X19250Y-11300D01*
X18188Y-12637D02*
X19250Y-11575D01*
X18188Y-17412D02*
X18188Y-12637D01*
X17075Y-18525D02*
X18188Y-17412D01*
X17075Y-18875D02*
X17075Y-18525D01*
X16600Y-19350D02*
X17075Y-18875D01*
X24775Y-19100D02*
X24600Y-19275D01*
X24600Y-19275D02*
X24600Y-20975D01*
X24600Y-20975D02*
X24200Y-21375D01*
X27450Y-19100D02*
X31375Y-19100D01*
X31375Y-19100D02*
X31775Y-18700D01*
X31775Y-18700D02*
X31775Y-17975D01*
X31775Y-13025D02*
X30850Y-12100D01*
X31775Y-17975D02*
X31775Y-13025D01*
X27450Y-19100D02*
X24775Y-19100D01*
X19650Y-21375D02*
X24200Y-21375D01*
X19275Y-21750D02*
X19650Y-21375D01*
X17850Y-19300D02*
X17850Y-18225D01*
X20200Y-11325D02*
X20200Y-11125D01*
X18525Y-13000D02*
X20200Y-11325D01*
X18525Y-17550D02*
X18525Y-13000D01*
X17850Y-18225D02*
X18525Y-17550D01*
X17850Y-19400D02*
X17850Y-19300D01*
X18075Y-19625D02*
X17850Y-19400D01*
X17800Y-20650D02*
X17200Y-20650D01*
X06000Y-30750D02*
X05800Y-30950D01*
X09375Y-30750D02*
X06000Y-30750D01*
X09825Y-30300D02*
X09375Y-30750D01*
X09825Y-29600D02*
X09825Y-30300D01*
X07700Y-33750D02*
X07700Y-31600D01*
G54D36*
X06200Y-37400D02*
X07200Y-37400D01*
X07200Y-37400D02*
X08200Y-37400D01*
G54D34*
X02072Y-12163D02*
X01762Y-12163D01*
X02975Y-13850D02*
X03600Y-14475D01*
X02050Y-13850D02*
X02975Y-13850D01*
X01600Y-13400D02*
X02050Y-13850D01*
X01600Y-12325D02*
X01600Y-13400D01*
X01762Y-12163D02*
X01600Y-12325D01*
X13550Y-22000D02*
X13550Y-21500D01*
G54D36*
X18775Y-22575D02*
X18775Y-22325D01*
X18775Y-21950D02*
X18775Y-22325D01*
X18775Y-20125D02*
X18450Y-19800D01*
X18775Y-21950D02*
X18775Y-20125D01*
X18450Y-18475D02*
X18450Y-19800D01*
X18775Y-22325D02*
X18775Y-22775D01*
X18775Y-22775D02*
X19700Y-23700D01*
X19700Y-23700D02*
X20250Y-23700D01*
X21050Y-19850D02*
X20650Y-19450D01*
X20650Y-19450D02*
X20650Y-19025D01*
X20100Y-18475D02*
X20650Y-19025D01*
X25700Y-24575D02*
X25700Y-24600D01*
X25700Y-24600D02*
X25700Y-24575D01*
X13550Y-24450D02*
X13550Y-29575D01*
X13550Y-29575D02*
X13550Y-30275D01*
X13550Y-30400D02*
X13450Y-30500D01*
X13550Y-30275D02*
X13550Y-30400D01*
X25700Y-24575D02*
X25700Y-25875D01*
X25700Y-27825D02*
X25550Y-27975D01*
X25700Y-25875D02*
X25700Y-27825D01*
X21625Y-27975D02*
X23950Y-27975D01*
X21300Y-34850D02*
X26550Y-34850D01*
G54D34*
X30650Y-35250D02*
X30650Y-35300D01*
G54D36*
X30250Y-34850D02*
X30650Y-35250D01*
X26575Y-34850D02*
X30250Y-34850D01*
X20300Y-35850D02*
X21300Y-34850D01*
X20300Y-37400D02*
X20300Y-35850D01*
X21272Y-38372D02*
X20300Y-37400D01*
G54D34*
X21272Y-38385D02*
X21272Y-38372D01*
G54D36*
X31350Y-35850D02*
X31350Y-39000D01*
X30800Y-35300D02*
X31350Y-35850D01*
G54D34*
X30650Y-35300D02*
X30800Y-35300D01*
G54D36*
X26550Y-34850D02*
X26575Y-34825D01*
X26575Y-34825D02*
X26575Y-34850D01*
G54D34*
X18400Y-18525D02*
X18450Y-18475D01*
X00581Y-08141D02*
X00581Y-08339D01*
X00581Y-08339D02*
X00652Y-08410D01*
X00952Y-13381D02*
X00952Y-13302D01*
X00952Y-13302D02*
X00652Y-13002D01*
G54D36*
X21625Y-27975D02*
X21625Y-28925D01*
X21625Y-28925D02*
X20325Y-30225D01*
X25550Y-27975D02*
X25050Y-27975D01*
X25025Y-27975D02*
X23950Y-27975D01*
X25050Y-27975D02*
X25025Y-27975D01*
X29625Y-29625D02*
X27825Y-29625D01*
X27825Y-29625D02*
X26175Y-27975D01*
X26175Y-27975D02*
X25550Y-27975D01*
X34550Y-34000D02*
X35900Y-34000D01*
X35900Y-34000D02*
X36025Y-33875D01*
X33200Y-34000D02*
X34550Y-34000D01*
X33100Y-34100D02*
X33200Y-34000D01*
G54D34*
X21500Y-18475D02*
X21650Y-18625D01*
X21650Y-18625D02*
X22025Y-18625D01*
X22025Y-18625D02*
X22325Y-18325D01*
X25425Y-22425D02*
X19300Y-28550D01*
X19300Y-28550D02*
X14675Y-28550D01*
X14675Y-28550D02*
X14225Y-28100D01*
X21250Y-18475D02*
X20100Y-18475D01*
X21250Y-18475D02*
X21500Y-18475D01*
X26775Y-21075D02*
X25425Y-22425D01*
X26775Y-20225D02*
X26775Y-21075D01*
X26525Y-19975D02*
X26775Y-20225D01*
X26300Y-19975D02*
X26525Y-19975D01*
X13325Y-22000D02*
X13275Y-22000D01*
X13550Y-22000D02*
X13325Y-22000D01*
X13250Y-23000D02*
X13550Y-23000D01*
X13125Y-22875D02*
X13250Y-23000D01*
X13125Y-22150D02*
X13125Y-22875D01*
X13275Y-22000D02*
X13125Y-22150D01*
G54D36*
X04950Y-08275D02*
X07575Y-08275D01*
X04900Y-08325D02*
X04950Y-08275D01*
G54D34*
X16525Y-15175D02*
X16525Y-14525D01*
X16700Y-15350D02*
X16525Y-15175D01*
G54D36*
X13550Y-19075D02*
X15350Y-19075D01*
X13475Y-19150D02*
X13550Y-19075D01*
X19300Y-18625D02*
X19300Y-18475D01*
X16525Y-14525D02*
X16400Y-14400D01*
X16400Y-14400D02*
X15975Y-14400D01*
X15975Y-14400D02*
X15550Y-14825D01*
X24272Y-36953D02*
X24272Y-37222D01*
X24272Y-37222D02*
X24272Y-38385D01*
X24272Y-36953D02*
X22703Y-36953D01*
X22703Y-36953D02*
X22700Y-36950D01*
X29587Y-38385D02*
X29587Y-39000D01*
X29575Y-38975D02*
X29575Y-39000D01*
X29575Y-38988D02*
X29575Y-38975D01*
X29587Y-39000D02*
X29575Y-38988D01*
X28972Y-39000D02*
X29575Y-39000D01*
X24700Y-39000D02*
X28972Y-39000D01*
X29575Y-39000D02*
X30200Y-39000D01*
X30200Y-39000D02*
X31350Y-39000D01*
X24272Y-38385D02*
X24272Y-39000D01*
X24272Y-39000D02*
X24275Y-38997D01*
X24275Y-38997D02*
X24275Y-38975D01*
X24275Y-38975D02*
X24275Y-39000D01*
X24650Y-39000D02*
X24275Y-39000D01*
X24275Y-39000D02*
X23750Y-39000D01*
X23750Y-39000D02*
X21272Y-39000D01*
X24272Y-36953D02*
X25247Y-36953D01*
X25247Y-36953D02*
X25850Y-36350D01*
X29675Y-24575D02*
X29675Y-24075D01*
X37450Y-28025D02*
X37450Y-27875D01*
X37450Y-27875D02*
X36975Y-27400D01*
X36975Y-27400D02*
X36975Y-26575D01*
X36975Y-26575D02*
X36690Y-26290D01*
X36690Y-26290D02*
X32615Y-26290D01*
X32615Y-26290D02*
X30900Y-24575D01*
X25700Y-24575D02*
X29675Y-24575D01*
X29675Y-24575D02*
X30900Y-24575D01*
G54D35*
X36650Y-25425D02*
X36650Y-24825D01*
G54D36*
X30900Y-24250D02*
X31300Y-24250D01*
X31600Y-24550D02*
X31900Y-24550D01*
X31300Y-24250D02*
X31600Y-24550D01*
X30900Y-24575D02*
X30900Y-24250D01*
G54D35*
X38700Y-12925D02*
X35325Y-16300D01*
X37850Y-08025D02*
X38700Y-08875D01*
X38700Y-08875D02*
X38700Y-12925D01*
X37475Y-08025D02*
X37850Y-08025D01*
X37992Y-04735D02*
X37992Y-05758D01*
X37475Y-06275D02*
X37475Y-08025D01*
X37992Y-05758D02*
X37475Y-06275D01*
X00652Y-08410D02*
X00652Y-05461D01*
X00652Y-05461D02*
X01378Y-04735D01*
X01007Y-13528D02*
X01003Y-13528D01*
X00652Y-13177D02*
X00652Y-13002D01*
X00652Y-13002D02*
X00652Y-08410D01*
X01003Y-13528D02*
X00652Y-13177D01*
X01750Y-25488D02*
X01750Y-23425D01*
X00575Y-13525D02*
X01007Y-13528D01*
X00575Y-22250D02*
X00575Y-13525D01*
X01750Y-23425D02*
X00575Y-22250D01*
G54D36*
X29587Y-38385D02*
X29587Y-38387D01*
X24272Y-38478D02*
X24272Y-38385D01*
X22700Y-36950D02*
X21272Y-36950D01*
X21272Y-36950D02*
X21272Y-37253D01*
X21272Y-37253D02*
X21272Y-38385D01*
X37992Y-04735D02*
X34910Y-04735D01*
X34910Y-04735D02*
X34900Y-04725D01*
G54D35*
X01750Y-30212D02*
X01750Y-25488D01*
G54D36*
X10200Y-37400D02*
X09200Y-37400D01*
G54D34*
X24606Y-04735D02*
X22165Y-04735D01*
X22165Y-04735D02*
X22100Y-04800D01*
X32480Y-04735D02*
X37992Y-04735D01*
X22165Y-04735D02*
X22100Y-04800D01*
G54D36*
X05250Y-20450D02*
X10550Y-20450D01*
G54D34*
X10550Y-20450D02*
X10600Y-20500D01*
X03600Y-14475D02*
X03575Y-14475D01*
X03600Y-20600D02*
X03350Y-20600D01*
X03700Y-20500D02*
X03600Y-20600D01*
X03700Y-16450D02*
X03700Y-20500D01*
X03100Y-15850D02*
X03700Y-16450D01*
X03100Y-14950D02*
X03100Y-15850D01*
X03575Y-14475D02*
X03100Y-14950D01*
X03000Y-20600D02*
X03350Y-20600D01*
X05250Y-20450D02*
X04900Y-20450D01*
X18900Y-15150D02*
X18900Y-15475D01*
G54D36*
X19375Y-16875D02*
X19775Y-16875D01*
G54D34*
X19350Y-16900D02*
X19375Y-16875D01*
G54D36*
X19775Y-16875D02*
X19775Y-18475D01*
G54D34*
X19650Y-16875D02*
X19775Y-16875D01*
X15550Y-14825D02*
X15575Y-14825D01*
G54D36*
X18875Y-18475D02*
X18450Y-18475D01*
X16125Y-19075D02*
X15700Y-19075D01*
X16250Y-18450D02*
X16250Y-18950D01*
X16250Y-18950D02*
X16125Y-19075D01*
G54D34*
X18900Y-15150D02*
X18900Y-14800D01*
X15525Y-15175D02*
X15525Y-14850D01*
X15525Y-14850D02*
X15550Y-14825D01*
X15525Y-15175D02*
X15525Y-15500D01*
X15700Y-19075D02*
X15350Y-19075D01*
G54D36*
X18875Y-18475D02*
X19300Y-18475D01*
X19300Y-18475D02*
X19325Y-18475D01*
X19325Y-18475D02*
X19775Y-18475D01*
G54D34*
X20100Y-18475D02*
X19775Y-18475D01*
X20100Y-16875D02*
X19775Y-16875D01*
G54D36*
X13550Y-24450D02*
X13550Y-23000D01*
G54D34*
X13550Y-23375D02*
X13550Y-23000D01*
G54D36*
X31106Y-08300D02*
X31081Y-08325D01*
X31106Y-08300D02*
X33775Y-08300D01*
X33010Y-04735D02*
X32480Y-04735D01*
X33725Y-06700D02*
X33725Y-05450D01*
X33725Y-05450D02*
X33010Y-04735D01*
X29825Y-04750D02*
X29825Y-04735D01*
X29840Y-04735D02*
X29825Y-04750D01*
X29935Y-04735D02*
X29840Y-04735D01*
X29975Y-04775D02*
X29935Y-04735D01*
X28900Y-03025D02*
X28900Y-04735D01*
X28900Y-04735D02*
X28900Y-04750D01*
X28900Y-04750D02*
X28900Y-04735D01*
X23257Y-08275D02*
X25900Y-08275D01*
G54D34*
X23257Y-08275D02*
X23207Y-08325D01*
G54D36*
X25825Y-06900D02*
X25825Y-06575D01*
G54D34*
X25825Y-06575D02*
X24606Y-05356D01*
X24606Y-05356D02*
X24606Y-04735D01*
G54D36*
X21050Y-03000D02*
X21050Y-04735D01*
X21050Y-04735D02*
X21050Y-04750D01*
X21050Y-04750D02*
X21050Y-04735D01*
X27900Y-04750D02*
X27900Y-04050D01*
X27900Y-05300D02*
X27900Y-04735D01*
X27900Y-04735D02*
X27900Y-04750D01*
X27900Y-04750D02*
X27900Y-04735D01*
X22165Y-04735D02*
X22385Y-04735D01*
X22100Y-04800D02*
X22165Y-04735D01*
G54D34*
X29575Y-29675D02*
X29625Y-29625D01*
X24650Y-39000D02*
X24700Y-38950D01*
X24700Y-38950D02*
X24700Y-39000D01*
G54D36*
X21272Y-38385D02*
X21272Y-39000D01*
G54D34*
X21272Y-39000D02*
X21250Y-39000D01*
G54D36*
X35400Y-25025D02*
X35400Y-25425D01*
X10200Y-37400D02*
X11200Y-37400D01*
X11200Y-37400D02*
X12200Y-37400D01*
X12200Y-37400D02*
X13200Y-37400D01*
X13200Y-37400D02*
X14200Y-37400D01*
X14200Y-37400D02*
X15200Y-37400D01*
X15200Y-37400D02*
X16200Y-37400D01*
X16200Y-37400D02*
X17200Y-37400D01*
X24650Y-39000D02*
X24700Y-39000D01*
G54D34*
X24272Y-38385D02*
X24135Y-38385D01*
X21272Y-38385D02*
X21272Y-38378D01*
X15450Y-06750D02*
X14172Y-05472D01*
X14172Y-05472D02*
X14172Y-04735D01*
G54D36*
X12850Y-08250D02*
X15450Y-08250D01*
G54D34*
X12750Y-08350D02*
X12850Y-08250D01*
G54D36*
X11500Y-04700D02*
X11500Y-04735D01*
X11535Y-04735D02*
X11500Y-04700D01*
X11615Y-04735D02*
X11535Y-04735D01*
X11650Y-04700D02*
X11615Y-04735D01*
X17450Y-05350D02*
X17450Y-04735D01*
X17500Y-05400D02*
X17450Y-05350D01*
X17450Y-04050D02*
X17450Y-04735D01*
X17450Y-04735D02*
X17450Y-04700D01*
X17450Y-04700D02*
X17450Y-04735D01*
X10650Y-02950D02*
X10650Y-04735D01*
X10650Y-04735D02*
X10650Y-04750D01*
X10650Y-04750D02*
X10650Y-04735D01*
G54D34*
X02750Y-02900D02*
X01378Y-04272D01*
X01378Y-04272D02*
X01378Y-04735D01*
G54D36*
X03800Y-04850D02*
X03800Y-04735D01*
X03800Y-04735D02*
X03800Y-04700D01*
X03800Y-04700D02*
X03800Y-04735D01*
X07550Y-06900D02*
X07550Y-06500D01*
X07550Y-06500D02*
X06299Y-05249D01*
X06299Y-05249D02*
X06299Y-04735D01*
X09800Y-05750D02*
X09800Y-04735D01*
X09900Y-05850D02*
X09800Y-05750D01*
X09800Y-03650D02*
X09800Y-04735D01*
X09800Y-04735D02*
X09800Y-04800D01*
X09800Y-04800D02*
X09800Y-04735D01*
X01378Y-04735D02*
X02750Y-04735D01*
X02750Y-04735D02*
X03800Y-04735D01*
X03800Y-04735D02*
X06299Y-04735D01*
X06299Y-04735D02*
X09800Y-04735D01*
X09800Y-04735D02*
X10650Y-04735D01*
X10650Y-04735D02*
X11500Y-04735D01*
X11500Y-04735D02*
X14172Y-04735D01*
X14172Y-04735D02*
X17450Y-04735D01*
X17450Y-04735D02*
X19685Y-04735D01*
X19685Y-04735D02*
X21050Y-04735D01*
X21050Y-04735D02*
X22400Y-04735D01*
X22400Y-04735D02*
X24606Y-04735D01*
X24606Y-04735D02*
X27900Y-04735D01*
X27900Y-04735D02*
X28900Y-04735D01*
X28900Y-04735D02*
X29825Y-04735D01*
X29825Y-04735D02*
X32480Y-04735D01*
G54D34*
X04571Y-12596D02*
X02178Y-12596D01*
X04575Y-12600D02*
X04571Y-12596D01*
X02875Y-10925D02*
X02251Y-10925D01*
X02251Y-10925D02*
X02170Y-10844D01*
X18075Y-22950D02*
X18075Y-23075D01*
X17575Y-22450D02*
X18075Y-22950D01*
X17575Y-21500D02*
X17575Y-22450D01*
G54D36*
X37350Y-26050D02*
X33975Y-26050D01*
X37500Y-24925D02*
X37500Y-25900D01*
X37500Y-25900D02*
X37350Y-26050D01*
X32500Y-24575D02*
X33700Y-25775D01*
X32500Y-24550D02*
X32500Y-24575D01*
X33975Y-26050D02*
X33700Y-25775D01*
X32500Y-23350D02*
X32500Y-24550D01*
X34900Y-24425D02*
X35400Y-24425D01*
X02850Y-07100D02*
X05350Y-07100D01*
X10000Y-07250D02*
X07200Y-07250D01*
G54D34*
X08725Y-09100D02*
X06425Y-09100D01*
X08750Y-09125D02*
X08725Y-09100D01*
G54D36*
X10750Y-07100D02*
X13250Y-07100D01*
G54D34*
X14250Y-09075D02*
X16625Y-09075D01*
G54D36*
X18250Y-07250D02*
X15050Y-07250D01*
X21100Y-07100D02*
X23700Y-07100D01*
G54D34*
X27046Y-09050D02*
X24725Y-09050D01*
X27046Y-09050D02*
X27071Y-09075D01*
G54D36*
X28650Y-07250D02*
X25500Y-07250D01*
G54D34*
X32700Y-09075D02*
X32600Y-09075D01*
X34920Y-09075D02*
X32700Y-09075D01*
X34920Y-09075D02*
X34945Y-09050D01*
G54D36*
X29175Y-07100D02*
X31600Y-07100D01*
X36250Y-07250D02*
X33350Y-07250D01*
G54D34*
X05300Y-37100D02*
X05425Y-36975D01*
X05300Y-38700D02*
X05300Y-37100D01*
X11025Y-11325D02*
X07663Y-14687D01*
X12050Y-11325D02*
X11025Y-11325D01*
X12050Y-11325D02*
X17950Y-11325D01*
X07650Y-14700D02*
X07663Y-14687D01*
X15800Y-02250D02*
X16650Y-02250D01*
X26125Y-02250D02*
X26950Y-02250D01*
X19450Y-12550D02*
X20725Y-11275D01*
X20725Y-11275D02*
X20725Y-10950D01*
X20725Y-10950D02*
X20600Y-10825D01*
X20600Y-10825D02*
X19150Y-10825D01*
X19150Y-10825D02*
X18175Y-11800D01*
X18175Y-11800D02*
X11475Y-11800D01*
X11475Y-11800D02*
X08725Y-14550D01*
X08725Y-14675D02*
X08725Y-14550D01*
X08700Y-14700D02*
X08725Y-14675D01*
X17200Y-35700D02*
X17200Y-32500D01*
X12800Y-29975D02*
X12800Y-30725D01*
X12800Y-28725D02*
X12800Y-29975D01*
X16450Y-31750D02*
X17200Y-32500D01*
X13825Y-31750D02*
X16450Y-31750D01*
X12800Y-30725D02*
X13825Y-31750D01*
X12800Y-28725D02*
X12800Y-28700D01*
X12800Y-18450D02*
X12800Y-28725D01*
X12500Y-29975D02*
X12500Y-30700D01*
X12500Y-18175D02*
X12500Y-28850D01*
X12550Y-18125D02*
X12500Y-18175D01*
X12500Y-28850D02*
X12500Y-29975D01*
X15650Y-31950D02*
X16200Y-32500D01*
X13750Y-31950D02*
X15650Y-31950D01*
X12500Y-30700D02*
X13750Y-31950D01*
X16200Y-34850D02*
X16200Y-32500D01*
X12200Y-32500D02*
X12200Y-32500D01*
X11725Y-32025D02*
X12200Y-32500D01*
X11725Y-17550D02*
X11725Y-29125D01*
X12350Y-16925D02*
X11725Y-17550D01*
X12575Y-16925D02*
X12350Y-16925D01*
X11725Y-29125D02*
X11725Y-32025D01*
X12200Y-34850D02*
X12200Y-32500D01*
X11200Y-32500D02*
X11200Y-32500D01*
X11550Y-32150D02*
X11200Y-32500D01*
X11550Y-17450D02*
X11550Y-32150D01*
X12400Y-16600D02*
X11550Y-17450D01*
X12850Y-16600D02*
X12400Y-16600D01*
X12875Y-16625D02*
X12850Y-16600D01*
X11200Y-35700D02*
X11200Y-32500D01*
X10200Y-34850D02*
X10200Y-32500D01*
X10200Y-32500D02*
X10200Y-32500D01*
X11350Y-31350D02*
X10200Y-32500D01*
X11350Y-17325D02*
X11350Y-31350D01*
X12375Y-16300D02*
X11350Y-17325D01*
X12575Y-16300D02*
X12375Y-16300D01*
X11175Y-29650D02*
X11175Y-31000D01*
X12875Y-15975D02*
X12850Y-16000D01*
X12850Y-16000D02*
X12425Y-16000D01*
X12425Y-16000D02*
X11175Y-17250D01*
X11175Y-17250D02*
X11175Y-29650D01*
X09675Y-32500D02*
X09200Y-32500D01*
X11175Y-31000D02*
X09675Y-32500D01*
X09200Y-35700D02*
X09200Y-32500D01*
X23650Y-20800D02*
X23650Y-18125D01*
X14900Y-26825D02*
X19875Y-26825D01*
X19875Y-26825D02*
X23700Y-23000D01*
X23700Y-23000D02*
X23700Y-22875D01*
X14525Y-26450D02*
X14900Y-26825D01*
X12250Y-29975D02*
X12250Y-30750D01*
X14850Y-32150D02*
X15200Y-32500D01*
X13650Y-32150D02*
X14850Y-32150D01*
X12250Y-30750D02*
X13650Y-32150D01*
X12250Y-28800D02*
X12250Y-29975D01*
X12250Y-29975D02*
X12250Y-29988D01*
X12875Y-17825D02*
X12325Y-17825D01*
X12325Y-17825D02*
X12250Y-17900D01*
X12250Y-17900D02*
X12250Y-28800D01*
X15200Y-35700D02*
X15200Y-32500D01*
X12075Y-30375D02*
X12075Y-30875D01*
X12075Y-28875D02*
X12075Y-30050D01*
X12575Y-17525D02*
X12450Y-17525D01*
X12450Y-17525D02*
X12325Y-17525D01*
X12325Y-17525D02*
X12075Y-17775D01*
X12075Y-17775D02*
X12075Y-28875D01*
X12075Y-30050D02*
X12075Y-30375D01*
X13700Y-32500D02*
X14200Y-32500D01*
X12075Y-30875D02*
X13700Y-32500D01*
X14200Y-34850D02*
X14200Y-32500D01*
X11900Y-30150D02*
X11900Y-31200D01*
X11900Y-29050D02*
X11900Y-30150D01*
X11900Y-31200D02*
X13200Y-32500D01*
X11900Y-17650D02*
X11900Y-29050D01*
X11900Y-29050D02*
X11900Y-29075D01*
X12325Y-17225D02*
X11900Y-17650D01*
X12875Y-17225D02*
X12325Y-17225D01*
X13200Y-35700D02*
X13200Y-32500D01*
X08150Y-14700D02*
X11225Y-11625D01*
X11225Y-11625D02*
X11400Y-11625D01*
X19075Y-10650D02*
X18100Y-11625D01*
X18100Y-11625D02*
X11400Y-11625D01*
X21100Y-10650D02*
X20875Y-10650D01*
X21225Y-10775D02*
X21100Y-10650D01*
X21225Y-11450D02*
X21225Y-10775D01*
X19725Y-12950D02*
X21225Y-11450D01*
X19725Y-13200D02*
X19725Y-12950D01*
X20750Y-14225D02*
X19725Y-13200D01*
X20875Y-10650D02*
X19075Y-10650D01*
X34000Y-02250D02*
X34700Y-02250D01*
X07163Y-14663D02*
X07200Y-14700D01*
X07163Y-14663D02*
X07163Y-14162D01*
X07150Y-14175D02*
X07163Y-14162D01*
X07163Y-14162D02*
X10000Y-11325D01*
X07900Y-02300D02*
X08600Y-02300D01*
X22050Y-17750D02*
X22050Y-10700D01*
X21875Y-18300D02*
X22050Y-18125D01*
X22050Y-18125D02*
X22050Y-17750D01*
X08525Y-10300D02*
X08175Y-09950D01*
X21650Y-10300D02*
X08525Y-10300D01*
X22050Y-10700D02*
X21650Y-10300D01*
X21400Y-17925D02*
X21400Y-17900D01*
X16175Y-10475D02*
X16050Y-10600D01*
X21550Y-10475D02*
X16175Y-10475D01*
X21875Y-10800D02*
X21550Y-10475D01*
X21875Y-17425D02*
X21875Y-10800D01*
X21400Y-17900D02*
X21875Y-17425D01*
X26650Y-16625D02*
X26650Y-11625D01*
X27025Y-16175D02*
X28000Y-15200D01*
X28000Y-12625D02*
X30300Y-10325D01*
X28000Y-15200D02*
X28000Y-12625D01*
X27025Y-16175D02*
X27075Y-16125D01*
X30300Y-10325D02*
X33950Y-10325D01*
X22625Y-17400D02*
X22375Y-17150D01*
X22625Y-19575D02*
X22625Y-17400D01*
X22625Y-19750D02*
X22625Y-19575D01*
X04400Y-17850D02*
X04400Y-16800D01*
X08300Y-15900D02*
X05300Y-15900D01*
X05300Y-15900D02*
X04900Y-16300D01*
X04900Y-21150D02*
X04400Y-20650D01*
X04400Y-20650D02*
X04400Y-17850D01*
X04400Y-16800D02*
X04900Y-16300D01*
X12225Y-15300D02*
X11800Y-15300D01*
X14150Y-15300D02*
X12225Y-15300D01*
X20000Y-15275D02*
X19575Y-15700D01*
X19575Y-15700D02*
X19125Y-15700D01*
X19125Y-15700D02*
X18825Y-16000D01*
X17425Y-16025D02*
X17250Y-15850D01*
X17250Y-15850D02*
X14700Y-15850D01*
X14700Y-15850D02*
X14150Y-15300D01*
X11800Y-15300D02*
X11300Y-15800D01*
X03300Y-11850D02*
X02298Y-11850D01*
X02298Y-11850D02*
X02178Y-11730D01*
X03300Y-11850D02*
X03285Y-11835D01*
X02308Y-10411D02*
X01414Y-10411D01*
X01414Y-10411D02*
X01400Y-10425D01*
X02294Y-10425D02*
X02308Y-10411D01*
X14050Y-22500D02*
X14225Y-22500D01*
X15075Y-21650D02*
X15075Y-20625D01*
X14225Y-22500D02*
X15075Y-21650D01*
X14050Y-22000D02*
X14425Y-22000D01*
X14725Y-21700D02*
X14725Y-20100D01*
X14425Y-22000D02*
X14725Y-21700D01*
X04200Y-16770D02*
X04200Y-16750D01*
X04200Y-16770D02*
X04200Y-20900D01*
X04200Y-20900D02*
X04450Y-21150D01*
X12500Y-15500D02*
X12050Y-15500D01*
X14600Y-16025D02*
X14075Y-15500D01*
X16900Y-16025D02*
X14600Y-16025D01*
X17425Y-16550D02*
X16900Y-16025D01*
X19200Y-16175D02*
X18825Y-16550D01*
X19200Y-16050D02*
X19200Y-16175D01*
X19350Y-15900D02*
X19200Y-16050D01*
X19950Y-15900D02*
X19350Y-15900D01*
X20125Y-15725D02*
X19950Y-15900D01*
X14075Y-15500D02*
X12500Y-15500D01*
X08500Y-15600D02*
X05350Y-15600D01*
X08650Y-15750D02*
X08500Y-15600D01*
X08650Y-16200D02*
X08650Y-15750D01*
X12050Y-15500D02*
X11750Y-15800D01*
X04200Y-16750D02*
X05350Y-15600D01*
X14225Y-27050D02*
X14225Y-27000D01*
X15250Y-28075D02*
X14225Y-27050D01*
X19175Y-28075D02*
X15250Y-28075D01*
X25250Y-22000D02*
X19175Y-28075D01*
X26175Y-21075D02*
X25250Y-22000D01*
X26175Y-20925D02*
X26175Y-21075D01*
X26175Y-20675D02*
X26175Y-20925D01*
X25338Y-22237D02*
X26475Y-21100D01*
X26475Y-21100D02*
X26475Y-20350D01*
X25350Y-22225D02*
X25338Y-22237D01*
X25338Y-22237D02*
X19250Y-28325D01*
X19250Y-28325D02*
X14875Y-28325D01*
X14875Y-28325D02*
X14225Y-27675D01*
X14225Y-27675D02*
X14225Y-27500D01*
X11950Y-15050D02*
X11250Y-15050D01*
X10875Y-26150D02*
X10975Y-26050D01*
X10975Y-26050D02*
X10975Y-24900D01*
X10975Y-16025D02*
X10975Y-24900D01*
X14875Y-15050D02*
X11950Y-15050D01*
X17600Y-12325D02*
X14875Y-15050D01*
X10975Y-15325D02*
X10975Y-16025D01*
X11250Y-15050D02*
X10975Y-15325D01*
X14725Y-25825D02*
X15850Y-25825D01*
X14525Y-26025D02*
X14725Y-25825D01*
X16550Y-26525D02*
X19175Y-26525D01*
X15850Y-25825D02*
X16550Y-26525D01*
X27925Y-10000D02*
X27900Y-10000D01*
X21750Y-10000D02*
X17650Y-10000D01*
X22225Y-10475D02*
X21750Y-10000D01*
X27425Y-10475D02*
X22225Y-10475D01*
X27900Y-10000D02*
X27425Y-10475D01*
X27925Y-10000D02*
X35800Y-10000D01*
X09675Y-10925D02*
X06750Y-13850D01*
X06750Y-13850D02*
X06750Y-14700D01*
X09850Y-10000D02*
X17650Y-10000D01*
X09700Y-10000D02*
X09850Y-10000D01*
X20100Y-13075D02*
X20025Y-13075D01*
X21500Y-11675D02*
X20100Y-13075D01*
X14750Y-24825D02*
X15850Y-24825D01*
X14050Y-24125D02*
X14750Y-24825D01*
X14050Y-23000D02*
X14050Y-24125D01*
X17225Y-26200D02*
X17225Y-26225D01*
X15850Y-24825D02*
X17225Y-26200D01*
X14050Y-23000D02*
X14150Y-23000D01*
X18200Y-20975D02*
X18400Y-20775D01*
X15625Y-20975D02*
X18200Y-20975D01*
X15525Y-21075D02*
X15625Y-20975D01*
X15525Y-21625D02*
X15525Y-21075D01*
X14150Y-23000D02*
X15525Y-21625D01*
X03100Y-21150D02*
X02450Y-20500D01*
X02450Y-20500D02*
X02450Y-18100D01*
X02450Y-18100D02*
X01750Y-17400D01*
X03100Y-21150D02*
X03900Y-21150D01*
X03675Y-15475D02*
X03600Y-15475D01*
X03900Y-15700D02*
X03675Y-15475D01*
X03900Y-16000D02*
X03900Y-15700D01*
X03900Y-16550D02*
X03900Y-16000D01*
X03900Y-21150D02*
X03900Y-16550D01*
G54D10*
G36*
X39050Y-06653D02*
X00325Y-06653D01*
X00325Y-02816D01*
X39050Y-02816D01*
X39050Y-06653D01*
X39050Y-06653D01*
G37*
G54D37*
X39050Y-06653D02*
X00325Y-06653D01*
X00325Y-02816D01*
X39050Y-02816D01*
X39050Y-06653D01*
G54D10*
G36*
X39093Y-02450D02*
X35010Y-02450D01*
X35064Y-02323D01*
X35064Y-02178D01*
X35009Y-02044D01*
X34906Y-01942D01*
X34773Y-01886D01*
X34628Y-01886D01*
X34494Y-01941D01*
X34432Y-02003D01*
X34267Y-02003D01*
X34206Y-01942D01*
X34073Y-01886D01*
X33928Y-01886D01*
X33794Y-01941D01*
X33692Y-02044D01*
X33636Y-02177D01*
X33636Y-02322D01*
X33688Y-02450D01*
X27260Y-02450D01*
X27314Y-02323D01*
X27314Y-02178D01*
X27259Y-02044D01*
X27156Y-01942D01*
X27023Y-01886D01*
X26878Y-01886D01*
X26744Y-01941D01*
X26682Y-02003D01*
X26392Y-02003D01*
X26331Y-01942D01*
X26198Y-01886D01*
X26053Y-01886D01*
X25919Y-01941D01*
X25817Y-02044D01*
X25761Y-02177D01*
X25761Y-02322D01*
X25813Y-02450D01*
X16960Y-02450D01*
X17014Y-02323D01*
X17014Y-02178D01*
X16959Y-02044D01*
X16856Y-01942D01*
X16723Y-01886D01*
X16578Y-01886D01*
X16444Y-01941D01*
X16382Y-02003D01*
X16067Y-02003D01*
X16006Y-01942D01*
X15873Y-01886D01*
X15728Y-01886D01*
X15594Y-01941D01*
X15492Y-02044D01*
X15436Y-02177D01*
X15436Y-02322D01*
X15488Y-02450D01*
X08931Y-02450D01*
X08964Y-02373D01*
X08964Y-02228D01*
X08909Y-02094D01*
X08806Y-01992D01*
X08673Y-01936D01*
X08528Y-01936D01*
X08394Y-01991D01*
X08332Y-02053D01*
X08167Y-02053D01*
X08106Y-01992D01*
X07973Y-01936D01*
X07828Y-01936D01*
X07694Y-01991D01*
X07592Y-02094D01*
X07536Y-02227D01*
X07536Y-02372D01*
X07568Y-02450D01*
X00282Y-02450D01*
X00282Y-01357D01*
X00376Y-00923D01*
X00612Y-00584D01*
X00959Y-00361D01*
X01398Y-00281D01*
X01400Y-00282D01*
X03925Y-00282D01*
X03925Y-00283D01*
X03893Y-00359D01*
X03893Y-00441D01*
X03893Y-01041D01*
X03924Y-01117D01*
X03983Y-01175D01*
X04059Y-01207D01*
X04141Y-01207D01*
X04741Y-01207D01*
X04817Y-01176D01*
X04875Y-01117D01*
X04907Y-01041D01*
X04907Y-00959D01*
X04907Y-00831D01*
X04971Y-00986D01*
X05113Y-01129D01*
X05299Y-01206D01*
X05500Y-01206D01*
X05686Y-01129D01*
X05829Y-00987D01*
X05900Y-00814D01*
X05971Y-00986D01*
X06113Y-01129D01*
X06299Y-01206D01*
X06500Y-01206D01*
X06686Y-01129D01*
X06829Y-00987D01*
X06900Y-00814D01*
X06971Y-00986D01*
X07113Y-01129D01*
X07299Y-01206D01*
X07500Y-01206D01*
X07686Y-01129D01*
X07829Y-00987D01*
X07906Y-00801D01*
X07906Y-00600D01*
X07829Y-00414D01*
X07697Y-00282D01*
X11798Y-00282D01*
X11798Y-00283D01*
X11766Y-00359D01*
X11766Y-00441D01*
X11766Y-01041D01*
X11797Y-01117D01*
X11856Y-01175D01*
X11932Y-01207D01*
X12014Y-01207D01*
X12614Y-01207D01*
X12690Y-01176D01*
X12748Y-01117D01*
X12780Y-01041D01*
X12780Y-00959D01*
X12780Y-00831D01*
X12844Y-00986D01*
X12986Y-01129D01*
X13172Y-01206D01*
X13373Y-01206D01*
X13559Y-01129D01*
X13702Y-00987D01*
X13773Y-00814D01*
X13844Y-00986D01*
X13986Y-01129D01*
X14172Y-01206D01*
X14373Y-01206D01*
X14559Y-01129D01*
X14702Y-00987D01*
X14773Y-00814D01*
X14844Y-00986D01*
X14986Y-01129D01*
X15172Y-01206D01*
X15373Y-01206D01*
X15559Y-01129D01*
X15702Y-00987D01*
X15779Y-00801D01*
X15779Y-00600D01*
X15702Y-00414D01*
X15570Y-00282D01*
X22232Y-00282D01*
X22232Y-00283D01*
X22200Y-00359D01*
X22200Y-00441D01*
X22200Y-01041D01*
X22231Y-01117D01*
X22290Y-01175D01*
X22366Y-01207D01*
X22448Y-01207D01*
X23048Y-01207D01*
X23124Y-01176D01*
X23182Y-01117D01*
X23214Y-01041D01*
X23214Y-00959D01*
X23214Y-00831D01*
X23278Y-00986D01*
X23420Y-01129D01*
X23606Y-01206D01*
X23807Y-01206D01*
X23993Y-01129D01*
X24136Y-00987D01*
X24207Y-00814D01*
X24278Y-00986D01*
X24420Y-01129D01*
X24606Y-01206D01*
X24807Y-01206D01*
X24993Y-01129D01*
X25136Y-00987D01*
X25207Y-00814D01*
X25278Y-00986D01*
X25420Y-01129D01*
X25606Y-01206D01*
X25807Y-01206D01*
X25993Y-01129D01*
X26136Y-00987D01*
X26213Y-00801D01*
X26213Y-00600D01*
X26136Y-00414D01*
X26004Y-00282D01*
X30106Y-00282D01*
X30106Y-00283D01*
X30074Y-00359D01*
X30074Y-00441D01*
X30074Y-01041D01*
X30105Y-01117D01*
X30164Y-01175D01*
X30240Y-01207D01*
X30322Y-01207D01*
X30922Y-01207D01*
X30998Y-01176D01*
X31056Y-01117D01*
X31088Y-01041D01*
X31088Y-00959D01*
X31088Y-00831D01*
X31152Y-00986D01*
X31294Y-01129D01*
X31480Y-01206D01*
X31681Y-01206D01*
X31867Y-01129D01*
X32010Y-00987D01*
X32081Y-00814D01*
X32152Y-00986D01*
X32294Y-01129D01*
X32480Y-01206D01*
X32681Y-01206D01*
X32867Y-01129D01*
X33010Y-00987D01*
X33081Y-00814D01*
X33152Y-00986D01*
X33294Y-01129D01*
X33480Y-01206D01*
X33681Y-01206D01*
X33867Y-01129D01*
X34010Y-00987D01*
X34087Y-00801D01*
X34087Y-00600D01*
X34010Y-00414D01*
X33878Y-00282D01*
X38070Y-00282D01*
X38479Y-00371D01*
X38803Y-00596D01*
X39018Y-00931D01*
X39093Y-01351D01*
X39093Y-02450D01*
X39093Y-02450D01*
G37*
G54D37*
X39093Y-02450D02*
X35010Y-02450D01*
X35064Y-02323D01*
X35064Y-02178D01*
X35009Y-02044D01*
X34906Y-01942D01*
X34773Y-01886D01*
X34628Y-01886D01*
X34494Y-01941D01*
X34432Y-02003D01*
X34267Y-02003D01*
X34206Y-01942D01*
X34073Y-01886D01*
X33928Y-01886D01*
X33794Y-01941D01*
X33692Y-02044D01*
X33636Y-02177D01*
X33636Y-02322D01*
X33688Y-02450D01*
X27260Y-02450D01*
X27314Y-02323D01*
X27314Y-02178D01*
X27259Y-02044D01*
X27156Y-01942D01*
X27023Y-01886D01*
X26878Y-01886D01*
X26744Y-01941D01*
X26682Y-02003D01*
X26392Y-02003D01*
X26331Y-01942D01*
X26198Y-01886D01*
X26053Y-01886D01*
X25919Y-01941D01*
X25817Y-02044D01*
X25761Y-02177D01*
X25761Y-02322D01*
X25813Y-02450D01*
X16960Y-02450D01*
X17014Y-02323D01*
X17014Y-02178D01*
X16959Y-02044D01*
X16856Y-01942D01*
X16723Y-01886D01*
X16578Y-01886D01*
X16444Y-01941D01*
X16382Y-02003D01*
X16067Y-02003D01*
X16006Y-01942D01*
X15873Y-01886D01*
X15728Y-01886D01*
X15594Y-01941D01*
X15492Y-02044D01*
X15436Y-02177D01*
X15436Y-02322D01*
X15488Y-02450D01*
X08931Y-02450D01*
X08964Y-02373D01*
X08964Y-02228D01*
X08909Y-02094D01*
X08806Y-01992D01*
X08673Y-01936D01*
X08528Y-01936D01*
X08394Y-01991D01*
X08332Y-02053D01*
X08167Y-02053D01*
X08106Y-01992D01*
X07973Y-01936D01*
X07828Y-01936D01*
X07694Y-01991D01*
X07592Y-02094D01*
X07536Y-02227D01*
X07536Y-02372D01*
X07568Y-02450D01*
X00282Y-02450D01*
X00282Y-01357D01*
X00376Y-00923D01*
X00612Y-00584D01*
X00959Y-00361D01*
X01398Y-00281D01*
X01400Y-00282D01*
X03925Y-00282D01*
X03925Y-00283D01*
X03893Y-00359D01*
X03893Y-00441D01*
X03893Y-01041D01*
X03924Y-01117D01*
X03983Y-01175D01*
X04059Y-01207D01*
X04141Y-01207D01*
X04741Y-01207D01*
X04817Y-01176D01*
X04875Y-01117D01*
X04907Y-01041D01*
X04907Y-00959D01*
X04907Y-00831D01*
X04971Y-00986D01*
X05113Y-01129D01*
X05299Y-01206D01*
X05500Y-01206D01*
X05686Y-01129D01*
X05829Y-00987D01*
X05900Y-00814D01*
X05971Y-00986D01*
X06113Y-01129D01*
X06299Y-01206D01*
X06500Y-01206D01*
X06686Y-01129D01*
X06829Y-00987D01*
X06900Y-00814D01*
X06971Y-00986D01*
X07113Y-01129D01*
X07299Y-01206D01*
X07500Y-01206D01*
X07686Y-01129D01*
X07829Y-00987D01*
X07906Y-00801D01*
X07906Y-00600D01*
X07829Y-00414D01*
X07697Y-00282D01*
X11798Y-00282D01*
X11798Y-00283D01*
X11766Y-00359D01*
X11766Y-00441D01*
X11766Y-01041D01*
X11797Y-01117D01*
X11856Y-01175D01*
X11932Y-01207D01*
X12014Y-01207D01*
X12614Y-01207D01*
X12690Y-01176D01*
X12748Y-01117D01*
X12780Y-01041D01*
X12780Y-00959D01*
X12780Y-00831D01*
X12844Y-00986D01*
X12986Y-01129D01*
X13172Y-01206D01*
X13373Y-01206D01*
X13559Y-01129D01*
X13702Y-00987D01*
X13773Y-00814D01*
X13844Y-00986D01*
X13986Y-01129D01*
X14172Y-01206D01*
X14373Y-01206D01*
X14559Y-01129D01*
X14702Y-00987D01*
X14773Y-00814D01*
X14844Y-00986D01*
X14986Y-01129D01*
X15172Y-01206D01*
X15373Y-01206D01*
X15559Y-01129D01*
X15702Y-00987D01*
X15779Y-00801D01*
X15779Y-00600D01*
X15702Y-00414D01*
X15570Y-00282D01*
X22232Y-00282D01*
X22232Y-00283D01*
X22200Y-00359D01*
X22200Y-00441D01*
X22200Y-01041D01*
X22231Y-01117D01*
X22290Y-01175D01*
X22366Y-01207D01*
X22448Y-01207D01*
X23048Y-01207D01*
X23124Y-01176D01*
X23182Y-01117D01*
X23214Y-01041D01*
X23214Y-00959D01*
X23214Y-00831D01*
X23278Y-00986D01*
X23420Y-01129D01*
X23606Y-01206D01*
X23807Y-01206D01*
X23993Y-01129D01*
X24136Y-00987D01*
X24207Y-00814D01*
X24278Y-00986D01*
X24420Y-01129D01*
X24606Y-01206D01*
X24807Y-01206D01*
X24993Y-01129D01*
X25136Y-00987D01*
X25207Y-00814D01*
X25278Y-00986D01*
X25420Y-01129D01*
X25606Y-01206D01*
X25807Y-01206D01*
X25993Y-01129D01*
X26136Y-00987D01*
X26213Y-00801D01*
X26213Y-00600D01*
X26136Y-00414D01*
X26004Y-00282D01*
X30106Y-00282D01*
X30106Y-00283D01*
X30074Y-00359D01*
X30074Y-00441D01*
X30074Y-01041D01*
X30105Y-01117D01*
X30164Y-01175D01*
X30240Y-01207D01*
X30322Y-01207D01*
X30922Y-01207D01*
X30998Y-01176D01*
X31056Y-01117D01*
X31088Y-01041D01*
X31088Y-00959D01*
X31088Y-00831D01*
X31152Y-00986D01*
X31294Y-01129D01*
X31480Y-01206D01*
X31681Y-01206D01*
X31867Y-01129D01*
X32010Y-00987D01*
X32081Y-00814D01*
X32152Y-00986D01*
X32294Y-01129D01*
X32480Y-01206D01*
X32681Y-01206D01*
X32867Y-01129D01*
X33010Y-00987D01*
X33081Y-00814D01*
X33152Y-00986D01*
X33294Y-01129D01*
X33480Y-01206D01*
X33681Y-01206D01*
X33867Y-01129D01*
X34010Y-00987D01*
X34087Y-00801D01*
X34087Y-00600D01*
X34010Y-00414D01*
X33878Y-00282D01*
X38070Y-00282D01*
X38479Y-00371D01*
X38803Y-00596D01*
X39018Y-00931D01*
X39093Y-01351D01*
X39093Y-02450D01*
G54D10*
G36*
X31675Y-39050D02*
X30137Y-39050D01*
X30137Y-38497D01*
X30137Y-38273D01*
X30136Y-38134D01*
X30136Y-38035D01*
X30098Y-37944D01*
X30028Y-37874D01*
X29936Y-37836D01*
X29906Y-37835D01*
X29906Y-37481D01*
X29906Y-37320D01*
X29844Y-37171D01*
X29731Y-37056D01*
X29581Y-36994D01*
X29420Y-36994D01*
X29271Y-37056D01*
X29254Y-37072D01*
X27571Y-37072D01*
X27556Y-37056D01*
X27406Y-36994D01*
X27245Y-36994D01*
X27096Y-37056D01*
X27079Y-37072D01*
X26978Y-37072D01*
X26978Y-36034D01*
X27031Y-35906D01*
X27031Y-35745D01*
X26969Y-35596D01*
X26856Y-35481D01*
X26706Y-35419D01*
X26545Y-35419D01*
X26396Y-35481D01*
X26281Y-35594D01*
X26279Y-35597D01*
X24725Y-35597D01*
X24599Y-35622D01*
X24493Y-35693D01*
X24242Y-35944D01*
X24220Y-35944D01*
X24071Y-36006D01*
X24054Y-36022D01*
X21696Y-36022D01*
X21681Y-36006D01*
X21531Y-35944D01*
X21370Y-35944D01*
X21221Y-36006D01*
X21106Y-36119D01*
X21044Y-36269D01*
X21044Y-36430D01*
X21106Y-36579D01*
X21219Y-36694D01*
X21369Y-36756D01*
X21530Y-36756D01*
X21679Y-36694D01*
X21695Y-36678D01*
X24053Y-36678D01*
X24069Y-36694D01*
X24219Y-36756D01*
X24380Y-36756D01*
X24529Y-36694D01*
X24644Y-36581D01*
X24706Y-36431D01*
X24706Y-36408D01*
X24861Y-36253D01*
X26322Y-36253D01*
X26322Y-37214D01*
X26040Y-37496D01*
X25969Y-37602D01*
X25944Y-37728D01*
X25944Y-37937D01*
X25807Y-38074D01*
X25772Y-38158D01*
X25737Y-38074D01*
X25583Y-37920D01*
X25381Y-37836D01*
X25163Y-37836D01*
X24961Y-37920D01*
X24807Y-38074D01*
X24769Y-38165D01*
X24744Y-38104D01*
X24650Y-38077D01*
X24580Y-38147D01*
X24580Y-38007D01*
X24553Y-37913D01*
X24351Y-37842D01*
X24138Y-37853D01*
X23991Y-37913D01*
X23964Y-38007D01*
X24272Y-38314D01*
X24580Y-38007D01*
X24580Y-38147D01*
X24343Y-38385D01*
X24650Y-38693D01*
X24744Y-38666D01*
X24767Y-38600D01*
X24807Y-38696D01*
X24961Y-38850D01*
X25163Y-38934D01*
X25381Y-38934D01*
X25583Y-38850D01*
X25737Y-38696D01*
X25772Y-38611D01*
X25807Y-38696D01*
X25961Y-38850D01*
X26163Y-38934D01*
X26381Y-38934D01*
X26583Y-38850D01*
X26737Y-38696D01*
X26821Y-38494D01*
X26821Y-38276D01*
X26737Y-38074D01*
X26600Y-37937D01*
X26600Y-37864D01*
X26736Y-37728D01*
X27078Y-37728D01*
X27094Y-37744D01*
X27244Y-37806D01*
X27405Y-37806D01*
X27554Y-37744D01*
X27570Y-37728D01*
X29253Y-37728D01*
X29269Y-37744D01*
X29419Y-37806D01*
X29580Y-37806D01*
X29729Y-37744D01*
X29844Y-37631D01*
X29906Y-37481D01*
X29906Y-37835D01*
X29699Y-37835D01*
X29637Y-37897D01*
X29637Y-38335D01*
X30075Y-38335D01*
X30137Y-38273D01*
X30137Y-38497D01*
X30075Y-38435D01*
X29637Y-38435D01*
X29637Y-38873D01*
X29699Y-38935D01*
X29936Y-38934D01*
X30028Y-38896D01*
X30098Y-38826D01*
X30136Y-38735D01*
X30136Y-38636D01*
X30137Y-38497D01*
X30137Y-39050D01*
X29537Y-39050D01*
X29537Y-38873D01*
X29537Y-38485D01*
X29537Y-38435D01*
X29537Y-38335D01*
X29537Y-38285D01*
X29537Y-37897D01*
X29475Y-37835D01*
X29238Y-37836D01*
X29146Y-37874D01*
X29076Y-37944D01*
X29038Y-38035D01*
X29038Y-38060D01*
X28898Y-37920D01*
X28696Y-37836D01*
X28478Y-37836D01*
X28276Y-37920D01*
X28122Y-38074D01*
X28038Y-38276D01*
X28038Y-38494D01*
X28122Y-38696D01*
X28276Y-38850D01*
X28478Y-38934D01*
X28696Y-38934D01*
X28898Y-38850D01*
X29038Y-38710D01*
X29038Y-38735D01*
X29076Y-38826D01*
X29146Y-38896D01*
X29238Y-38934D01*
X29475Y-38935D01*
X29537Y-38873D01*
X29537Y-39050D01*
X24580Y-39050D01*
X24580Y-38763D01*
X24272Y-38456D01*
X24201Y-38526D01*
X24201Y-38385D01*
X23894Y-38077D01*
X23800Y-38104D01*
X23776Y-38169D01*
X23737Y-38074D01*
X23583Y-37920D01*
X23381Y-37836D01*
X23163Y-37836D01*
X22961Y-37920D01*
X22807Y-38074D01*
X22772Y-38158D01*
X22737Y-38074D01*
X22583Y-37920D01*
X22381Y-37836D01*
X22163Y-37836D01*
X21961Y-37920D01*
X21821Y-38060D01*
X21821Y-38035D01*
X21783Y-37944D01*
X21713Y-37874D01*
X21621Y-37836D01*
X21384Y-37835D01*
X21322Y-37897D01*
X21322Y-38285D01*
X21322Y-38335D01*
X21322Y-38435D01*
X21322Y-38485D01*
X21322Y-38873D01*
X21384Y-38935D01*
X21621Y-38934D01*
X21713Y-38896D01*
X21783Y-38826D01*
X21821Y-38735D01*
X21821Y-38710D01*
X21961Y-38850D01*
X22163Y-38934D01*
X22381Y-38934D01*
X22583Y-38850D01*
X22737Y-38696D01*
X22772Y-38611D01*
X22807Y-38696D01*
X22961Y-38850D01*
X23163Y-38934D01*
X23381Y-38934D01*
X23583Y-38850D01*
X23737Y-38696D01*
X23774Y-38604D01*
X23800Y-38666D01*
X23894Y-38693D01*
X24201Y-38385D01*
X24201Y-38526D01*
X23964Y-38763D01*
X23991Y-38857D01*
X24193Y-38928D01*
X24406Y-38917D01*
X24553Y-38857D01*
X24580Y-38763D01*
X24580Y-39050D01*
X21222Y-39050D01*
X21222Y-38873D01*
X21222Y-38435D01*
X21222Y-38335D01*
X21222Y-37897D01*
X21160Y-37835D01*
X20923Y-37836D01*
X20831Y-37874D01*
X20761Y-37944D01*
X20723Y-38035D01*
X20723Y-38134D01*
X20722Y-38273D01*
X20784Y-38335D01*
X21222Y-38335D01*
X21222Y-38435D01*
X20784Y-38435D01*
X20722Y-38497D01*
X20723Y-38636D01*
X20723Y-38735D01*
X20761Y-38826D01*
X20831Y-38896D01*
X20923Y-38934D01*
X21160Y-38935D01*
X21222Y-38873D01*
X21222Y-39050D01*
X20250Y-39050D01*
X20250Y-34775D01*
X31675Y-34775D01*
X31675Y-39050D01*
X31675Y-39050D01*
G37*
G54D37*
X31675Y-39050D02*
X30137Y-39050D01*
X30137Y-38497D01*
X30137Y-38273D01*
X30136Y-38134D01*
X30136Y-38035D01*
X30098Y-37944D01*
X30028Y-37874D01*
X29936Y-37836D01*
X29906Y-37835D01*
X29906Y-37481D01*
X29906Y-37320D01*
X29844Y-37171D01*
X29731Y-37056D01*
X29581Y-36994D01*
X29420Y-36994D01*
X29271Y-37056D01*
X29254Y-37072D01*
X27571Y-37072D01*
X27556Y-37056D01*
X27406Y-36994D01*
X27245Y-36994D01*
X27096Y-37056D01*
X27079Y-37072D01*
X26978Y-37072D01*
X26978Y-36034D01*
X27031Y-35906D01*
X27031Y-35745D01*
X26969Y-35596D01*
X26856Y-35481D01*
X26706Y-35419D01*
X26545Y-35419D01*
X26396Y-35481D01*
X26281Y-35594D01*
X26279Y-35597D01*
X24725Y-35597D01*
X24599Y-35622D01*
X24493Y-35693D01*
X24242Y-35944D01*
X24220Y-35944D01*
X24071Y-36006D01*
X24054Y-36022D01*
X21696Y-36022D01*
X21681Y-36006D01*
X21531Y-35944D01*
X21370Y-35944D01*
X21221Y-36006D01*
X21106Y-36119D01*
X21044Y-36269D01*
X21044Y-36430D01*
X21106Y-36579D01*
X21219Y-36694D01*
X21369Y-36756D01*
X21530Y-36756D01*
X21679Y-36694D01*
X21695Y-36678D01*
X24053Y-36678D01*
X24069Y-36694D01*
X24219Y-36756D01*
X24380Y-36756D01*
X24529Y-36694D01*
X24644Y-36581D01*
X24706Y-36431D01*
X24706Y-36408D01*
X24861Y-36253D01*
X26322Y-36253D01*
X26322Y-37214D01*
X26040Y-37496D01*
X25969Y-37602D01*
X25944Y-37728D01*
X25944Y-37937D01*
X25807Y-38074D01*
X25772Y-38158D01*
X25737Y-38074D01*
X25583Y-37920D01*
X25381Y-37836D01*
X25163Y-37836D01*
X24961Y-37920D01*
X24807Y-38074D01*
X24769Y-38165D01*
X24744Y-38104D01*
X24650Y-38077D01*
X24580Y-38147D01*
X24580Y-38007D01*
X24553Y-37913D01*
X24351Y-37842D01*
X24138Y-37853D01*
X23991Y-37913D01*
X23964Y-38007D01*
X24272Y-38314D01*
X24580Y-38007D01*
X24580Y-38147D01*
X24343Y-38385D01*
X24650Y-38693D01*
X24744Y-38666D01*
X24767Y-38600D01*
X24807Y-38696D01*
X24961Y-38850D01*
X25163Y-38934D01*
X25381Y-38934D01*
X25583Y-38850D01*
X25737Y-38696D01*
X25772Y-38611D01*
X25807Y-38696D01*
X25961Y-38850D01*
X26163Y-38934D01*
X26381Y-38934D01*
X26583Y-38850D01*
X26737Y-38696D01*
X26821Y-38494D01*
X26821Y-38276D01*
X26737Y-38074D01*
X26600Y-37937D01*
X26600Y-37864D01*
X26736Y-37728D01*
X27078Y-37728D01*
X27094Y-37744D01*
X27244Y-37806D01*
X27405Y-37806D01*
X27554Y-37744D01*
X27570Y-37728D01*
X29253Y-37728D01*
X29269Y-37744D01*
X29419Y-37806D01*
X29580Y-37806D01*
X29729Y-37744D01*
X29844Y-37631D01*
X29906Y-37481D01*
X29906Y-37835D01*
X29699Y-37835D01*
X29637Y-37897D01*
X29637Y-38335D01*
X30075Y-38335D01*
X30137Y-38273D01*
X30137Y-38497D01*
X30075Y-38435D01*
X29637Y-38435D01*
X29637Y-38873D01*
X29699Y-38935D01*
X29936Y-38934D01*
X30028Y-38896D01*
X30098Y-38826D01*
X30136Y-38735D01*
X30136Y-38636D01*
X30137Y-38497D01*
X30137Y-39050D01*
X29537Y-39050D01*
X29537Y-38873D01*
X29537Y-38485D01*
X29537Y-38435D01*
X29537Y-38335D01*
X29537Y-38285D01*
X29537Y-37897D01*
X29475Y-37835D01*
X29238Y-37836D01*
X29146Y-37874D01*
X29076Y-37944D01*
X29038Y-38035D01*
X29038Y-38060D01*
X28898Y-37920D01*
X28696Y-37836D01*
X28478Y-37836D01*
X28276Y-37920D01*
X28122Y-38074D01*
X28038Y-38276D01*
X28038Y-38494D01*
X28122Y-38696D01*
X28276Y-38850D01*
X28478Y-38934D01*
X28696Y-38934D01*
X28898Y-38850D01*
X29038Y-38710D01*
X29038Y-38735D01*
X29076Y-38826D01*
X29146Y-38896D01*
X29238Y-38934D01*
X29475Y-38935D01*
X29537Y-38873D01*
X29537Y-39050D01*
X24580Y-39050D01*
X24580Y-38763D01*
X24272Y-38456D01*
X24201Y-38526D01*
X24201Y-38385D01*
X23894Y-38077D01*
X23800Y-38104D01*
X23776Y-38169D01*
X23737Y-38074D01*
X23583Y-37920D01*
X23381Y-37836D01*
X23163Y-37836D01*
X22961Y-37920D01*
X22807Y-38074D01*
X22772Y-38158D01*
X22737Y-38074D01*
X22583Y-37920D01*
X22381Y-37836D01*
X22163Y-37836D01*
X21961Y-37920D01*
X21821Y-38060D01*
X21821Y-38035D01*
X21783Y-37944D01*
X21713Y-37874D01*
X21621Y-37836D01*
X21384Y-37835D01*
X21322Y-37897D01*
X21322Y-38285D01*
X21322Y-38335D01*
X21322Y-38435D01*
X21322Y-38485D01*
X21322Y-38873D01*
X21384Y-38935D01*
X21621Y-38934D01*
X21713Y-38896D01*
X21783Y-38826D01*
X21821Y-38735D01*
X21821Y-38710D01*
X21961Y-38850D01*
X22163Y-38934D01*
X22381Y-38934D01*
X22583Y-38850D01*
X22737Y-38696D01*
X22772Y-38611D01*
X22807Y-38696D01*
X22961Y-38850D01*
X23163Y-38934D01*
X23381Y-38934D01*
X23583Y-38850D01*
X23737Y-38696D01*
X23774Y-38604D01*
X23800Y-38666D01*
X23894Y-38693D01*
X24201Y-38385D01*
X24201Y-38526D01*
X23964Y-38763D01*
X23991Y-38857D01*
X24193Y-38928D01*
X24406Y-38917D01*
X24553Y-38857D01*
X24580Y-38763D01*
X24580Y-39050D01*
X21222Y-39050D01*
X21222Y-38873D01*
X21222Y-38435D01*
X21222Y-38335D01*
X21222Y-37897D01*
X21160Y-37835D01*
X20923Y-37836D01*
X20831Y-37874D01*
X20761Y-37944D01*
X20723Y-38035D01*
X20723Y-38134D01*
X20722Y-38273D01*
X20784Y-38335D01*
X21222Y-38335D01*
X21222Y-38435D01*
X20784Y-38435D01*
X20722Y-38497D01*
X20723Y-38636D01*
X20723Y-38735D01*
X20761Y-38826D01*
X20831Y-38896D01*
X20923Y-38934D01*
X21160Y-38935D01*
X21222Y-38873D01*
X21222Y-39050D01*
X20250Y-39050D01*
X20250Y-34775D01*
X31675Y-34775D01*
X31675Y-39050D01*
G54D10*
G36*
X35575Y-09654D02*
X35571Y-09656D01*
X35516Y-09710D01*
X35351Y-09710D01*
X35351Y-09131D01*
X35351Y-08970D01*
X35289Y-08821D01*
X35176Y-08706D01*
X35026Y-08644D01*
X34865Y-08644D01*
X34716Y-08706D01*
X34635Y-08785D01*
X34181Y-08785D01*
X34181Y-08381D01*
X34181Y-08220D01*
X34119Y-08071D01*
X34006Y-07956D01*
X33856Y-07894D01*
X33695Y-07894D01*
X33546Y-07956D01*
X33529Y-07972D01*
X31290Y-07972D01*
X31162Y-07919D01*
X31001Y-07919D01*
X30852Y-07981D01*
X30737Y-08094D01*
X30675Y-08244D01*
X30675Y-08405D01*
X30737Y-08554D01*
X30850Y-08669D01*
X31000Y-08731D01*
X31161Y-08731D01*
X31310Y-08669D01*
X31351Y-08628D01*
X33528Y-08628D01*
X33544Y-08644D01*
X33694Y-08706D01*
X33855Y-08706D01*
X34004Y-08644D01*
X34119Y-08531D01*
X34181Y-08381D01*
X34181Y-08785D01*
X32884Y-08785D01*
X32831Y-08731D01*
X32681Y-08669D01*
X32520Y-08669D01*
X32371Y-08731D01*
X32256Y-08844D01*
X32194Y-08994D01*
X32194Y-09155D01*
X32256Y-09304D01*
X32369Y-09419D01*
X32519Y-09481D01*
X32680Y-09481D01*
X32829Y-09419D01*
X32883Y-09365D01*
X34685Y-09365D01*
X34714Y-09394D01*
X34864Y-09456D01*
X35025Y-09456D01*
X35174Y-09394D01*
X35289Y-09281D01*
X35351Y-09131D01*
X35351Y-09710D01*
X28209Y-09710D01*
X28156Y-09656D01*
X28006Y-09594D01*
X27845Y-09594D01*
X27696Y-09656D01*
X27581Y-09769D01*
X27519Y-09919D01*
X27519Y-09970D01*
X27477Y-10012D01*
X27477Y-09156D01*
X27477Y-08995D01*
X27415Y-08846D01*
X27302Y-08731D01*
X27152Y-08669D01*
X26991Y-08669D01*
X26842Y-08731D01*
X26812Y-08760D01*
X26306Y-08760D01*
X26306Y-08356D01*
X26306Y-08195D01*
X26244Y-08046D01*
X26131Y-07931D01*
X25981Y-07869D01*
X25820Y-07869D01*
X25671Y-07931D01*
X25654Y-07947D01*
X23355Y-07947D01*
X23288Y-07919D01*
X23127Y-07919D01*
X22978Y-07981D01*
X22863Y-08094D01*
X22801Y-08244D01*
X22801Y-08405D01*
X22863Y-08554D01*
X22976Y-08669D01*
X23126Y-08731D01*
X23287Y-08731D01*
X23436Y-08669D01*
X23503Y-08603D01*
X25653Y-08603D01*
X25669Y-08619D01*
X25819Y-08681D01*
X25980Y-08681D01*
X26129Y-08619D01*
X26244Y-08506D01*
X26306Y-08356D01*
X26306Y-08760D01*
X25009Y-08760D01*
X24956Y-08706D01*
X24806Y-08644D01*
X24645Y-08644D01*
X24496Y-08706D01*
X24381Y-08819D01*
X24319Y-08969D01*
X24319Y-09130D01*
X24381Y-09279D01*
X24494Y-09394D01*
X24644Y-09456D01*
X24805Y-09456D01*
X24954Y-09394D01*
X25008Y-09340D01*
X26762Y-09340D01*
X26840Y-09419D01*
X26990Y-09481D01*
X27151Y-09481D01*
X27300Y-09419D01*
X27415Y-09306D01*
X27477Y-09156D01*
X27477Y-10012D01*
X27304Y-10185D01*
X22345Y-10185D01*
X21955Y-09795D01*
X21861Y-09732D01*
X21750Y-09710D01*
X17934Y-09710D01*
X17881Y-09656D01*
X17731Y-09594D01*
X17570Y-09594D01*
X17421Y-09656D01*
X17366Y-09710D01*
X17031Y-09710D01*
X17031Y-09156D01*
X17031Y-08995D01*
X16969Y-08846D01*
X16856Y-08731D01*
X16706Y-08669D01*
X16545Y-08669D01*
X16396Y-08731D01*
X16341Y-08785D01*
X15856Y-08785D01*
X15856Y-08331D01*
X15856Y-08170D01*
X15794Y-08021D01*
X15681Y-07906D01*
X15531Y-07844D01*
X15370Y-07844D01*
X15221Y-07906D01*
X15204Y-07922D01*
X12850Y-07922D01*
X12739Y-07944D01*
X12670Y-07944D01*
X12521Y-08006D01*
X12406Y-08119D01*
X12344Y-08269D01*
X12344Y-08430D01*
X12406Y-08579D01*
X12519Y-08694D01*
X12669Y-08756D01*
X12830Y-08756D01*
X12979Y-08694D01*
X13094Y-08581D01*
X13095Y-08578D01*
X15203Y-08578D01*
X15219Y-08594D01*
X15369Y-08656D01*
X15530Y-08656D01*
X15679Y-08594D01*
X15794Y-08481D01*
X15856Y-08331D01*
X15856Y-08785D01*
X14534Y-08785D01*
X14481Y-08731D01*
X14331Y-08669D01*
X14170Y-08669D01*
X14021Y-08731D01*
X13906Y-08844D01*
X13844Y-08994D01*
X13844Y-09155D01*
X13906Y-09304D01*
X14019Y-09419D01*
X14169Y-09481D01*
X14330Y-09481D01*
X14479Y-09419D01*
X14533Y-09365D01*
X16340Y-09365D01*
X16394Y-09419D01*
X16544Y-09481D01*
X16705Y-09481D01*
X16854Y-09419D01*
X16969Y-09306D01*
X17031Y-09156D01*
X17031Y-09710D01*
X09984Y-09710D01*
X09931Y-09656D01*
X09781Y-09594D01*
X09620Y-09594D01*
X09471Y-09656D01*
X09356Y-09769D01*
X09294Y-09919D01*
X09294Y-10010D01*
X09156Y-10010D01*
X09156Y-09206D01*
X09156Y-09045D01*
X09094Y-08896D01*
X08981Y-08781D01*
X08831Y-08719D01*
X08670Y-08719D01*
X08521Y-08781D01*
X08491Y-08810D01*
X07981Y-08810D01*
X07981Y-08356D01*
X07981Y-08195D01*
X07919Y-08046D01*
X07806Y-07931D01*
X07656Y-07869D01*
X07495Y-07869D01*
X07346Y-07931D01*
X07329Y-07947D01*
X05048Y-07947D01*
X04981Y-07919D01*
X04820Y-07919D01*
X04671Y-07981D01*
X04556Y-08094D01*
X04494Y-08244D01*
X04494Y-08405D01*
X04556Y-08554D01*
X04669Y-08669D01*
X04819Y-08731D01*
X04980Y-08731D01*
X05129Y-08669D01*
X05196Y-08603D01*
X07328Y-08603D01*
X07344Y-08619D01*
X07494Y-08681D01*
X07655Y-08681D01*
X07804Y-08619D01*
X07919Y-08506D01*
X07981Y-08356D01*
X07981Y-08810D01*
X06709Y-08810D01*
X06656Y-08756D01*
X06506Y-08694D01*
X06345Y-08694D01*
X06196Y-08756D01*
X06081Y-08869D01*
X06019Y-09019D01*
X06019Y-09180D01*
X06081Y-09329D01*
X06194Y-09444D01*
X06344Y-09506D01*
X06505Y-09506D01*
X06654Y-09444D01*
X06708Y-09390D01*
X08441Y-09390D01*
X08519Y-09469D01*
X08669Y-09531D01*
X08830Y-09531D01*
X08979Y-09469D01*
X09094Y-09356D01*
X09156Y-09206D01*
X09156Y-10010D01*
X08645Y-10010D01*
X08581Y-09946D01*
X08581Y-09870D01*
X08519Y-09721D01*
X08406Y-09606D01*
X08256Y-09544D01*
X08095Y-09544D01*
X07946Y-09606D01*
X07831Y-09719D01*
X07769Y-09869D01*
X07769Y-10030D01*
X07831Y-10179D01*
X07925Y-10275D01*
X06651Y-10275D01*
X06651Y-10047D01*
X06613Y-09955D01*
X06543Y-09885D01*
X06452Y-09847D01*
X06353Y-09847D01*
X05803Y-09847D01*
X05711Y-09885D01*
X05641Y-09955D01*
X05603Y-10046D01*
X05603Y-10145D01*
X05603Y-10275D01*
X03785Y-10275D01*
X02850Y-09340D01*
X02850Y-07506D01*
X02930Y-07506D01*
X03079Y-07444D01*
X03095Y-07428D01*
X05103Y-07428D01*
X05119Y-07444D01*
X05269Y-07506D01*
X05430Y-07506D01*
X05579Y-07444D01*
X05694Y-07331D01*
X05756Y-07181D01*
X05756Y-07075D01*
X06832Y-07075D01*
X06794Y-07169D01*
X06794Y-07330D01*
X06856Y-07479D01*
X06969Y-07594D01*
X07119Y-07656D01*
X07280Y-07656D01*
X07429Y-07594D01*
X07445Y-07578D01*
X09753Y-07578D01*
X09769Y-07594D01*
X09919Y-07656D01*
X10080Y-07656D01*
X10229Y-07594D01*
X10344Y-07481D01*
X10406Y-07331D01*
X10406Y-07329D01*
X10519Y-07444D01*
X10669Y-07506D01*
X10830Y-07506D01*
X10979Y-07444D01*
X10995Y-07428D01*
X13003Y-07428D01*
X13019Y-07444D01*
X13169Y-07506D01*
X13330Y-07506D01*
X13479Y-07444D01*
X13594Y-07331D01*
X13656Y-07181D01*
X13656Y-07075D01*
X14682Y-07075D01*
X14644Y-07169D01*
X14644Y-07330D01*
X14706Y-07479D01*
X14819Y-07594D01*
X14969Y-07656D01*
X15130Y-07656D01*
X15279Y-07594D01*
X15295Y-07578D01*
X18003Y-07578D01*
X18019Y-07594D01*
X18169Y-07656D01*
X18330Y-07656D01*
X18479Y-07594D01*
X18594Y-07481D01*
X18651Y-07343D01*
X18651Y-07649D01*
X18689Y-07741D01*
X18759Y-07811D01*
X18850Y-07849D01*
X18949Y-07849D01*
X19549Y-07849D01*
X19641Y-07811D01*
X19711Y-07741D01*
X19749Y-07650D01*
X19749Y-07625D01*
X19889Y-07765D01*
X20091Y-07849D01*
X20309Y-07849D01*
X20511Y-07765D01*
X20665Y-07611D01*
X20749Y-07409D01*
X20749Y-07312D01*
X20756Y-07329D01*
X20869Y-07444D01*
X21019Y-07506D01*
X21180Y-07506D01*
X21329Y-07444D01*
X21345Y-07428D01*
X23453Y-07428D01*
X23469Y-07444D01*
X23619Y-07506D01*
X23780Y-07506D01*
X23929Y-07444D01*
X24044Y-07331D01*
X24106Y-07181D01*
X24106Y-07075D01*
X25132Y-07075D01*
X25094Y-07169D01*
X25094Y-07330D01*
X25156Y-07479D01*
X25269Y-07594D01*
X25419Y-07656D01*
X25580Y-07656D01*
X25729Y-07594D01*
X25745Y-07578D01*
X28403Y-07578D01*
X28419Y-07594D01*
X28569Y-07656D01*
X28730Y-07656D01*
X28879Y-07594D01*
X28994Y-07481D01*
X28999Y-07467D01*
X29094Y-07506D01*
X29255Y-07506D01*
X29404Y-07444D01*
X29420Y-07428D01*
X31353Y-07428D01*
X31369Y-07444D01*
X31519Y-07506D01*
X31680Y-07506D01*
X31829Y-07444D01*
X31944Y-07331D01*
X32006Y-07181D01*
X32006Y-07075D01*
X32982Y-07075D01*
X32944Y-07169D01*
X32944Y-07330D01*
X33006Y-07479D01*
X33119Y-07594D01*
X33269Y-07656D01*
X33430Y-07656D01*
X33579Y-07594D01*
X33595Y-07578D01*
X35575Y-07578D01*
X35575Y-09654D01*
X35575Y-09654D01*
G37*
G54D37*
X35575Y-09654D02*
X35571Y-09656D01*
X35516Y-09710D01*
X35351Y-09710D01*
X35351Y-09131D01*
X35351Y-08970D01*
X35289Y-08821D01*
X35176Y-08706D01*
X35026Y-08644D01*
X34865Y-08644D01*
X34716Y-08706D01*
X34635Y-08785D01*
X34181Y-08785D01*
X34181Y-08381D01*
X34181Y-08220D01*
X34119Y-08071D01*
X34006Y-07956D01*
X33856Y-07894D01*
X33695Y-07894D01*
X33546Y-07956D01*
X33529Y-07972D01*
X31290Y-07972D01*
X31162Y-07919D01*
X31001Y-07919D01*
X30852Y-07981D01*
X30737Y-08094D01*
X30675Y-08244D01*
X30675Y-08405D01*
X30737Y-08554D01*
X30850Y-08669D01*
X31000Y-08731D01*
X31161Y-08731D01*
X31310Y-08669D01*
X31351Y-08628D01*
X33528Y-08628D01*
X33544Y-08644D01*
X33694Y-08706D01*
X33855Y-08706D01*
X34004Y-08644D01*
X34119Y-08531D01*
X34181Y-08381D01*
X34181Y-08785D01*
X32884Y-08785D01*
X32831Y-08731D01*
X32681Y-08669D01*
X32520Y-08669D01*
X32371Y-08731D01*
X32256Y-08844D01*
X32194Y-08994D01*
X32194Y-09155D01*
X32256Y-09304D01*
X32369Y-09419D01*
X32519Y-09481D01*
X32680Y-09481D01*
X32829Y-09419D01*
X32883Y-09365D01*
X34685Y-09365D01*
X34714Y-09394D01*
X34864Y-09456D01*
X35025Y-09456D01*
X35174Y-09394D01*
X35289Y-09281D01*
X35351Y-09131D01*
X35351Y-09710D01*
X28209Y-09710D01*
X28156Y-09656D01*
X28006Y-09594D01*
X27845Y-09594D01*
X27696Y-09656D01*
X27581Y-09769D01*
X27519Y-09919D01*
X27519Y-09970D01*
X27477Y-10012D01*
X27477Y-09156D01*
X27477Y-08995D01*
X27415Y-08846D01*
X27302Y-08731D01*
X27152Y-08669D01*
X26991Y-08669D01*
X26842Y-08731D01*
X26812Y-08760D01*
X26306Y-08760D01*
X26306Y-08356D01*
X26306Y-08195D01*
X26244Y-08046D01*
X26131Y-07931D01*
X25981Y-07869D01*
X25820Y-07869D01*
X25671Y-07931D01*
X25654Y-07947D01*
X23355Y-07947D01*
X23288Y-07919D01*
X23127Y-07919D01*
X22978Y-07981D01*
X22863Y-08094D01*
X22801Y-08244D01*
X22801Y-08405D01*
X22863Y-08554D01*
X22976Y-08669D01*
X23126Y-08731D01*
X23287Y-08731D01*
X23436Y-08669D01*
X23503Y-08603D01*
X25653Y-08603D01*
X25669Y-08619D01*
X25819Y-08681D01*
X25980Y-08681D01*
X26129Y-08619D01*
X26244Y-08506D01*
X26306Y-08356D01*
X26306Y-08760D01*
X25009Y-08760D01*
X24956Y-08706D01*
X24806Y-08644D01*
X24645Y-08644D01*
X24496Y-08706D01*
X24381Y-08819D01*
X24319Y-08969D01*
X24319Y-09130D01*
X24381Y-09279D01*
X24494Y-09394D01*
X24644Y-09456D01*
X24805Y-09456D01*
X24954Y-09394D01*
X25008Y-09340D01*
X26762Y-09340D01*
X26840Y-09419D01*
X26990Y-09481D01*
X27151Y-09481D01*
X27300Y-09419D01*
X27415Y-09306D01*
X27477Y-09156D01*
X27477Y-10012D01*
X27304Y-10185D01*
X22345Y-10185D01*
X21955Y-09795D01*
X21861Y-09732D01*
X21750Y-09710D01*
X17934Y-09710D01*
X17881Y-09656D01*
X17731Y-09594D01*
X17570Y-09594D01*
X17421Y-09656D01*
X17366Y-09710D01*
X17031Y-09710D01*
X17031Y-09156D01*
X17031Y-08995D01*
X16969Y-08846D01*
X16856Y-08731D01*
X16706Y-08669D01*
X16545Y-08669D01*
X16396Y-08731D01*
X16341Y-08785D01*
X15856Y-08785D01*
X15856Y-08331D01*
X15856Y-08170D01*
X15794Y-08021D01*
X15681Y-07906D01*
X15531Y-07844D01*
X15370Y-07844D01*
X15221Y-07906D01*
X15204Y-07922D01*
X12850Y-07922D01*
X12739Y-07944D01*
X12670Y-07944D01*
X12521Y-08006D01*
X12406Y-08119D01*
X12344Y-08269D01*
X12344Y-08430D01*
X12406Y-08579D01*
X12519Y-08694D01*
X12669Y-08756D01*
X12830Y-08756D01*
X12979Y-08694D01*
X13094Y-08581D01*
X13095Y-08578D01*
X15203Y-08578D01*
X15219Y-08594D01*
X15369Y-08656D01*
X15530Y-08656D01*
X15679Y-08594D01*
X15794Y-08481D01*
X15856Y-08331D01*
X15856Y-08785D01*
X14534Y-08785D01*
X14481Y-08731D01*
X14331Y-08669D01*
X14170Y-08669D01*
X14021Y-08731D01*
X13906Y-08844D01*
X13844Y-08994D01*
X13844Y-09155D01*
X13906Y-09304D01*
X14019Y-09419D01*
X14169Y-09481D01*
X14330Y-09481D01*
X14479Y-09419D01*
X14533Y-09365D01*
X16340Y-09365D01*
X16394Y-09419D01*
X16544Y-09481D01*
X16705Y-09481D01*
X16854Y-09419D01*
X16969Y-09306D01*
X17031Y-09156D01*
X17031Y-09710D01*
X09984Y-09710D01*
X09931Y-09656D01*
X09781Y-09594D01*
X09620Y-09594D01*
X09471Y-09656D01*
X09356Y-09769D01*
X09294Y-09919D01*
X09294Y-10010D01*
X09156Y-10010D01*
X09156Y-09206D01*
X09156Y-09045D01*
X09094Y-08896D01*
X08981Y-08781D01*
X08831Y-08719D01*
X08670Y-08719D01*
X08521Y-08781D01*
X08491Y-08810D01*
X07981Y-08810D01*
X07981Y-08356D01*
X07981Y-08195D01*
X07919Y-08046D01*
X07806Y-07931D01*
X07656Y-07869D01*
X07495Y-07869D01*
X07346Y-07931D01*
X07329Y-07947D01*
X05048Y-07947D01*
X04981Y-07919D01*
X04820Y-07919D01*
X04671Y-07981D01*
X04556Y-08094D01*
X04494Y-08244D01*
X04494Y-08405D01*
X04556Y-08554D01*
X04669Y-08669D01*
X04819Y-08731D01*
X04980Y-08731D01*
X05129Y-08669D01*
X05196Y-08603D01*
X07328Y-08603D01*
X07344Y-08619D01*
X07494Y-08681D01*
X07655Y-08681D01*
X07804Y-08619D01*
X07919Y-08506D01*
X07981Y-08356D01*
X07981Y-08810D01*
X06709Y-08810D01*
X06656Y-08756D01*
X06506Y-08694D01*
X06345Y-08694D01*
X06196Y-08756D01*
X06081Y-08869D01*
X06019Y-09019D01*
X06019Y-09180D01*
X06081Y-09329D01*
X06194Y-09444D01*
X06344Y-09506D01*
X06505Y-09506D01*
X06654Y-09444D01*
X06708Y-09390D01*
X08441Y-09390D01*
X08519Y-09469D01*
X08669Y-09531D01*
X08830Y-09531D01*
X08979Y-09469D01*
X09094Y-09356D01*
X09156Y-09206D01*
X09156Y-10010D01*
X08645Y-10010D01*
X08581Y-09946D01*
X08581Y-09870D01*
X08519Y-09721D01*
X08406Y-09606D01*
X08256Y-09544D01*
X08095Y-09544D01*
X07946Y-09606D01*
X07831Y-09719D01*
X07769Y-09869D01*
X07769Y-10030D01*
X07831Y-10179D01*
X07925Y-10275D01*
X06651Y-10275D01*
X06651Y-10047D01*
X06613Y-09955D01*
X06543Y-09885D01*
X06452Y-09847D01*
X06353Y-09847D01*
X05803Y-09847D01*
X05711Y-09885D01*
X05641Y-09955D01*
X05603Y-10046D01*
X05603Y-10145D01*
X05603Y-10275D01*
X03785Y-10275D01*
X02850Y-09340D01*
X02850Y-07506D01*
X02930Y-07506D01*
X03079Y-07444D01*
X03095Y-07428D01*
X05103Y-07428D01*
X05119Y-07444D01*
X05269Y-07506D01*
X05430Y-07506D01*
X05579Y-07444D01*
X05694Y-07331D01*
X05756Y-07181D01*
X05756Y-07075D01*
X06832Y-07075D01*
X06794Y-07169D01*
X06794Y-07330D01*
X06856Y-07479D01*
X06969Y-07594D01*
X07119Y-07656D01*
X07280Y-07656D01*
X07429Y-07594D01*
X07445Y-07578D01*
X09753Y-07578D01*
X09769Y-07594D01*
X09919Y-07656D01*
X10080Y-07656D01*
X10229Y-07594D01*
X10344Y-07481D01*
X10406Y-07331D01*
X10406Y-07329D01*
X10519Y-07444D01*
X10669Y-07506D01*
X10830Y-07506D01*
X10979Y-07444D01*
X10995Y-07428D01*
X13003Y-07428D01*
X13019Y-07444D01*
X13169Y-07506D01*
X13330Y-07506D01*
X13479Y-07444D01*
X13594Y-07331D01*
X13656Y-07181D01*
X13656Y-07075D01*
X14682Y-07075D01*
X14644Y-07169D01*
X14644Y-07330D01*
X14706Y-07479D01*
X14819Y-07594D01*
X14969Y-07656D01*
X15130Y-07656D01*
X15279Y-07594D01*
X15295Y-07578D01*
X18003Y-07578D01*
X18019Y-07594D01*
X18169Y-07656D01*
X18330Y-07656D01*
X18479Y-07594D01*
X18594Y-07481D01*
X18651Y-07343D01*
X18651Y-07649D01*
X18689Y-07741D01*
X18759Y-07811D01*
X18850Y-07849D01*
X18949Y-07849D01*
X19549Y-07849D01*
X19641Y-07811D01*
X19711Y-07741D01*
X19749Y-07650D01*
X19749Y-07625D01*
X19889Y-07765D01*
X20091Y-07849D01*
X20309Y-07849D01*
X20511Y-07765D01*
X20665Y-07611D01*
X20749Y-07409D01*
X20749Y-07312D01*
X20756Y-07329D01*
X20869Y-07444D01*
X21019Y-07506D01*
X21180Y-07506D01*
X21329Y-07444D01*
X21345Y-07428D01*
X23453Y-07428D01*
X23469Y-07444D01*
X23619Y-07506D01*
X23780Y-07506D01*
X23929Y-07444D01*
X24044Y-07331D01*
X24106Y-07181D01*
X24106Y-07075D01*
X25132Y-07075D01*
X25094Y-07169D01*
X25094Y-07330D01*
X25156Y-07479D01*
X25269Y-07594D01*
X25419Y-07656D01*
X25580Y-07656D01*
X25729Y-07594D01*
X25745Y-07578D01*
X28403Y-07578D01*
X28419Y-07594D01*
X28569Y-07656D01*
X28730Y-07656D01*
X28879Y-07594D01*
X28994Y-07481D01*
X28999Y-07467D01*
X29094Y-07506D01*
X29255Y-07506D01*
X29404Y-07444D01*
X29420Y-07428D01*
X31353Y-07428D01*
X31369Y-07444D01*
X31519Y-07506D01*
X31680Y-07506D01*
X31829Y-07444D01*
X31944Y-07331D01*
X32006Y-07181D01*
X32006Y-07075D01*
X32982Y-07075D01*
X32944Y-07169D01*
X32944Y-07330D01*
X33006Y-07479D01*
X33119Y-07594D01*
X33269Y-07656D01*
X33430Y-07656D01*
X33579Y-07594D01*
X33595Y-07578D01*
X35575Y-07578D01*
X35575Y-09654D01*
G54D10*
G36*
X15575Y-15225D02*
X15475Y-15225D01*
X15475Y-15125D01*
X15575Y-15125D01*
X15575Y-15225D01*
X15575Y-15225D01*
G37*
G54D37*
X15575Y-15225D02*
X15475Y-15225D01*
X15475Y-15125D01*
X15575Y-15125D01*
X15575Y-15225D01*
G54D10*
G36*
X17898Y-17292D02*
X16870Y-18320D01*
X16807Y-18414D01*
X16785Y-18525D01*
X16785Y-18754D01*
X16395Y-19145D01*
X16370Y-19181D01*
X16256Y-19294D01*
X16194Y-19444D01*
X16194Y-19605D01*
X16254Y-19750D01*
X16175Y-19750D01*
X16175Y-19187D01*
X16113Y-19125D01*
X15750Y-19125D01*
X15750Y-19388D01*
X15812Y-19450D01*
X15876Y-19449D01*
X15975Y-19449D01*
X16066Y-19411D01*
X16136Y-19341D01*
X16174Y-19249D01*
X16175Y-19187D01*
X16175Y-19750D01*
X15650Y-19750D01*
X15650Y-19388D01*
X15650Y-19125D01*
X15287Y-19125D01*
X15225Y-19187D01*
X15226Y-19249D01*
X15264Y-19341D01*
X15334Y-19411D01*
X15425Y-19449D01*
X15524Y-19449D01*
X15588Y-19450D01*
X15650Y-19388D01*
X15650Y-19750D01*
X15000Y-19750D01*
X15000Y-18803D01*
X15103Y-18803D01*
X15119Y-18819D01*
X15239Y-18868D01*
X15226Y-18901D01*
X15225Y-18963D01*
X15287Y-19025D01*
X15600Y-19025D01*
X15650Y-19025D01*
X15750Y-19025D01*
X15800Y-19025D01*
X16113Y-19025D01*
X16175Y-18963D01*
X16174Y-18901D01*
X16136Y-18809D01*
X16102Y-18775D01*
X16136Y-18741D01*
X16174Y-18650D01*
X16174Y-18551D01*
X16174Y-18301D01*
X16136Y-18209D01*
X16066Y-18139D01*
X15975Y-18101D01*
X15876Y-18101D01*
X15508Y-18101D01*
X15431Y-18069D01*
X15270Y-18069D01*
X15121Y-18131D01*
X15104Y-18147D01*
X15000Y-18147D01*
X15000Y-16315D01*
X16780Y-16315D01*
X17019Y-16554D01*
X17019Y-16630D01*
X17081Y-16779D01*
X17194Y-16894D01*
X17344Y-16956D01*
X17505Y-16956D01*
X17654Y-16894D01*
X17769Y-16781D01*
X17831Y-16631D01*
X17831Y-16470D01*
X17769Y-16321D01*
X17736Y-16287D01*
X17769Y-16256D01*
X17831Y-16106D01*
X17831Y-15945D01*
X17769Y-15796D01*
X17656Y-15681D01*
X17506Y-15619D01*
X17416Y-15619D01*
X17361Y-15582D01*
X17250Y-15560D01*
X16531Y-15560D01*
X16531Y-15445D01*
X16499Y-15368D01*
X16499Y-15351D01*
X16499Y-14983D01*
X16531Y-14906D01*
X16531Y-14745D01*
X16469Y-14596D01*
X16356Y-14481D01*
X16206Y-14419D01*
X16045Y-14419D01*
X15896Y-14481D01*
X15781Y-14594D01*
X15731Y-14714D01*
X15699Y-14701D01*
X15637Y-14700D01*
X15625Y-14712D01*
X15625Y-14710D01*
X16035Y-14300D01*
X17898Y-14300D01*
X17898Y-17292D01*
X17898Y-17292D01*
G37*
G54D37*
X17898Y-17292D02*
X16870Y-18320D01*
X16807Y-18414D01*
X16785Y-18525D01*
X16785Y-18754D01*
X16395Y-19145D01*
X16370Y-19181D01*
X16256Y-19294D01*
X16194Y-19444D01*
X16194Y-19605D01*
X16254Y-19750D01*
X16175Y-19750D01*
X16175Y-19187D01*
X16113Y-19125D01*
X15750Y-19125D01*
X15750Y-19388D01*
X15812Y-19450D01*
X15876Y-19449D01*
X15975Y-19449D01*
X16066Y-19411D01*
X16136Y-19341D01*
X16174Y-19249D01*
X16175Y-19187D01*
X16175Y-19750D01*
X15650Y-19750D01*
X15650Y-19388D01*
X15650Y-19125D01*
X15287Y-19125D01*
X15225Y-19187D01*
X15226Y-19249D01*
X15264Y-19341D01*
X15334Y-19411D01*
X15425Y-19449D01*
X15524Y-19449D01*
X15588Y-19450D01*
X15650Y-19388D01*
X15650Y-19750D01*
X15000Y-19750D01*
X15000Y-18803D01*
X15103Y-18803D01*
X15119Y-18819D01*
X15239Y-18868D01*
X15226Y-18901D01*
X15225Y-18963D01*
X15287Y-19025D01*
X15600Y-19025D01*
X15650Y-19025D01*
X15750Y-19025D01*
X15800Y-19025D01*
X16113Y-19025D01*
X16175Y-18963D01*
X16174Y-18901D01*
X16136Y-18809D01*
X16102Y-18775D01*
X16136Y-18741D01*
X16174Y-18650D01*
X16174Y-18551D01*
X16174Y-18301D01*
X16136Y-18209D01*
X16066Y-18139D01*
X15975Y-18101D01*
X15876Y-18101D01*
X15508Y-18101D01*
X15431Y-18069D01*
X15270Y-18069D01*
X15121Y-18131D01*
X15104Y-18147D01*
X15000Y-18147D01*
X15000Y-16315D01*
X16780Y-16315D01*
X17019Y-16554D01*
X17019Y-16630D01*
X17081Y-16779D01*
X17194Y-16894D01*
X17344Y-16956D01*
X17505Y-16956D01*
X17654Y-16894D01*
X17769Y-16781D01*
X17831Y-16631D01*
X17831Y-16470D01*
X17769Y-16321D01*
X17736Y-16287D01*
X17769Y-16256D01*
X17831Y-16106D01*
X17831Y-15945D01*
X17769Y-15796D01*
X17656Y-15681D01*
X17506Y-15619D01*
X17416Y-15619D01*
X17361Y-15582D01*
X17250Y-15560D01*
X16531Y-15560D01*
X16531Y-15445D01*
X16499Y-15368D01*
X16499Y-15351D01*
X16499Y-14983D01*
X16531Y-14906D01*
X16531Y-14745D01*
X16469Y-14596D01*
X16356Y-14481D01*
X16206Y-14419D01*
X16045Y-14419D01*
X15896Y-14481D01*
X15781Y-14594D01*
X15731Y-14714D01*
X15699Y-14701D01*
X15637Y-14700D01*
X15625Y-14712D01*
X15625Y-14710D01*
X16035Y-14300D01*
X17898Y-14300D01*
X17898Y-17292D01*
G54D10*
G36*
X20425Y-15451D02*
X20383Y-15409D01*
X20406Y-15356D01*
X20406Y-15195D01*
X20344Y-15046D01*
X20231Y-14931D01*
X20081Y-14869D01*
X19931Y-14869D01*
X19931Y-14720D01*
X19869Y-14571D01*
X19756Y-14456D01*
X19606Y-14394D01*
X19445Y-14394D01*
X19296Y-14456D01*
X19181Y-14569D01*
X19127Y-14698D01*
X19074Y-14676D01*
X19012Y-14675D01*
X18950Y-14737D01*
X18950Y-15050D01*
X18950Y-15100D01*
X18950Y-15200D01*
X18850Y-15200D01*
X18850Y-15100D01*
X18850Y-15050D01*
X18850Y-14737D01*
X18815Y-14702D01*
X18815Y-14300D01*
X20344Y-14300D01*
X20344Y-14305D01*
X20406Y-14454D01*
X20425Y-14473D01*
X20425Y-15451D01*
X20425Y-15451D01*
G37*
G54D37*
X20425Y-15451D02*
X20383Y-15409D01*
X20406Y-15356D01*
X20406Y-15195D01*
X20344Y-15046D01*
X20231Y-14931D01*
X20081Y-14869D01*
X19931Y-14869D01*
X19931Y-14720D01*
X19869Y-14571D01*
X19756Y-14456D01*
X19606Y-14394D01*
X19445Y-14394D01*
X19296Y-14456D01*
X19181Y-14569D01*
X19127Y-14698D01*
X19074Y-14676D01*
X19012Y-14675D01*
X18950Y-14737D01*
X18950Y-15050D01*
X18950Y-15100D01*
X18950Y-15200D01*
X18850Y-15200D01*
X18850Y-15100D01*
X18850Y-15050D01*
X18850Y-14737D01*
X18815Y-14702D01*
X18815Y-14300D01*
X20344Y-14300D01*
X20344Y-14305D01*
X20406Y-14454D01*
X20425Y-14473D01*
X20425Y-15451D01*
G54D10*
G36*
X20425Y-18801D02*
X20356Y-18731D01*
X20235Y-18681D01*
X20249Y-18649D01*
X20250Y-18587D01*
X20250Y-18363D01*
X20250Y-16987D01*
X20188Y-16925D01*
X19825Y-16925D01*
X19825Y-17188D01*
X19887Y-17250D01*
X19951Y-17249D01*
X20050Y-17249D01*
X20141Y-17211D01*
X20211Y-17141D01*
X20249Y-17049D01*
X20250Y-16987D01*
X20250Y-18363D01*
X20249Y-18301D01*
X20211Y-18209D01*
X20141Y-18139D01*
X20050Y-18101D01*
X19951Y-18101D01*
X19887Y-18100D01*
X19825Y-18162D01*
X19825Y-18425D01*
X20188Y-18425D01*
X20250Y-18363D01*
X20250Y-18587D01*
X20188Y-18525D01*
X19875Y-18525D01*
X19825Y-18525D01*
X19725Y-18525D01*
X19725Y-18425D01*
X19725Y-18162D01*
X19725Y-17188D01*
X19725Y-16925D01*
X19362Y-16925D01*
X19300Y-16987D01*
X19301Y-17049D01*
X19339Y-17141D01*
X19409Y-17211D01*
X19500Y-17249D01*
X19599Y-17249D01*
X19663Y-17250D01*
X19725Y-17188D01*
X19725Y-18162D01*
X19663Y-18100D01*
X19599Y-18101D01*
X19500Y-18101D01*
X19409Y-18139D01*
X19339Y-18209D01*
X19325Y-18242D01*
X19311Y-18209D01*
X19241Y-18139D01*
X19150Y-18101D01*
X19051Y-18101D01*
X18987Y-18100D01*
X18925Y-18162D01*
X18925Y-18425D01*
X19288Y-18425D01*
X19325Y-18388D01*
X19362Y-18425D01*
X19725Y-18425D01*
X19725Y-18525D01*
X19675Y-18525D01*
X19362Y-18525D01*
X19325Y-18562D01*
X19288Y-18525D01*
X18975Y-18525D01*
X18925Y-18525D01*
X18825Y-18525D01*
X18825Y-18425D01*
X18825Y-18162D01*
X18763Y-18100D01*
X18699Y-18101D01*
X18600Y-18101D01*
X18509Y-18139D01*
X18439Y-18209D01*
X18401Y-18301D01*
X18400Y-18363D01*
X18462Y-18425D01*
X18825Y-18425D01*
X18825Y-18525D01*
X18775Y-18525D01*
X18462Y-18525D01*
X18400Y-18587D01*
X18401Y-18649D01*
X18439Y-18741D01*
X18473Y-18775D01*
X18439Y-18809D01*
X18401Y-18900D01*
X18401Y-18999D01*
X18401Y-19249D01*
X18439Y-19341D01*
X18509Y-19411D01*
X18512Y-19412D01*
X18469Y-19517D01*
X18419Y-19396D01*
X18306Y-19281D01*
X18224Y-19247D01*
X18224Y-19026D01*
X18186Y-18934D01*
X18140Y-18888D01*
X18140Y-18345D01*
X18730Y-17755D01*
X18793Y-17661D01*
X18814Y-17550D01*
X18815Y-17550D01*
X18815Y-16956D01*
X18905Y-16956D01*
X19054Y-16894D01*
X19169Y-16781D01*
X19231Y-16631D01*
X19231Y-16554D01*
X19311Y-16473D01*
X19339Y-16541D01*
X19373Y-16575D01*
X19339Y-16609D01*
X19301Y-16701D01*
X19300Y-16763D01*
X19362Y-16825D01*
X19675Y-16825D01*
X19725Y-16825D01*
X19825Y-16825D01*
X19875Y-16825D01*
X20188Y-16825D01*
X20250Y-16763D01*
X20249Y-16701D01*
X20230Y-16656D01*
X20230Y-16655D01*
X20379Y-16594D01*
X20425Y-16548D01*
X20425Y-18801D01*
X20425Y-18801D01*
G37*
G54D37*
X20425Y-18801D02*
X20356Y-18731D01*
X20235Y-18681D01*
X20249Y-18649D01*
X20250Y-18587D01*
X20250Y-18363D01*
X20250Y-16987D01*
X20188Y-16925D01*
X19825Y-16925D01*
X19825Y-17188D01*
X19887Y-17250D01*
X19951Y-17249D01*
X20050Y-17249D01*
X20141Y-17211D01*
X20211Y-17141D01*
X20249Y-17049D01*
X20250Y-16987D01*
X20250Y-18363D01*
X20249Y-18301D01*
X20211Y-18209D01*
X20141Y-18139D01*
X20050Y-18101D01*
X19951Y-18101D01*
X19887Y-18100D01*
X19825Y-18162D01*
X19825Y-18425D01*
X20188Y-18425D01*
X20250Y-18363D01*
X20250Y-18587D01*
X20188Y-18525D01*
X19875Y-18525D01*
X19825Y-18525D01*
X19725Y-18525D01*
X19725Y-18425D01*
X19725Y-18162D01*
X19725Y-17188D01*
X19725Y-16925D01*
X19362Y-16925D01*
X19300Y-16987D01*
X19301Y-17049D01*
X19339Y-17141D01*
X19409Y-17211D01*
X19500Y-17249D01*
X19599Y-17249D01*
X19663Y-17250D01*
X19725Y-17188D01*
X19725Y-18162D01*
X19663Y-18100D01*
X19599Y-18101D01*
X19500Y-18101D01*
X19409Y-18139D01*
X19339Y-18209D01*
X19325Y-18242D01*
X19311Y-18209D01*
X19241Y-18139D01*
X19150Y-18101D01*
X19051Y-18101D01*
X18987Y-18100D01*
X18925Y-18162D01*
X18925Y-18425D01*
X19288Y-18425D01*
X19325Y-18388D01*
X19362Y-18425D01*
X19725Y-18425D01*
X19725Y-18525D01*
X19675Y-18525D01*
X19362Y-18525D01*
X19325Y-18562D01*
X19288Y-18525D01*
X18975Y-18525D01*
X18925Y-18525D01*
X18825Y-18525D01*
X18825Y-18425D01*
X18825Y-18162D01*
X18763Y-18100D01*
X18699Y-18101D01*
X18600Y-18101D01*
X18509Y-18139D01*
X18439Y-18209D01*
X18401Y-18301D01*
X18400Y-18363D01*
X18462Y-18425D01*
X18825Y-18425D01*
X18825Y-18525D01*
X18775Y-18525D01*
X18462Y-18525D01*
X18400Y-18587D01*
X18401Y-18649D01*
X18439Y-18741D01*
X18473Y-18775D01*
X18439Y-18809D01*
X18401Y-18900D01*
X18401Y-18999D01*
X18401Y-19249D01*
X18439Y-19341D01*
X18509Y-19411D01*
X18512Y-19412D01*
X18469Y-19517D01*
X18419Y-19396D01*
X18306Y-19281D01*
X18224Y-19247D01*
X18224Y-19026D01*
X18186Y-18934D01*
X18140Y-18888D01*
X18140Y-18345D01*
X18730Y-17755D01*
X18793Y-17661D01*
X18814Y-17550D01*
X18815Y-17550D01*
X18815Y-16956D01*
X18905Y-16956D01*
X19054Y-16894D01*
X19169Y-16781D01*
X19231Y-16631D01*
X19231Y-16554D01*
X19311Y-16473D01*
X19339Y-16541D01*
X19373Y-16575D01*
X19339Y-16609D01*
X19301Y-16701D01*
X19300Y-16763D01*
X19362Y-16825D01*
X19675Y-16825D01*
X19725Y-16825D01*
X19825Y-16825D01*
X19875Y-16825D01*
X20188Y-16825D01*
X20250Y-16763D01*
X20249Y-16701D01*
X20230Y-16656D01*
X20230Y-16655D01*
X20379Y-16594D01*
X20425Y-16548D01*
X20425Y-18801D01*
M02*
