G04 (created by PCBNEW-RS274X (2011-05-25)-stable) date 2011-12-18T13:02:57 CET*
G01*
G70*
G90*
%MOIN*%
G04 Gerber Fmt 3.4, Leading zero omitted, Abs format*
%FSLAX34Y34*%
G04 APERTURE LIST*
%ADD10C,0.006000*%
%ADD11C,0.015000*%
%ADD12C,0.005000*%
%ADD13C,0.004900*%
%ADD14C,0.004500*%
%ADD15C,0.080000*%
%ADD16C,0.126300*%
%ADD17R,0.100000X0.080000*%
%ADD18R,0.065000X0.045000*%
%ADD19R,0.045000X0.065000*%
%ADD20C,0.075000*%
%ADD21C,0.070000*%
%ADD22R,0.080000X0.080000*%
%ADD23R,0.095000X0.095000*%
%ADD24C,0.095000*%
%ADD25C,0.256200*%
%ADD26R,0.120000X0.120000*%
%ADD27C,0.120000*%
%ADD28R,0.059400X0.059400*%
%ADD29C,0.059400*%
%ADD30R,0.079100X0.051500*%
%ADD31R,0.075100X0.090900*%
%ADD32R,0.094800X0.075100*%
%ADD33C,0.098700*%
%ADD34C,0.010000*%
G04 APERTURE END LIST*
G54D10*
G54D11*
X39375Y-01325D02*
X39375Y-37975D01*
X01400Y00000D02*
X38100Y00000D01*
X00000Y-37925D02*
X00000Y-01325D01*
X38075Y-39375D02*
X01275Y-39375D01*
X01375Y-00001D02*
X01259Y-00004D01*
X01142Y-00017D01*
X01026Y-00040D01*
X00913Y-00073D01*
X00804Y-00116D01*
X00698Y-00169D01*
X00598Y-00230D01*
X00503Y-00300D01*
X00414Y-00378D01*
X00333Y-00463D01*
X00260Y-00555D01*
X00195Y-00653D01*
X00138Y-00757D01*
X00091Y-00865D01*
X00053Y-00976D01*
X00026Y-01091D01*
X00008Y-01207D01*
X00001Y-01325D01*
X00001Y-37950D02*
X-00001Y-38067D01*
X00008Y-38185D01*
X00027Y-38301D01*
X00056Y-38415D01*
X00095Y-38527D01*
X00144Y-38634D01*
X00201Y-38737D01*
X00268Y-38834D01*
X00343Y-38926D01*
X00425Y-39010D01*
X00514Y-39087D01*
X00610Y-39156D01*
X00712Y-39216D01*
X00818Y-39267D01*
X00928Y-39309D01*
X01042Y-39341D01*
X01158Y-39363D01*
X01275Y-39374D01*
X38074Y-39374D02*
X38191Y-39364D01*
X38307Y-39345D01*
X38421Y-39315D01*
X38532Y-39275D01*
X38639Y-39226D01*
X38742Y-39168D01*
X38839Y-39101D01*
X38930Y-39026D01*
X39013Y-38943D01*
X39090Y-38854D01*
X39158Y-38758D01*
X39218Y-38656D01*
X39268Y-38550D01*
X39309Y-38439D01*
X39340Y-38326D01*
X39362Y-38210D01*
X39373Y-38093D01*
X39374Y-37976D01*
X39374Y-01324D02*
X39371Y-01212D01*
X39359Y-01099D01*
X39336Y-00988D01*
X39304Y-00879D01*
X39263Y-00774D01*
X39213Y-00672D01*
X39154Y-00575D01*
X39086Y-00484D01*
X39011Y-00399D01*
X38929Y-00321D01*
X38840Y-00250D01*
X38746Y-00187D01*
X38646Y-00133D01*
X38542Y-00088D01*
X38435Y-00051D01*
X38325Y-00025D01*
X38213Y-00008D01*
X38099Y-00001D01*
G54D12*
X36200Y-23175D02*
X37100Y-23175D01*
X37100Y-23175D02*
X37100Y-23825D01*
X36200Y-24525D02*
X36200Y-25175D01*
X36200Y-25175D02*
X37100Y-25175D01*
X37100Y-25175D02*
X37100Y-24525D01*
X36200Y-23825D02*
X36200Y-23175D01*
X03100Y-19850D02*
X03100Y-20750D01*
X03100Y-20750D02*
X03600Y-20750D01*
X03600Y-20750D02*
X03600Y-19850D01*
X03600Y-19850D02*
X03100Y-19850D01*
X04650Y-19700D02*
X04650Y-20600D01*
X04650Y-20600D02*
X05150Y-20600D01*
X05150Y-20600D02*
X05150Y-19700D01*
X05150Y-19700D02*
X04650Y-19700D01*
X19525Y-16125D02*
X19525Y-17025D01*
X19525Y-17025D02*
X20025Y-17025D01*
X20025Y-17025D02*
X20025Y-16125D01*
X20025Y-16125D02*
X19525Y-16125D01*
X20025Y-19225D02*
X20025Y-18325D01*
X20025Y-18325D02*
X19525Y-18325D01*
X19525Y-18325D02*
X19525Y-19225D01*
X19525Y-19225D02*
X20025Y-19225D01*
X16275Y-14925D02*
X15375Y-14925D01*
X15375Y-14925D02*
X15375Y-15425D01*
X15375Y-15425D02*
X16275Y-15425D01*
X16275Y-15425D02*
X16275Y-14925D01*
X19125Y-19225D02*
X19125Y-18325D01*
X19125Y-18325D02*
X18625Y-18325D01*
X18625Y-18325D02*
X18625Y-19225D01*
X18625Y-19225D02*
X19125Y-19225D01*
X30650Y-23500D02*
X30650Y-24400D01*
X30650Y-24400D02*
X31150Y-24400D01*
X31150Y-24400D02*
X31150Y-23500D01*
X31150Y-23500D02*
X30650Y-23500D01*
X35150Y-24275D02*
X35150Y-25175D01*
X35150Y-25175D02*
X35650Y-25175D01*
X35650Y-25175D02*
X35650Y-24275D01*
X35650Y-24275D02*
X35150Y-24275D01*
X31750Y-23600D02*
X32650Y-23600D01*
X32650Y-23600D02*
X32650Y-23100D01*
X32650Y-23100D02*
X31750Y-23100D01*
X31750Y-23100D02*
X31750Y-23600D01*
X32650Y-24300D02*
X31750Y-24300D01*
X31750Y-24300D02*
X31750Y-24800D01*
X31750Y-24800D02*
X32650Y-24800D01*
X32650Y-24800D02*
X32650Y-24300D01*
X15450Y-18325D02*
X15450Y-19225D01*
X15450Y-19225D02*
X15950Y-19225D01*
X15950Y-19225D02*
X15950Y-18325D01*
X15950Y-18325D02*
X15450Y-18325D01*
X19650Y-14900D02*
X18750Y-14900D01*
X18750Y-14900D02*
X18750Y-15400D01*
X18750Y-15400D02*
X19650Y-15400D01*
X19650Y-15400D02*
X19650Y-14900D01*
X17100Y-19550D02*
X18000Y-19550D01*
X18000Y-19550D02*
X18000Y-19050D01*
X18000Y-19050D02*
X17100Y-19050D01*
X17100Y-19050D02*
X17100Y-19550D01*
G54D11*
X00163Y-13699D02*
X00163Y-07833D01*
X06462Y-07833D02*
X06501Y-07833D01*
X06501Y-07833D02*
X06501Y-07912D01*
X00163Y-07833D02*
X06462Y-07833D01*
X06501Y-13700D02*
X06501Y-07912D01*
X00163Y-13699D02*
X06501Y-13699D01*
G54D13*
X37323Y-23510D02*
X37314Y-23520D01*
X37286Y-23529D01*
X37267Y-23529D01*
X37239Y-23520D01*
X37220Y-23501D01*
X37211Y-23482D01*
X37202Y-23445D01*
X37202Y-23417D01*
X37211Y-23379D01*
X37220Y-23360D01*
X37239Y-23342D01*
X37267Y-23332D01*
X37286Y-23332D01*
X37314Y-23342D01*
X37323Y-23351D01*
X37436Y-23417D02*
X37417Y-23407D01*
X37408Y-23398D01*
X37399Y-23379D01*
X37399Y-23370D01*
X37408Y-23351D01*
X37417Y-23342D01*
X37436Y-23332D01*
X37474Y-23332D01*
X37492Y-23342D01*
X37502Y-23351D01*
X37511Y-23370D01*
X37511Y-23379D01*
X37502Y-23398D01*
X37492Y-23407D01*
X37474Y-23417D01*
X37436Y-23417D01*
X37417Y-23426D01*
X37408Y-23435D01*
X37399Y-23454D01*
X37399Y-23492D01*
X37408Y-23510D01*
X37417Y-23520D01*
X37436Y-23529D01*
X37474Y-23529D01*
X37492Y-23520D01*
X37502Y-23510D01*
X37511Y-23492D01*
X37511Y-23454D01*
X37502Y-23435D01*
X37492Y-23426D01*
X37474Y-23417D01*
X37680Y-23398D02*
X37680Y-23529D01*
X37633Y-23323D02*
X37587Y-23464D01*
X37708Y-23464D01*
X36063Y-23054D02*
X35951Y-23054D01*
X36007Y-23054D02*
X36007Y-22857D01*
X35988Y-22885D01*
X35969Y-22904D01*
X35951Y-22914D01*
X36185Y-22857D02*
X36204Y-22857D01*
X36223Y-22867D01*
X36232Y-22876D01*
X36242Y-22895D01*
X36251Y-22932D01*
X36251Y-22979D01*
X36242Y-23017D01*
X36232Y-23035D01*
X36223Y-23045D01*
X36204Y-23054D01*
X36185Y-23054D01*
X36167Y-23045D01*
X36157Y-23035D01*
X36148Y-23017D01*
X36139Y-22979D01*
X36139Y-22932D01*
X36148Y-22895D01*
X36157Y-22876D01*
X36167Y-22867D01*
X36185Y-22857D01*
X36420Y-22923D02*
X36420Y-23054D01*
X36336Y-22923D02*
X36336Y-23026D01*
X36345Y-23045D01*
X36364Y-23054D01*
X36392Y-23054D01*
X36411Y-23045D01*
X36420Y-23035D01*
X36580Y-22951D02*
X36514Y-22951D01*
X36514Y-23054D02*
X36514Y-22857D01*
X36608Y-22857D01*
X36824Y-22848D02*
X36655Y-23101D01*
X36870Y-22857D02*
X36992Y-22857D01*
X36926Y-22932D01*
X36955Y-22932D01*
X36973Y-22942D01*
X36983Y-22951D01*
X36992Y-22970D01*
X36992Y-23017D01*
X36983Y-23035D01*
X36973Y-23045D01*
X36955Y-23054D01*
X36898Y-23054D01*
X36880Y-23045D01*
X36870Y-23035D01*
X37171Y-22857D02*
X37077Y-22857D01*
X37068Y-22951D01*
X37077Y-22942D01*
X37096Y-22932D01*
X37143Y-22932D01*
X37161Y-22942D01*
X37171Y-22951D01*
X37180Y-22970D01*
X37180Y-23017D01*
X37171Y-23035D01*
X37161Y-23045D01*
X37143Y-23054D01*
X37096Y-23054D01*
X37077Y-23045D01*
X37068Y-23035D01*
X37237Y-22857D02*
X37302Y-23054D01*
X37368Y-22857D01*
G54D14*
X03173Y-19610D02*
X03164Y-19620D01*
X03136Y-19629D01*
X03117Y-19629D01*
X03089Y-19620D01*
X03070Y-19601D01*
X03061Y-19582D01*
X03052Y-19545D01*
X03052Y-19517D01*
X03061Y-19479D01*
X03070Y-19460D01*
X03089Y-19442D01*
X03117Y-19432D01*
X03136Y-19432D01*
X03164Y-19442D01*
X03173Y-19451D01*
X03342Y-19498D02*
X03342Y-19629D01*
X03295Y-19423D02*
X03249Y-19564D01*
X03370Y-19564D01*
X03427Y-19432D02*
X03549Y-19432D01*
X03483Y-19507D01*
X03512Y-19507D01*
X03530Y-19517D01*
X03540Y-19526D01*
X03549Y-19545D01*
X03549Y-19592D01*
X03540Y-19610D01*
X03530Y-19620D01*
X03512Y-19629D01*
X03455Y-19629D01*
X03437Y-19620D01*
X03427Y-19610D01*
X03045Y-21054D02*
X02933Y-21054D01*
X02989Y-21054D02*
X02989Y-20857D01*
X02970Y-20885D01*
X02951Y-20904D01*
X02933Y-20914D01*
X03167Y-20857D02*
X03186Y-20857D01*
X03205Y-20867D01*
X03214Y-20876D01*
X03224Y-20895D01*
X03233Y-20932D01*
X03233Y-20979D01*
X03224Y-21017D01*
X03214Y-21035D01*
X03205Y-21045D01*
X03186Y-21054D01*
X03167Y-21054D01*
X03149Y-21045D01*
X03139Y-21035D01*
X03130Y-21017D01*
X03121Y-20979D01*
X03121Y-20932D01*
X03130Y-20895D01*
X03139Y-20876D01*
X03149Y-20867D01*
X03167Y-20857D01*
X03355Y-20857D02*
X03374Y-20857D01*
X03393Y-20867D01*
X03402Y-20876D01*
X03412Y-20895D01*
X03421Y-20932D01*
X03421Y-20979D01*
X03412Y-21017D01*
X03402Y-21035D01*
X03393Y-21045D01*
X03374Y-21054D01*
X03355Y-21054D01*
X03337Y-21045D01*
X03327Y-21035D01*
X03318Y-21017D01*
X03309Y-20979D01*
X03309Y-20932D01*
X03318Y-20895D01*
X03327Y-20876D01*
X03337Y-20867D01*
X03355Y-20857D01*
X03506Y-20923D02*
X03506Y-21054D01*
X03506Y-20942D02*
X03515Y-20932D01*
X03534Y-20923D01*
X03562Y-20923D01*
X03581Y-20932D01*
X03590Y-20951D01*
X03590Y-21054D01*
X03750Y-20951D02*
X03684Y-20951D01*
X03684Y-21054D02*
X03684Y-20857D01*
X03778Y-20857D01*
X04748Y-19510D02*
X04739Y-19520D01*
X04711Y-19529D01*
X04692Y-19529D01*
X04664Y-19520D01*
X04645Y-19501D01*
X04636Y-19482D01*
X04627Y-19445D01*
X04627Y-19417D01*
X04636Y-19379D01*
X04645Y-19360D01*
X04664Y-19342D01*
X04692Y-19332D01*
X04711Y-19332D01*
X04739Y-19342D01*
X04748Y-19351D01*
X04917Y-19398D02*
X04917Y-19529D01*
X04870Y-19323D02*
X04824Y-19464D01*
X04945Y-19464D01*
X05105Y-19398D02*
X05105Y-19529D01*
X05058Y-19323D02*
X05012Y-19464D01*
X05133Y-19464D01*
X04595Y-20954D02*
X04483Y-20954D01*
X04539Y-20954D02*
X04539Y-20757D01*
X04520Y-20785D01*
X04501Y-20804D01*
X04483Y-20814D01*
X04717Y-20757D02*
X04736Y-20757D01*
X04755Y-20767D01*
X04764Y-20776D01*
X04774Y-20795D01*
X04783Y-20832D01*
X04783Y-20879D01*
X04774Y-20917D01*
X04764Y-20935D01*
X04755Y-20945D01*
X04736Y-20954D01*
X04717Y-20954D01*
X04699Y-20945D01*
X04689Y-20935D01*
X04680Y-20917D01*
X04671Y-20879D01*
X04671Y-20832D01*
X04680Y-20795D01*
X04689Y-20776D01*
X04699Y-20767D01*
X04717Y-20757D01*
X04905Y-20757D02*
X04924Y-20757D01*
X04943Y-20767D01*
X04952Y-20776D01*
X04962Y-20795D01*
X04971Y-20832D01*
X04971Y-20879D01*
X04962Y-20917D01*
X04952Y-20935D01*
X04943Y-20945D01*
X04924Y-20954D01*
X04905Y-20954D01*
X04887Y-20945D01*
X04877Y-20935D01*
X04868Y-20917D01*
X04859Y-20879D01*
X04859Y-20832D01*
X04868Y-20795D01*
X04877Y-20776D01*
X04887Y-20767D01*
X04905Y-20757D01*
X05056Y-20823D02*
X05056Y-20954D01*
X05056Y-20842D02*
X05065Y-20832D01*
X05084Y-20823D01*
X05112Y-20823D01*
X05131Y-20832D01*
X05140Y-20851D01*
X05140Y-20954D01*
X05300Y-20851D02*
X05234Y-20851D01*
X05234Y-20954D02*
X05234Y-20757D01*
X05328Y-20757D01*
X19598Y-16010D02*
X19589Y-16020D01*
X19561Y-16029D01*
X19542Y-16029D01*
X19514Y-16020D01*
X19495Y-16001D01*
X19486Y-15982D01*
X19477Y-15945D01*
X19477Y-15917D01*
X19486Y-15879D01*
X19495Y-15860D01*
X19514Y-15842D01*
X19542Y-15832D01*
X19561Y-15832D01*
X19589Y-15842D01*
X19598Y-15851D01*
X19664Y-15832D02*
X19795Y-15832D01*
X19711Y-16029D01*
X19852Y-15832D02*
X19983Y-15832D01*
X19899Y-16029D01*
X19495Y-17379D02*
X19383Y-17379D01*
X19439Y-17379D02*
X19439Y-17182D01*
X19420Y-17210D01*
X19401Y-17229D01*
X19383Y-17239D01*
X19617Y-17182D02*
X19636Y-17182D01*
X19655Y-17192D01*
X19664Y-17201D01*
X19674Y-17220D01*
X19683Y-17257D01*
X19683Y-17304D01*
X19674Y-17342D01*
X19664Y-17360D01*
X19655Y-17370D01*
X19636Y-17379D01*
X19617Y-17379D01*
X19599Y-17370D01*
X19589Y-17360D01*
X19580Y-17342D01*
X19571Y-17304D01*
X19571Y-17257D01*
X19580Y-17220D01*
X19589Y-17201D01*
X19599Y-17192D01*
X19617Y-17182D01*
X19805Y-17182D02*
X19824Y-17182D01*
X19843Y-17192D01*
X19852Y-17201D01*
X19862Y-17220D01*
X19871Y-17257D01*
X19871Y-17304D01*
X19862Y-17342D01*
X19852Y-17360D01*
X19843Y-17370D01*
X19824Y-17379D01*
X19805Y-17379D01*
X19787Y-17370D01*
X19777Y-17360D01*
X19768Y-17342D01*
X19759Y-17304D01*
X19759Y-17257D01*
X19768Y-17220D01*
X19777Y-17201D01*
X19787Y-17192D01*
X19805Y-17182D01*
X19956Y-17248D02*
X19956Y-17379D01*
X19956Y-17267D02*
X19965Y-17257D01*
X19984Y-17248D01*
X20012Y-17248D01*
X20031Y-17257D01*
X20040Y-17276D01*
X20040Y-17379D01*
X20200Y-17276D02*
X20134Y-17276D01*
X20134Y-17379D02*
X20134Y-17182D01*
X20228Y-17182D01*
X19648Y-18160D02*
X19639Y-18170D01*
X19611Y-18179D01*
X19592Y-18179D01*
X19564Y-18170D01*
X19545Y-18151D01*
X19536Y-18132D01*
X19527Y-18095D01*
X19527Y-18067D01*
X19536Y-18029D01*
X19545Y-18010D01*
X19564Y-17992D01*
X19592Y-17982D01*
X19611Y-17982D01*
X19639Y-17992D01*
X19648Y-18001D01*
X19714Y-17982D02*
X19845Y-17982D01*
X19761Y-18179D01*
X19930Y-18179D02*
X19968Y-18179D01*
X19987Y-18170D01*
X19996Y-18160D01*
X20015Y-18132D01*
X20024Y-18095D01*
X20024Y-18020D01*
X20015Y-18001D01*
X20005Y-17992D01*
X19987Y-17982D01*
X19949Y-17982D01*
X19930Y-17992D01*
X19921Y-18001D01*
X19912Y-18020D01*
X19912Y-18067D01*
X19921Y-18085D01*
X19930Y-18095D01*
X19949Y-18104D01*
X19987Y-18104D01*
X20005Y-18095D01*
X20015Y-18085D01*
X20024Y-18067D01*
X19595Y-19529D02*
X19483Y-19529D01*
X19539Y-19529D02*
X19539Y-19332D01*
X19520Y-19360D01*
X19501Y-19379D01*
X19483Y-19389D01*
X19717Y-19332D02*
X19736Y-19332D01*
X19755Y-19342D01*
X19764Y-19351D01*
X19774Y-19370D01*
X19783Y-19407D01*
X19783Y-19454D01*
X19774Y-19492D01*
X19764Y-19510D01*
X19755Y-19520D01*
X19736Y-19529D01*
X19717Y-19529D01*
X19699Y-19520D01*
X19689Y-19510D01*
X19680Y-19492D01*
X19671Y-19454D01*
X19671Y-19407D01*
X19680Y-19370D01*
X19689Y-19351D01*
X19699Y-19342D01*
X19717Y-19332D01*
X19905Y-19332D02*
X19924Y-19332D01*
X19943Y-19342D01*
X19952Y-19351D01*
X19962Y-19370D01*
X19971Y-19407D01*
X19971Y-19454D01*
X19962Y-19492D01*
X19952Y-19510D01*
X19943Y-19520D01*
X19924Y-19529D01*
X19905Y-19529D01*
X19887Y-19520D01*
X19877Y-19510D01*
X19868Y-19492D01*
X19859Y-19454D01*
X19859Y-19407D01*
X19868Y-19370D01*
X19877Y-19351D01*
X19887Y-19342D01*
X19905Y-19332D01*
X20056Y-19398D02*
X20056Y-19529D01*
X20056Y-19417D02*
X20065Y-19407D01*
X20084Y-19398D01*
X20112Y-19398D01*
X20131Y-19407D01*
X20140Y-19426D01*
X20140Y-19529D01*
X20300Y-19426D02*
X20234Y-19426D01*
X20234Y-19529D02*
X20234Y-19332D01*
X20328Y-19332D01*
X16548Y-14960D02*
X16539Y-14970D01*
X16511Y-14979D01*
X16492Y-14979D01*
X16464Y-14970D01*
X16445Y-14951D01*
X16436Y-14932D01*
X16427Y-14895D01*
X16427Y-14867D01*
X16436Y-14829D01*
X16445Y-14810D01*
X16464Y-14792D01*
X16492Y-14782D01*
X16511Y-14782D01*
X16539Y-14792D01*
X16548Y-14801D01*
X16661Y-14867D02*
X16642Y-14857D01*
X16633Y-14848D01*
X16624Y-14829D01*
X16624Y-14820D01*
X16633Y-14801D01*
X16642Y-14792D01*
X16661Y-14782D01*
X16699Y-14782D01*
X16717Y-14792D01*
X16727Y-14801D01*
X16736Y-14820D01*
X16736Y-14829D01*
X16727Y-14848D01*
X16717Y-14857D01*
X16699Y-14867D01*
X16661Y-14867D01*
X16642Y-14876D01*
X16633Y-14885D01*
X16624Y-14904D01*
X16624Y-14942D01*
X16633Y-14960D01*
X16642Y-14970D01*
X16661Y-14979D01*
X16699Y-14979D01*
X16717Y-14970D01*
X16727Y-14960D01*
X16736Y-14942D01*
X16736Y-14904D01*
X16727Y-14885D01*
X16717Y-14876D01*
X16699Y-14867D01*
X16924Y-14979D02*
X16812Y-14979D01*
X16868Y-14979D02*
X16868Y-14782D01*
X16849Y-14810D01*
X16830Y-14829D01*
X16812Y-14839D01*
X16520Y-15404D02*
X16408Y-15404D01*
X16464Y-15404D02*
X16464Y-15207D01*
X16445Y-15235D01*
X16426Y-15254D01*
X16408Y-15264D01*
X16642Y-15207D02*
X16661Y-15207D01*
X16680Y-15217D01*
X16689Y-15226D01*
X16699Y-15245D01*
X16708Y-15282D01*
X16708Y-15329D01*
X16699Y-15367D01*
X16689Y-15385D01*
X16680Y-15395D01*
X16661Y-15404D01*
X16642Y-15404D01*
X16624Y-15395D01*
X16614Y-15385D01*
X16605Y-15367D01*
X16596Y-15329D01*
X16596Y-15282D01*
X16605Y-15245D01*
X16614Y-15226D01*
X16624Y-15217D01*
X16642Y-15207D01*
X16830Y-15207D02*
X16849Y-15207D01*
X16868Y-15217D01*
X16877Y-15226D01*
X16887Y-15245D01*
X16896Y-15282D01*
X16896Y-15329D01*
X16887Y-15367D01*
X16877Y-15385D01*
X16868Y-15395D01*
X16849Y-15404D01*
X16830Y-15404D01*
X16812Y-15395D01*
X16802Y-15385D01*
X16793Y-15367D01*
X16784Y-15329D01*
X16784Y-15282D01*
X16793Y-15245D01*
X16802Y-15226D01*
X16812Y-15217D01*
X16830Y-15207D01*
X16981Y-15273D02*
X16981Y-15404D01*
X16981Y-15292D02*
X16990Y-15282D01*
X17009Y-15273D01*
X17037Y-15273D01*
X17056Y-15282D01*
X17065Y-15301D01*
X17065Y-15404D01*
X17225Y-15301D02*
X17159Y-15301D01*
X17159Y-15404D02*
X17159Y-15207D01*
X17253Y-15207D01*
X18748Y-18160D02*
X18739Y-18170D01*
X18711Y-18179D01*
X18692Y-18179D01*
X18664Y-18170D01*
X18645Y-18151D01*
X18636Y-18132D01*
X18627Y-18095D01*
X18627Y-18067D01*
X18636Y-18029D01*
X18645Y-18010D01*
X18664Y-17992D01*
X18692Y-17982D01*
X18711Y-17982D01*
X18739Y-17992D01*
X18748Y-18001D01*
X18861Y-18067D02*
X18842Y-18057D01*
X18833Y-18048D01*
X18824Y-18029D01*
X18824Y-18020D01*
X18833Y-18001D01*
X18842Y-17992D01*
X18861Y-17982D01*
X18899Y-17982D01*
X18917Y-17992D01*
X18927Y-18001D01*
X18936Y-18020D01*
X18936Y-18029D01*
X18927Y-18048D01*
X18917Y-18057D01*
X18899Y-18067D01*
X18861Y-18067D01*
X18842Y-18076D01*
X18833Y-18085D01*
X18824Y-18104D01*
X18824Y-18142D01*
X18833Y-18160D01*
X18842Y-18170D01*
X18861Y-18179D01*
X18899Y-18179D01*
X18917Y-18170D01*
X18927Y-18160D01*
X18936Y-18142D01*
X18936Y-18104D01*
X18927Y-18085D01*
X18917Y-18076D01*
X18899Y-18067D01*
X19049Y-18067D02*
X19030Y-18057D01*
X19021Y-18048D01*
X19012Y-18029D01*
X19012Y-18020D01*
X19021Y-18001D01*
X19030Y-17992D01*
X19049Y-17982D01*
X19087Y-17982D01*
X19105Y-17992D01*
X19115Y-18001D01*
X19124Y-18020D01*
X19124Y-18029D01*
X19115Y-18048D01*
X19105Y-18057D01*
X19087Y-18067D01*
X19049Y-18067D01*
X19030Y-18076D01*
X19021Y-18085D01*
X19012Y-18104D01*
X19012Y-18142D01*
X19021Y-18160D01*
X19030Y-18170D01*
X19049Y-18179D01*
X19087Y-18179D01*
X19105Y-18170D01*
X19115Y-18160D01*
X19124Y-18142D01*
X19124Y-18104D01*
X19115Y-18085D01*
X19105Y-18076D01*
X19087Y-18067D01*
X18595Y-19529D02*
X18483Y-19529D01*
X18539Y-19529D02*
X18539Y-19332D01*
X18520Y-19360D01*
X18501Y-19379D01*
X18483Y-19389D01*
X18717Y-19332D02*
X18736Y-19332D01*
X18755Y-19342D01*
X18764Y-19351D01*
X18774Y-19370D01*
X18783Y-19407D01*
X18783Y-19454D01*
X18774Y-19492D01*
X18764Y-19510D01*
X18755Y-19520D01*
X18736Y-19529D01*
X18717Y-19529D01*
X18699Y-19520D01*
X18689Y-19510D01*
X18680Y-19492D01*
X18671Y-19454D01*
X18671Y-19407D01*
X18680Y-19370D01*
X18689Y-19351D01*
X18699Y-19342D01*
X18717Y-19332D01*
X18905Y-19332D02*
X18924Y-19332D01*
X18943Y-19342D01*
X18952Y-19351D01*
X18962Y-19370D01*
X18971Y-19407D01*
X18971Y-19454D01*
X18962Y-19492D01*
X18952Y-19510D01*
X18943Y-19520D01*
X18924Y-19529D01*
X18905Y-19529D01*
X18887Y-19520D01*
X18877Y-19510D01*
X18868Y-19492D01*
X18859Y-19454D01*
X18859Y-19407D01*
X18868Y-19370D01*
X18877Y-19351D01*
X18887Y-19342D01*
X18905Y-19332D01*
X19056Y-19398D02*
X19056Y-19529D01*
X19056Y-19417D02*
X19065Y-19407D01*
X19084Y-19398D01*
X19112Y-19398D01*
X19131Y-19407D01*
X19140Y-19426D01*
X19140Y-19529D01*
X19300Y-19426D02*
X19234Y-19426D01*
X19234Y-19529D02*
X19234Y-19332D01*
X19328Y-19332D01*
X30173Y-23685D02*
X30164Y-23695D01*
X30136Y-23704D01*
X30117Y-23704D01*
X30089Y-23695D01*
X30070Y-23676D01*
X30061Y-23657D01*
X30052Y-23620D01*
X30052Y-23592D01*
X30061Y-23554D01*
X30070Y-23535D01*
X30089Y-23517D01*
X30117Y-23507D01*
X30136Y-23507D01*
X30164Y-23517D01*
X30173Y-23526D01*
X30239Y-23507D02*
X30370Y-23507D01*
X30286Y-23704D01*
X30530Y-23507D02*
X30493Y-23507D01*
X30474Y-23517D01*
X30465Y-23526D01*
X30446Y-23554D01*
X30437Y-23592D01*
X30437Y-23667D01*
X30446Y-23685D01*
X30455Y-23695D01*
X30474Y-23704D01*
X30512Y-23704D01*
X30530Y-23695D01*
X30540Y-23685D01*
X30549Y-23667D01*
X30549Y-23620D01*
X30540Y-23601D01*
X30530Y-23592D01*
X30512Y-23582D01*
X30474Y-23582D01*
X30455Y-23592D01*
X30446Y-23601D01*
X30437Y-23620D01*
X29000Y-24373D02*
X29000Y-24504D01*
X28953Y-24298D02*
X28907Y-24439D01*
X29028Y-24439D01*
X29104Y-24485D02*
X29113Y-24495D01*
X29104Y-24504D01*
X29095Y-24495D01*
X29104Y-24485D01*
X29104Y-24504D01*
X29179Y-24307D02*
X29310Y-24307D01*
X29226Y-24504D01*
X29470Y-24373D02*
X29470Y-24504D01*
X29386Y-24373D02*
X29386Y-24476D01*
X29395Y-24495D01*
X29414Y-24504D01*
X29442Y-24504D01*
X29461Y-24495D01*
X29470Y-24485D01*
X29630Y-24401D02*
X29564Y-24401D01*
X29564Y-24504D02*
X29564Y-24307D01*
X29658Y-24307D01*
X29874Y-24298D02*
X29705Y-24551D01*
X30023Y-24307D02*
X29986Y-24307D01*
X29967Y-24317D01*
X29958Y-24326D01*
X29939Y-24354D01*
X29930Y-24392D01*
X29930Y-24467D01*
X29939Y-24485D01*
X29948Y-24495D01*
X29967Y-24504D01*
X30005Y-24504D01*
X30023Y-24495D01*
X30033Y-24485D01*
X30042Y-24467D01*
X30042Y-24420D01*
X30033Y-24401D01*
X30023Y-24392D01*
X30005Y-24382D01*
X29967Y-24382D01*
X29948Y-24392D01*
X29939Y-24401D01*
X29930Y-24420D01*
X30127Y-24485D02*
X30136Y-24495D01*
X30127Y-24504D01*
X30118Y-24495D01*
X30127Y-24485D01*
X30127Y-24504D01*
X30202Y-24307D02*
X30324Y-24307D01*
X30258Y-24382D01*
X30287Y-24382D01*
X30305Y-24392D01*
X30315Y-24401D01*
X30324Y-24420D01*
X30324Y-24467D01*
X30315Y-24485D01*
X30305Y-24495D01*
X30287Y-24504D01*
X30230Y-24504D01*
X30212Y-24495D01*
X30202Y-24485D01*
X30381Y-24307D02*
X30446Y-24504D01*
X30512Y-24307D01*
X34623Y-24810D02*
X34614Y-24820D01*
X34586Y-24829D01*
X34567Y-24829D01*
X34539Y-24820D01*
X34520Y-24801D01*
X34511Y-24782D01*
X34502Y-24745D01*
X34502Y-24717D01*
X34511Y-24679D01*
X34520Y-24660D01*
X34539Y-24642D01*
X34567Y-24632D01*
X34586Y-24632D01*
X34614Y-24642D01*
X34623Y-24651D01*
X34736Y-24717D02*
X34717Y-24707D01*
X34708Y-24698D01*
X34699Y-24679D01*
X34699Y-24670D01*
X34708Y-24651D01*
X34717Y-24642D01*
X34736Y-24632D01*
X34774Y-24632D01*
X34792Y-24642D01*
X34802Y-24651D01*
X34811Y-24670D01*
X34811Y-24679D01*
X34802Y-24698D01*
X34792Y-24707D01*
X34774Y-24717D01*
X34736Y-24717D01*
X34717Y-24726D01*
X34708Y-24735D01*
X34699Y-24754D01*
X34699Y-24792D01*
X34708Y-24810D01*
X34717Y-24820D01*
X34736Y-24829D01*
X34774Y-24829D01*
X34792Y-24820D01*
X34802Y-24810D01*
X34811Y-24792D01*
X34811Y-24754D01*
X34802Y-24735D01*
X34792Y-24726D01*
X34774Y-24717D01*
X34877Y-24632D02*
X34999Y-24632D01*
X34933Y-24707D01*
X34962Y-24707D01*
X34980Y-24717D01*
X34990Y-24726D01*
X34999Y-24745D01*
X34999Y-24792D01*
X34990Y-24810D01*
X34980Y-24820D01*
X34962Y-24829D01*
X34905Y-24829D01*
X34887Y-24820D01*
X34877Y-24810D01*
X34389Y-25092D02*
X34370Y-25082D01*
X34361Y-25073D01*
X34352Y-25054D01*
X34352Y-25045D01*
X34361Y-25026D01*
X34370Y-25017D01*
X34389Y-25007D01*
X34427Y-25007D01*
X34445Y-25017D01*
X34455Y-25026D01*
X34464Y-25045D01*
X34464Y-25054D01*
X34455Y-25073D01*
X34445Y-25082D01*
X34427Y-25092D01*
X34389Y-25092D01*
X34370Y-25101D01*
X34361Y-25110D01*
X34352Y-25129D01*
X34352Y-25167D01*
X34361Y-25185D01*
X34370Y-25195D01*
X34389Y-25204D01*
X34427Y-25204D01*
X34445Y-25195D01*
X34455Y-25185D01*
X34464Y-25167D01*
X34464Y-25129D01*
X34455Y-25110D01*
X34445Y-25101D01*
X34427Y-25092D01*
X34540Y-25026D02*
X34549Y-25017D01*
X34568Y-25007D01*
X34615Y-25007D01*
X34633Y-25017D01*
X34643Y-25026D01*
X34652Y-25045D01*
X34652Y-25064D01*
X34643Y-25092D01*
X34530Y-25204D01*
X34652Y-25204D01*
X34737Y-25073D02*
X34737Y-25270D01*
X34737Y-25082D02*
X34756Y-25073D01*
X34793Y-25073D01*
X34812Y-25082D01*
X34821Y-25092D01*
X34831Y-25110D01*
X34831Y-25167D01*
X34821Y-25185D01*
X34812Y-25195D01*
X34793Y-25204D01*
X34756Y-25204D01*
X34737Y-25195D01*
X34981Y-25101D02*
X34915Y-25101D01*
X34915Y-25204D02*
X34915Y-25007D01*
X35009Y-25007D01*
X32073Y-22979D02*
X32008Y-22885D01*
X31961Y-22979D02*
X31961Y-22782D01*
X32036Y-22782D01*
X32055Y-22792D01*
X32064Y-22801D01*
X32073Y-22820D01*
X32073Y-22848D01*
X32064Y-22867D01*
X32055Y-22876D01*
X32036Y-22885D01*
X31961Y-22885D01*
X32186Y-22867D02*
X32167Y-22857D01*
X32158Y-22848D01*
X32149Y-22829D01*
X32149Y-22820D01*
X32158Y-22801D01*
X32167Y-22792D01*
X32186Y-22782D01*
X32224Y-22782D01*
X32242Y-22792D01*
X32252Y-22801D01*
X32261Y-22820D01*
X32261Y-22829D01*
X32252Y-22848D01*
X32242Y-22857D01*
X32224Y-22867D01*
X32186Y-22867D01*
X32167Y-22876D01*
X32158Y-22885D01*
X32149Y-22904D01*
X32149Y-22942D01*
X32158Y-22960D01*
X32167Y-22970D01*
X32186Y-22979D01*
X32224Y-22979D01*
X32242Y-22970D01*
X32252Y-22960D01*
X32261Y-22942D01*
X32261Y-22904D01*
X32252Y-22885D01*
X32242Y-22876D01*
X32224Y-22867D01*
X32355Y-22979D02*
X32393Y-22979D01*
X32412Y-22970D01*
X32421Y-22960D01*
X32440Y-22932D01*
X32449Y-22895D01*
X32449Y-22820D01*
X32440Y-22801D01*
X32430Y-22792D01*
X32412Y-22782D01*
X32374Y-22782D01*
X32355Y-22792D01*
X32346Y-22801D01*
X32337Y-22820D01*
X32337Y-22867D01*
X32346Y-22885D01*
X32355Y-22895D01*
X32374Y-22904D01*
X32412Y-22904D01*
X32430Y-22895D01*
X32440Y-22885D01*
X32449Y-22867D01*
X32083Y-22654D02*
X31971Y-22654D01*
X32027Y-22654D02*
X32027Y-22457D01*
X32008Y-22485D01*
X31989Y-22504D01*
X31971Y-22514D01*
X32196Y-22542D02*
X32177Y-22532D01*
X32168Y-22523D01*
X32159Y-22504D01*
X32159Y-22495D01*
X32168Y-22476D01*
X32177Y-22467D01*
X32196Y-22457D01*
X32234Y-22457D01*
X32252Y-22467D01*
X32262Y-22476D01*
X32271Y-22495D01*
X32271Y-22504D01*
X32262Y-22523D01*
X32252Y-22532D01*
X32234Y-22542D01*
X32196Y-22542D01*
X32177Y-22551D01*
X32168Y-22560D01*
X32159Y-22579D01*
X32159Y-22617D01*
X32168Y-22635D01*
X32177Y-22645D01*
X32196Y-22654D01*
X32234Y-22654D01*
X32252Y-22645D01*
X32262Y-22635D01*
X32271Y-22617D01*
X32271Y-22579D01*
X32262Y-22560D01*
X32252Y-22551D01*
X32234Y-22542D01*
X32356Y-22654D02*
X32356Y-22457D01*
X32375Y-22579D02*
X32431Y-22654D01*
X32431Y-22523D02*
X32356Y-22598D01*
X32073Y-25154D02*
X32008Y-25060D01*
X31961Y-25154D02*
X31961Y-24957D01*
X32036Y-24957D01*
X32055Y-24967D01*
X32064Y-24976D01*
X32073Y-24995D01*
X32073Y-25023D01*
X32064Y-25042D01*
X32055Y-25051D01*
X32036Y-25060D01*
X31961Y-25060D01*
X32167Y-25154D02*
X32205Y-25154D01*
X32224Y-25145D01*
X32233Y-25135D01*
X32252Y-25107D01*
X32261Y-25070D01*
X32261Y-24995D01*
X32252Y-24976D01*
X32242Y-24967D01*
X32224Y-24957D01*
X32186Y-24957D01*
X32167Y-24967D01*
X32158Y-24976D01*
X32149Y-24995D01*
X32149Y-25042D01*
X32158Y-25060D01*
X32167Y-25070D01*
X32186Y-25079D01*
X32224Y-25079D01*
X32242Y-25070D01*
X32252Y-25060D01*
X32261Y-25042D01*
X32383Y-24957D02*
X32402Y-24957D01*
X32421Y-24967D01*
X32430Y-24976D01*
X32440Y-24995D01*
X32449Y-25032D01*
X32449Y-25079D01*
X32440Y-25117D01*
X32430Y-25135D01*
X32421Y-25145D01*
X32402Y-25154D01*
X32383Y-25154D01*
X32365Y-25145D01*
X32355Y-25135D01*
X32346Y-25117D01*
X32337Y-25079D01*
X32337Y-25032D01*
X32346Y-24995D01*
X32355Y-24976D01*
X32365Y-24967D01*
X32383Y-24957D01*
X32083Y-25429D02*
X31971Y-25429D01*
X32027Y-25429D02*
X32027Y-25232D01*
X32008Y-25260D01*
X31989Y-25279D01*
X31971Y-25289D01*
X32271Y-25429D02*
X32159Y-25429D01*
X32215Y-25429D02*
X32215Y-25232D01*
X32196Y-25260D01*
X32177Y-25279D01*
X32159Y-25289D01*
X32356Y-25429D02*
X32356Y-25232D01*
X32375Y-25354D02*
X32431Y-25429D01*
X32431Y-25298D02*
X32356Y-25373D01*
X15573Y-18160D02*
X15564Y-18170D01*
X15536Y-18179D01*
X15517Y-18179D01*
X15489Y-18170D01*
X15470Y-18151D01*
X15461Y-18132D01*
X15452Y-18095D01*
X15452Y-18067D01*
X15461Y-18029D01*
X15470Y-18010D01*
X15489Y-17992D01*
X15517Y-17982D01*
X15536Y-17982D01*
X15564Y-17992D01*
X15573Y-18001D01*
X15639Y-17982D02*
X15761Y-17982D01*
X15695Y-18057D01*
X15724Y-18057D01*
X15742Y-18067D01*
X15752Y-18076D01*
X15761Y-18095D01*
X15761Y-18142D01*
X15752Y-18160D01*
X15742Y-18170D01*
X15724Y-18179D01*
X15667Y-18179D01*
X15649Y-18170D01*
X15639Y-18160D01*
X15827Y-17982D02*
X15949Y-17982D01*
X15883Y-18057D01*
X15912Y-18057D01*
X15930Y-18067D01*
X15940Y-18076D01*
X15949Y-18095D01*
X15949Y-18142D01*
X15940Y-18160D01*
X15930Y-18170D01*
X15912Y-18179D01*
X15855Y-18179D01*
X15837Y-18170D01*
X15827Y-18160D01*
X15395Y-19529D02*
X15283Y-19529D01*
X15339Y-19529D02*
X15339Y-19332D01*
X15320Y-19360D01*
X15301Y-19379D01*
X15283Y-19389D01*
X15517Y-19332D02*
X15536Y-19332D01*
X15555Y-19342D01*
X15564Y-19351D01*
X15574Y-19370D01*
X15583Y-19407D01*
X15583Y-19454D01*
X15574Y-19492D01*
X15564Y-19510D01*
X15555Y-19520D01*
X15536Y-19529D01*
X15517Y-19529D01*
X15499Y-19520D01*
X15489Y-19510D01*
X15480Y-19492D01*
X15471Y-19454D01*
X15471Y-19407D01*
X15480Y-19370D01*
X15489Y-19351D01*
X15499Y-19342D01*
X15517Y-19332D01*
X15705Y-19332D02*
X15724Y-19332D01*
X15743Y-19342D01*
X15752Y-19351D01*
X15762Y-19370D01*
X15771Y-19407D01*
X15771Y-19454D01*
X15762Y-19492D01*
X15752Y-19510D01*
X15743Y-19520D01*
X15724Y-19529D01*
X15705Y-19529D01*
X15687Y-19520D01*
X15677Y-19510D01*
X15668Y-19492D01*
X15659Y-19454D01*
X15659Y-19407D01*
X15668Y-19370D01*
X15677Y-19351D01*
X15687Y-19342D01*
X15705Y-19332D01*
X15856Y-19398D02*
X15856Y-19529D01*
X15856Y-19417D02*
X15865Y-19407D01*
X15884Y-19398D01*
X15912Y-19398D01*
X15931Y-19407D01*
X15940Y-19426D01*
X15940Y-19529D01*
X16100Y-19426D02*
X16034Y-19426D01*
X16034Y-19529D02*
X16034Y-19332D01*
X16128Y-19332D01*
X18248Y-14960D02*
X18239Y-14970D01*
X18211Y-14979D01*
X18192Y-14979D01*
X18164Y-14970D01*
X18145Y-14951D01*
X18136Y-14932D01*
X18127Y-14895D01*
X18127Y-14867D01*
X18136Y-14829D01*
X18145Y-14810D01*
X18164Y-14792D01*
X18192Y-14782D01*
X18211Y-14782D01*
X18239Y-14792D01*
X18248Y-14801D01*
X18436Y-14979D02*
X18324Y-14979D01*
X18380Y-14979D02*
X18380Y-14782D01*
X18361Y-14810D01*
X18342Y-14829D01*
X18324Y-14839D01*
X18530Y-14979D02*
X18568Y-14979D01*
X18587Y-14970D01*
X18596Y-14960D01*
X18615Y-14932D01*
X18624Y-14895D01*
X18624Y-14820D01*
X18615Y-14801D01*
X18605Y-14792D01*
X18587Y-14782D01*
X18549Y-14782D01*
X18530Y-14792D01*
X18521Y-14801D01*
X18512Y-14820D01*
X18512Y-14867D01*
X18521Y-14885D01*
X18530Y-14895D01*
X18549Y-14904D01*
X18587Y-14904D01*
X18605Y-14895D01*
X18615Y-14885D01*
X18624Y-14867D01*
X17895Y-15429D02*
X17783Y-15429D01*
X17839Y-15429D02*
X17839Y-15232D01*
X17820Y-15260D01*
X17801Y-15279D01*
X17783Y-15289D01*
X18017Y-15232D02*
X18036Y-15232D01*
X18055Y-15242D01*
X18064Y-15251D01*
X18074Y-15270D01*
X18083Y-15307D01*
X18083Y-15354D01*
X18074Y-15392D01*
X18064Y-15410D01*
X18055Y-15420D01*
X18036Y-15429D01*
X18017Y-15429D01*
X17999Y-15420D01*
X17989Y-15410D01*
X17980Y-15392D01*
X17971Y-15354D01*
X17971Y-15307D01*
X17980Y-15270D01*
X17989Y-15251D01*
X17999Y-15242D01*
X18017Y-15232D01*
X18205Y-15232D02*
X18224Y-15232D01*
X18243Y-15242D01*
X18252Y-15251D01*
X18262Y-15270D01*
X18271Y-15307D01*
X18271Y-15354D01*
X18262Y-15392D01*
X18252Y-15410D01*
X18243Y-15420D01*
X18224Y-15429D01*
X18205Y-15429D01*
X18187Y-15420D01*
X18177Y-15410D01*
X18168Y-15392D01*
X18159Y-15354D01*
X18159Y-15307D01*
X18168Y-15270D01*
X18177Y-15251D01*
X18187Y-15242D01*
X18205Y-15232D01*
X18356Y-15298D02*
X18356Y-15429D01*
X18356Y-15317D02*
X18365Y-15307D01*
X18384Y-15298D01*
X18412Y-15298D01*
X18431Y-15307D01*
X18440Y-15326D01*
X18440Y-15429D01*
X18600Y-15326D02*
X18534Y-15326D01*
X18534Y-15429D02*
X18534Y-15232D01*
X18628Y-15232D01*
X17423Y-18610D02*
X17414Y-18620D01*
X17386Y-18629D01*
X17367Y-18629D01*
X17339Y-18620D01*
X17320Y-18601D01*
X17311Y-18582D01*
X17302Y-18545D01*
X17302Y-18517D01*
X17311Y-18479D01*
X17320Y-18460D01*
X17339Y-18442D01*
X17367Y-18432D01*
X17386Y-18432D01*
X17414Y-18442D01*
X17423Y-18451D01*
X17592Y-18498D02*
X17592Y-18629D01*
X17545Y-18423D02*
X17499Y-18564D01*
X17620Y-18564D01*
X17687Y-18451D02*
X17696Y-18442D01*
X17715Y-18432D01*
X17762Y-18432D01*
X17780Y-18442D01*
X17790Y-18451D01*
X17799Y-18470D01*
X17799Y-18489D01*
X17790Y-18517D01*
X17677Y-18629D01*
X17799Y-18629D01*
X17245Y-18929D02*
X17133Y-18929D01*
X17189Y-18929D02*
X17189Y-18732D01*
X17170Y-18760D01*
X17151Y-18779D01*
X17133Y-18789D01*
X17367Y-18732D02*
X17386Y-18732D01*
X17405Y-18742D01*
X17414Y-18751D01*
X17424Y-18770D01*
X17433Y-18807D01*
X17433Y-18854D01*
X17424Y-18892D01*
X17414Y-18910D01*
X17405Y-18920D01*
X17386Y-18929D01*
X17367Y-18929D01*
X17349Y-18920D01*
X17339Y-18910D01*
X17330Y-18892D01*
X17321Y-18854D01*
X17321Y-18807D01*
X17330Y-18770D01*
X17339Y-18751D01*
X17349Y-18742D01*
X17367Y-18732D01*
X17555Y-18732D02*
X17574Y-18732D01*
X17593Y-18742D01*
X17602Y-18751D01*
X17612Y-18770D01*
X17621Y-18807D01*
X17621Y-18854D01*
X17612Y-18892D01*
X17602Y-18910D01*
X17593Y-18920D01*
X17574Y-18929D01*
X17555Y-18929D01*
X17537Y-18920D01*
X17527Y-18910D01*
X17518Y-18892D01*
X17509Y-18854D01*
X17509Y-18807D01*
X17518Y-18770D01*
X17527Y-18751D01*
X17537Y-18742D01*
X17555Y-18732D01*
X17706Y-18798D02*
X17706Y-18929D01*
X17706Y-18817D02*
X17715Y-18807D01*
X17734Y-18798D01*
X17762Y-18798D01*
X17781Y-18807D01*
X17790Y-18826D01*
X17790Y-18929D01*
X17950Y-18826D02*
X17884Y-18826D01*
X17884Y-18929D02*
X17884Y-18732D01*
X17978Y-18732D01*
G54D13*
X01541Y-08132D02*
X01541Y-08273D01*
X01550Y-08301D01*
X01569Y-08320D01*
X01597Y-08329D01*
X01616Y-08329D01*
X01456Y-08151D02*
X01447Y-08142D01*
X01428Y-08132D01*
X01381Y-08132D01*
X01363Y-08142D01*
X01353Y-08151D01*
X01344Y-08170D01*
X01344Y-08189D01*
X01353Y-08217D01*
X01466Y-08329D01*
X01344Y-08329D01*
X03529Y-03211D02*
X03332Y-03211D01*
X03473Y-03277D01*
X03332Y-03342D01*
X03529Y-03342D01*
X03529Y-03436D02*
X03332Y-03436D01*
X03510Y-03642D02*
X03520Y-03633D01*
X03529Y-03605D01*
X03529Y-03586D01*
X03520Y-03558D01*
X03501Y-03539D01*
X03482Y-03530D01*
X03445Y-03521D01*
X03417Y-03521D01*
X03379Y-03530D01*
X03360Y-03539D01*
X03342Y-03558D01*
X03332Y-03586D01*
X03332Y-03605D01*
X03342Y-03633D01*
X03351Y-03642D01*
X03529Y-03839D02*
X03435Y-03774D01*
X03529Y-03727D02*
X03332Y-03727D01*
X03332Y-03802D01*
X03342Y-03821D01*
X03351Y-03830D01*
X03370Y-03839D01*
X03398Y-03839D01*
X03417Y-03830D01*
X03426Y-03821D01*
X03435Y-03802D01*
X03435Y-03727D01*
X03332Y-03961D02*
X03332Y-03999D01*
X03342Y-04018D01*
X03360Y-04036D01*
X03398Y-04046D01*
X03464Y-04046D01*
X03501Y-04036D01*
X03520Y-04018D01*
X03529Y-03999D01*
X03529Y-03961D01*
X03520Y-03943D01*
X03501Y-03924D01*
X03464Y-03915D01*
X03398Y-03915D01*
X03360Y-03924D01*
X03342Y-03943D01*
X03332Y-03961D01*
X03520Y-04121D02*
X03529Y-04149D01*
X03529Y-04196D01*
X03520Y-04214D01*
X03510Y-04224D01*
X03492Y-04233D01*
X03473Y-04233D01*
X03454Y-04224D01*
X03445Y-04214D01*
X03435Y-04196D01*
X03426Y-04158D01*
X03417Y-04139D01*
X03407Y-04130D01*
X03389Y-04121D01*
X03370Y-04121D01*
X03351Y-04130D01*
X03342Y-04139D01*
X03332Y-04158D01*
X03332Y-04205D01*
X03342Y-04233D01*
X03529Y-04318D02*
X03332Y-04318D01*
X03332Y-04365D01*
X03342Y-04393D01*
X03360Y-04412D01*
X03379Y-04421D01*
X03417Y-04430D01*
X03445Y-04430D01*
X03482Y-04421D01*
X03501Y-04412D01*
X03520Y-04393D01*
X03529Y-04365D01*
X03529Y-04318D01*
%LPC*%
G54D15*
X03600Y-28350D03*
X03600Y-27350D03*
X02813Y-27350D03*
X02813Y-28350D03*
G54D16*
X01750Y-30212D03*
X01750Y-25488D03*
G54D17*
X36650Y-23525D03*
X36650Y-24825D03*
G54D18*
X03350Y-20000D03*
X03350Y-20600D03*
X04900Y-19850D03*
X04900Y-20450D03*
X19775Y-16275D03*
X19775Y-16875D03*
X19775Y-19075D03*
X19775Y-18475D03*
G54D19*
X16125Y-15175D03*
X15525Y-15175D03*
G54D18*
X18875Y-19075D03*
X18875Y-18475D03*
G54D20*
X05800Y-31950D03*
X05800Y-30950D03*
X05800Y-33950D03*
X05800Y-32950D03*
G54D21*
X18075Y-23075D03*
X18075Y-22075D03*
G54D22*
X36450Y-27025D03*
G54D15*
X37450Y-27025D03*
X36450Y-28025D03*
X37450Y-28025D03*
X36450Y-29025D03*
X37450Y-29025D03*
X36450Y-30025D03*
X37450Y-30025D03*
X36450Y-31025D03*
X37450Y-31025D03*
G54D22*
X01600Y-15475D03*
G54D15*
X01600Y-14475D03*
X02600Y-15475D03*
X02600Y-14475D03*
X03600Y-15475D03*
X03600Y-14475D03*
G54D22*
X14200Y-38400D03*
G54D15*
X14200Y-37400D03*
G54D22*
X16200Y-38400D03*
G54D15*
X16200Y-37400D03*
G54D22*
X35075Y-38375D03*
G54D15*
X35075Y-37375D03*
G54D22*
X34075Y-38375D03*
G54D15*
X34075Y-37375D03*
G54D22*
X19200Y-07300D03*
G54D15*
X20200Y-07300D03*
G54D22*
X08200Y-38400D03*
G54D15*
X08200Y-37400D03*
G54D22*
X07200Y-38400D03*
G54D15*
X07200Y-37400D03*
G54D22*
X06200Y-38400D03*
G54D15*
X06200Y-37400D03*
G54D22*
X29587Y-38385D03*
G54D15*
X28587Y-38385D03*
G54D22*
X17200Y-38400D03*
G54D15*
X17200Y-37400D03*
G54D22*
X12200Y-38400D03*
G54D15*
X12200Y-37400D03*
G54D22*
X13200Y-38400D03*
G54D15*
X13200Y-37400D03*
G54D22*
X09200Y-38400D03*
G54D15*
X09200Y-37400D03*
G54D22*
X31050Y-14200D03*
G54D15*
X31050Y-15200D03*
G54D22*
X11200Y-38400D03*
G54D15*
X11200Y-37400D03*
G54D22*
X10200Y-38400D03*
G54D15*
X10200Y-37400D03*
G54D22*
X15200Y-38400D03*
G54D15*
X15200Y-37400D03*
G54D22*
X21272Y-38385D03*
G54D15*
X22272Y-38385D03*
X23272Y-38385D03*
X24272Y-38385D03*
X25272Y-38385D03*
X26272Y-38385D03*
G54D22*
X15625Y-27325D03*
G54D15*
X15625Y-26325D03*
X15625Y-25325D03*
X15625Y-24325D03*
X15625Y-23325D03*
X15625Y-22325D03*
G54D23*
X35675Y-21350D03*
G54D24*
X33675Y-21350D03*
G54D25*
X01378Y-04735D03*
X37992Y-37993D03*
X01378Y-37993D03*
X37992Y-04735D03*
X19685Y-04735D03*
G54D22*
X30581Y-00700D03*
G54D15*
X31581Y-00700D03*
X32581Y-00700D03*
X33581Y-00700D03*
G54D22*
X12273Y-00700D03*
G54D15*
X13273Y-00700D03*
X14273Y-00700D03*
X15273Y-00700D03*
G54D22*
X22707Y-00700D03*
G54D15*
X23707Y-00700D03*
X24707Y-00700D03*
X25707Y-00700D03*
G54D22*
X04400Y-00700D03*
G54D15*
X05400Y-00700D03*
X06400Y-00700D03*
X07400Y-00700D03*
G54D18*
X30900Y-23650D03*
X30900Y-24250D03*
X35400Y-24425D03*
X35400Y-25025D03*
G54D19*
X31900Y-23350D03*
X32500Y-23350D03*
X32500Y-24550D03*
X31900Y-24550D03*
G54D26*
X37475Y-10025D03*
G54D27*
X37475Y-08025D03*
G54D18*
X15700Y-18475D03*
X15700Y-19075D03*
G54D19*
X19500Y-15150D03*
X18900Y-15150D03*
X17250Y-19300D03*
X17850Y-19300D03*
G54D28*
X13550Y-21000D03*
G54D29*
X14050Y-21000D03*
X13550Y-21500D03*
X14050Y-21500D03*
X13550Y-22000D03*
X14050Y-22000D03*
X13550Y-22500D03*
X14050Y-22500D03*
X13550Y-23000D03*
X14050Y-23000D03*
G54D30*
X02150Y-09997D03*
X02308Y-10411D03*
X02170Y-10844D03*
X02072Y-11296D03*
X02178Y-11730D03*
X02072Y-12163D03*
X02178Y-12596D03*
X02178Y-13068D03*
G54D31*
X06127Y-10450D03*
X06127Y-12714D03*
G54D32*
X00581Y-08141D03*
X00952Y-13381D03*
G54D33*
X19700Y-06300D03*
G54D10*
G36*
X00275Y-06725D02*
X39100Y-06700D01*
X39100Y-02775D01*
X00275Y-02775D01*
X00275Y-06725D01*
X00275Y-06725D01*
G37*
G54D34*
X00275Y-06725D02*
X39100Y-06700D01*
X39100Y-02775D01*
X00275Y-02775D01*
X00275Y-06725D01*
M02*
