G04 (created by PCBNEW-RS274X (2011-05-25)-stable) date 2011-12-18T13:02:58 CET*
G01*
G70*
G90*
%MOIN*%
G04 Gerber Fmt 3.4, Leading zero omitted, Abs format*
%FSLAX34Y34*%
G04 APERTURE LIST*
%ADD10C,0.006000*%
%ADD11C,0.015000*%
%ADD12C,0.080000*%
%ADD13C,0.126300*%
%ADD14R,0.060000X0.030000*%
%ADD15R,0.030000X0.060000*%
%ADD16R,0.098700X0.037700*%
%ADD17R,0.037700X0.098700*%
%ADD18R,0.056000X0.056000*%
%ADD19R,0.065000X0.040000*%
%ADD20R,0.080000X0.100000*%
%ADD21R,0.075000X0.055000*%
%ADD22R,0.045000X0.065000*%
%ADD23R,0.065000X0.045000*%
%ADD24C,0.075000*%
%ADD25C,0.070000*%
%ADD26R,0.236500X0.098700*%
%ADD27R,0.080000X0.080000*%
%ADD28R,0.067200X0.067200*%
%ADD29R,0.095000X0.095000*%
%ADD30C,0.095000*%
%ADD31R,0.059300X0.075100*%
%ADD32R,0.075100X0.059300*%
%ADD33R,0.114500X0.256200*%
%ADD34R,0.114500X0.177500*%
%ADD35C,0.256200*%
%ADD36R,0.090800X0.075100*%
%ADD37R,0.075100X0.090800*%
%ADD38R,0.086900X0.090800*%
%ADD39R,0.120000X0.120000*%
%ADD40C,0.120000*%
%ADD41R,0.055000X0.075000*%
%ADD42C,0.069200*%
%ADD43R,0.059400X0.059400*%
%ADD44C,0.059400*%
%ADD45C,0.098700*%
%ADD46R,0.079100X0.067200*%
%ADD47R,0.067200X0.086900*%
%ADD48R,0.031800X0.083000*%
%ADD49R,0.223900X0.142000*%
G04 APERTURE END LIST*
G54D10*
G54D11*
X39375Y-01325D02*
X39375Y-37975D01*
X01400Y00000D02*
X38100Y00000D01*
X00000Y-37925D02*
X00000Y-01325D01*
X38075Y-39375D02*
X01275Y-39375D01*
X01375Y-00001D02*
X01259Y-00004D01*
X01142Y-00017D01*
X01026Y-00040D01*
X00913Y-00073D01*
X00804Y-00116D01*
X00698Y-00169D01*
X00598Y-00230D01*
X00503Y-00300D01*
X00414Y-00378D01*
X00333Y-00463D01*
X00260Y-00555D01*
X00195Y-00653D01*
X00138Y-00757D01*
X00091Y-00865D01*
X00053Y-00976D01*
X00026Y-01091D01*
X00008Y-01207D01*
X00001Y-01325D01*
X00001Y-37950D02*
X-00001Y-38067D01*
X00008Y-38185D01*
X00027Y-38301D01*
X00056Y-38415D01*
X00095Y-38527D01*
X00144Y-38634D01*
X00201Y-38737D01*
X00268Y-38834D01*
X00343Y-38926D01*
X00425Y-39010D01*
X00514Y-39087D01*
X00610Y-39156D01*
X00712Y-39216D01*
X00818Y-39267D01*
X00928Y-39309D01*
X01042Y-39341D01*
X01158Y-39363D01*
X01275Y-39374D01*
X38074Y-39374D02*
X38191Y-39364D01*
X38307Y-39345D01*
X38421Y-39315D01*
X38532Y-39275D01*
X38639Y-39226D01*
X38742Y-39168D01*
X38839Y-39101D01*
X38930Y-39026D01*
X39013Y-38943D01*
X39090Y-38854D01*
X39158Y-38758D01*
X39218Y-38656D01*
X39268Y-38550D01*
X39309Y-38439D01*
X39340Y-38326D01*
X39362Y-38210D01*
X39373Y-38093D01*
X39374Y-37976D01*
X39374Y-01324D02*
X39371Y-01212D01*
X39359Y-01099D01*
X39336Y-00988D01*
X39304Y-00879D01*
X39263Y-00774D01*
X39213Y-00672D01*
X39154Y-00575D01*
X39086Y-00484D01*
X39011Y-00399D01*
X38929Y-00321D01*
X38840Y-00250D01*
X38746Y-00187D01*
X38646Y-00133D01*
X38542Y-00088D01*
X38435Y-00051D01*
X38325Y-00025D01*
X38213Y-00008D01*
X38099Y-00001D01*
G54D12*
X03600Y-28350D03*
X03600Y-27350D03*
X02813Y-27350D03*
X02813Y-28350D03*
G54D13*
X01750Y-30212D03*
X01750Y-25488D03*
G54D14*
X14650Y-19410D03*
X14650Y-14690D03*
X14650Y-14890D03*
X14650Y-15080D03*
X14650Y-15280D03*
X14650Y-15480D03*
X14650Y-15670D03*
X14650Y-15870D03*
X14650Y-16070D03*
X14650Y-16260D03*
X14650Y-16460D03*
X14650Y-16660D03*
X14650Y-16860D03*
X14650Y-17050D03*
X14650Y-17250D03*
X14650Y-17450D03*
X14650Y-17640D03*
X14650Y-17840D03*
X14650Y-18040D03*
X14650Y-18230D03*
X14650Y-18430D03*
X14650Y-18630D03*
X14650Y-18820D03*
X14650Y-19020D03*
X14650Y-19220D03*
G54D15*
X15340Y-14000D03*
X20060Y-14000D03*
X19860Y-14000D03*
X19670Y-14000D03*
X19470Y-14000D03*
X19270Y-14000D03*
X19080Y-14000D03*
X18880Y-14000D03*
X18680Y-14000D03*
X18490Y-14000D03*
X18290Y-14000D03*
X18090Y-14000D03*
X17890Y-14000D03*
X17700Y-14000D03*
X17500Y-14000D03*
X17300Y-14000D03*
X17110Y-14000D03*
X16910Y-14000D03*
X16710Y-14000D03*
X16520Y-14000D03*
X16320Y-14000D03*
X16120Y-14000D03*
X15930Y-14000D03*
X15730Y-14000D03*
X15530Y-14000D03*
X15340Y-20100D03*
X15540Y-20100D03*
X15730Y-20100D03*
X15930Y-20100D03*
X16130Y-20100D03*
X16320Y-20100D03*
X16520Y-20100D03*
X16720Y-20100D03*
X16910Y-20100D03*
X17110Y-20100D03*
X17310Y-20100D03*
X17510Y-20100D03*
X17700Y-20100D03*
X17900Y-20100D03*
X18100Y-20100D03*
X18290Y-20100D03*
X18490Y-20100D03*
X18690Y-20100D03*
X18880Y-20100D03*
X19080Y-20100D03*
X19280Y-20100D03*
X19470Y-20100D03*
X19670Y-20100D03*
X19870Y-20100D03*
X20060Y-20100D03*
G54D14*
X20750Y-19410D03*
X20750Y-19210D03*
X20750Y-19020D03*
X20750Y-18820D03*
X20750Y-18620D03*
X20750Y-18430D03*
X20750Y-18230D03*
X20750Y-18030D03*
X20750Y-17840D03*
X20750Y-17640D03*
X20750Y-17440D03*
X20750Y-17240D03*
X20750Y-17050D03*
X20750Y-16850D03*
X20750Y-16650D03*
X20750Y-16460D03*
X20750Y-16260D03*
X20750Y-16060D03*
X20750Y-15870D03*
X20750Y-15670D03*
X20750Y-15470D03*
X20750Y-15280D03*
X20750Y-15080D03*
X20750Y-14880D03*
X20750Y-14690D03*
G54D16*
X05996Y-19182D03*
X05996Y-19497D03*
X05996Y-19812D03*
X05996Y-20127D03*
X05996Y-20442D03*
X05996Y-20757D03*
X05996Y-21072D03*
X05996Y-21387D03*
X02230Y-21385D03*
X02230Y-19175D03*
X02230Y-19495D03*
X02230Y-19815D03*
X02230Y-20125D03*
X02230Y-20445D03*
X02230Y-20755D03*
X02230Y-21075D03*
G54D17*
X05212Y-22175D03*
X04898Y-22175D03*
X04582Y-22175D03*
X04268Y-22175D03*
X03952Y-22175D03*
X03638Y-22175D03*
X03322Y-22175D03*
X03008Y-22175D03*
X05210Y-18395D03*
X04900Y-18395D03*
X04580Y-18395D03*
X04270Y-18395D03*
X03960Y-18395D03*
X03640Y-18395D03*
X03320Y-18395D03*
X03000Y-18395D03*
G54D18*
X07000Y-25550D03*
X07000Y-26250D03*
X06200Y-25900D03*
G54D19*
X37900Y-23425D03*
X37900Y-23925D03*
X37900Y-24425D03*
X37900Y-24925D03*
X35400Y-24925D03*
X35400Y-24425D03*
X35400Y-23925D03*
X35400Y-23425D03*
X00950Y-33450D03*
X00950Y-32950D03*
X00950Y-32450D03*
X00950Y-31950D03*
X03450Y-31950D03*
X03450Y-32450D03*
X03450Y-32950D03*
X03450Y-33450D03*
G54D20*
X11923Y-02350D03*
X10623Y-02350D03*
X04050Y-02350D03*
X02750Y-02350D03*
X22357Y-02350D03*
X21057Y-02350D03*
X30231Y-02350D03*
X28931Y-02350D03*
G54D21*
X34900Y-05900D03*
X34900Y-05150D03*
X29981Y-05875D03*
X29981Y-05125D03*
G54D22*
X06983Y-07885D03*
X07583Y-07885D03*
G54D23*
X12200Y-32200D03*
X12200Y-31600D03*
X04700Y-15250D03*
X04700Y-14650D03*
G54D22*
X25290Y-07885D03*
X25890Y-07885D03*
X27257Y-03650D03*
X27857Y-03650D03*
X27071Y-08672D03*
X26471Y-08672D03*
X23807Y-08700D03*
X23207Y-08700D03*
G54D23*
X14200Y-32200D03*
X14200Y-31600D03*
G54D22*
X13373Y-08700D03*
X12773Y-08700D03*
X08950Y-03650D03*
X09550Y-03650D03*
X08764Y-08672D03*
X08164Y-08672D03*
X05500Y-08700D03*
X04900Y-08700D03*
G54D23*
X10200Y-32200D03*
X10200Y-31600D03*
X04600Y-31650D03*
X04600Y-32250D03*
X29675Y-12400D03*
X29675Y-13000D03*
X08200Y-32200D03*
X08200Y-31600D03*
G54D22*
X16637Y-08672D03*
X16037Y-08672D03*
X16823Y-03650D03*
X17423Y-03650D03*
X14856Y-07885D03*
X15456Y-07885D03*
G54D23*
X15200Y-32200D03*
X15200Y-31600D03*
X16200Y-32200D03*
X16200Y-31600D03*
G54D22*
X31681Y-08700D03*
X31081Y-08700D03*
X34945Y-08672D03*
X34345Y-08672D03*
X19600Y-09900D03*
X20200Y-09900D03*
G54D23*
X34900Y-03725D03*
X34900Y-04325D03*
G54D22*
X33164Y-07885D03*
X33764Y-07885D03*
G54D23*
X07200Y-32200D03*
X07200Y-31600D03*
X03300Y-34950D03*
X03300Y-34350D03*
G54D24*
X05800Y-31950D03*
X05800Y-30950D03*
X05800Y-33950D03*
X05800Y-32950D03*
G54D25*
X18075Y-23075D03*
X18075Y-22075D03*
G54D26*
X18400Y-25100D03*
X22100Y-25100D03*
G54D27*
X36450Y-27025D03*
G54D12*
X37450Y-27025D03*
X36450Y-28025D03*
X37450Y-28025D03*
X36450Y-29025D03*
X37450Y-29025D03*
X36450Y-30025D03*
X37450Y-30025D03*
X36450Y-31025D03*
X37450Y-31025D03*
G54D27*
X01600Y-15475D03*
G54D12*
X01600Y-14475D03*
X02600Y-15475D03*
X02600Y-14475D03*
X03600Y-15475D03*
X03600Y-14475D03*
G54D27*
X14200Y-38400D03*
G54D12*
X14200Y-37400D03*
G54D27*
X16200Y-38400D03*
G54D12*
X16200Y-37400D03*
G54D27*
X35075Y-38375D03*
G54D12*
X35075Y-37375D03*
G54D27*
X34075Y-38375D03*
G54D12*
X34075Y-37375D03*
G54D27*
X19200Y-07300D03*
G54D12*
X20200Y-07300D03*
G54D27*
X08200Y-38400D03*
G54D12*
X08200Y-37400D03*
G54D27*
X07200Y-38400D03*
G54D12*
X07200Y-37400D03*
G54D27*
X06200Y-38400D03*
G54D12*
X06200Y-37400D03*
G54D27*
X29587Y-38385D03*
G54D12*
X28587Y-38385D03*
G54D27*
X17200Y-38400D03*
G54D12*
X17200Y-37400D03*
G54D27*
X12200Y-38400D03*
G54D12*
X12200Y-37400D03*
G54D27*
X13200Y-38400D03*
G54D12*
X13200Y-37400D03*
G54D27*
X09200Y-38400D03*
G54D12*
X09200Y-37400D03*
G54D27*
X31050Y-14200D03*
G54D12*
X31050Y-15200D03*
G54D27*
X11200Y-38400D03*
G54D12*
X11200Y-37400D03*
G54D27*
X10200Y-38400D03*
G54D12*
X10200Y-37400D03*
G54D27*
X15200Y-38400D03*
G54D12*
X15200Y-37400D03*
G54D27*
X21272Y-38385D03*
G54D12*
X22272Y-38385D03*
X23272Y-38385D03*
X24272Y-38385D03*
X25272Y-38385D03*
X26272Y-38385D03*
G54D27*
X15625Y-27325D03*
G54D12*
X15625Y-26325D03*
X15625Y-25325D03*
X15625Y-24325D03*
X15625Y-23325D03*
X15625Y-22325D03*
G54D28*
X30197Y-29813D03*
X30197Y-30639D03*
X29016Y-29813D03*
X29016Y-30639D03*
X23475Y-29812D03*
X23475Y-30638D03*
X21175Y-29812D03*
X21175Y-30638D03*
G54D29*
X35675Y-21350D03*
G54D30*
X33675Y-21350D03*
G54D31*
X11826Y-36333D03*
X12574Y-36333D03*
X12200Y-35467D03*
X22572Y-36378D03*
X21824Y-36378D03*
X22198Y-37244D03*
X15826Y-36333D03*
X16574Y-36333D03*
X16200Y-35467D03*
X25524Y-36378D03*
X24776Y-36378D03*
X25150Y-37244D03*
X17574Y-34267D03*
X16826Y-34267D03*
X17200Y-35133D03*
X28871Y-36378D03*
X28123Y-36378D03*
X28497Y-37244D03*
X13574Y-34267D03*
X12826Y-34267D03*
X13200Y-35133D03*
X13826Y-36333D03*
X14574Y-36333D03*
X14200Y-35467D03*
X15574Y-34267D03*
X14826Y-34267D03*
X15200Y-35133D03*
G54D32*
X00617Y-34576D03*
X00617Y-35324D03*
X01483Y-34950D03*
X20233Y-09074D03*
X20233Y-08326D03*
X19367Y-08700D03*
G54D31*
X09826Y-36333D03*
X10574Y-36333D03*
X10200Y-35467D03*
X11574Y-34267D03*
X10826Y-34267D03*
X11200Y-35133D03*
X09574Y-34267D03*
X08826Y-34267D03*
X09200Y-35133D03*
X07826Y-36333D03*
X08574Y-36333D03*
X08200Y-35467D03*
X07574Y-34267D03*
X06826Y-34267D03*
X07200Y-35133D03*
G54D33*
X35325Y-12744D03*
X35325Y-18256D03*
G54D34*
X30900Y-22375D03*
X30900Y-25525D03*
G54D35*
X01378Y-04735D03*
X37992Y-37993D03*
X01378Y-37993D03*
X37992Y-04735D03*
X19685Y-04735D03*
G54D27*
X30581Y-00700D03*
G54D12*
X31581Y-00700D03*
X32581Y-00700D03*
X33581Y-00700D03*
G54D27*
X12273Y-00700D03*
G54D12*
X13273Y-00700D03*
X14273Y-00700D03*
X15273Y-00700D03*
G54D27*
X22707Y-00700D03*
G54D12*
X23707Y-00700D03*
X24707Y-00700D03*
X25707Y-00700D03*
G54D27*
X04400Y-00700D03*
G54D12*
X05400Y-00700D03*
X06400Y-00700D03*
X07400Y-00700D03*
G54D22*
X23950Y-15650D03*
X23350Y-15650D03*
X19200Y-23700D03*
X19800Y-23700D03*
X21300Y-23700D03*
X20700Y-23700D03*
G54D23*
X17300Y-23775D03*
X17300Y-23175D03*
X17300Y-21925D03*
X17300Y-22525D03*
X06125Y-28900D03*
X06125Y-29500D03*
X05200Y-28925D03*
X05200Y-29525D03*
X17200Y-32200D03*
X17200Y-31600D03*
X13200Y-32200D03*
X13200Y-31600D03*
X31581Y-01700D03*
X31581Y-02300D03*
X32481Y-01700D03*
X32481Y-02300D03*
X33381Y-02300D03*
X33381Y-01700D03*
G54D22*
X29931Y-07950D03*
X30531Y-07950D03*
X33163Y-08673D03*
X33763Y-08673D03*
G54D23*
X11200Y-32200D03*
X11200Y-31600D03*
X13273Y-01700D03*
X13273Y-02300D03*
X14173Y-01700D03*
X14173Y-02300D03*
X15073Y-02300D03*
X15073Y-01700D03*
G54D22*
X11623Y-07950D03*
X12223Y-07950D03*
X14855Y-08673D03*
X15455Y-08673D03*
G54D23*
X09200Y-32200D03*
X09200Y-31600D03*
X23707Y-01700D03*
X23707Y-02300D03*
X24607Y-01700D03*
X24607Y-02300D03*
X25507Y-02300D03*
X25507Y-01700D03*
G54D22*
X22057Y-07950D03*
X22657Y-07950D03*
X25289Y-08673D03*
X25889Y-08673D03*
G54D23*
X05400Y-01700D03*
X05400Y-02300D03*
X06300Y-01700D03*
X06300Y-02300D03*
X07200Y-02300D03*
X07200Y-01700D03*
G54D22*
X03750Y-07950D03*
X04350Y-07950D03*
X06983Y-08661D03*
X07583Y-08661D03*
G54D23*
X04600Y-33450D03*
X04600Y-32850D03*
G54D36*
X34075Y-35970D03*
X34075Y-34632D03*
X35075Y-35970D03*
X35075Y-34632D03*
G54D37*
X31331Y-36417D03*
X29993Y-36417D03*
G54D36*
X20175Y-27106D03*
X20175Y-28444D03*
X31075Y-20669D03*
X31075Y-19331D03*
X31050Y-16506D03*
X31050Y-17844D03*
G54D22*
X18075Y-21325D03*
X18675Y-21325D03*
X33925Y-32101D03*
X33325Y-32101D03*
X35475Y-32101D03*
X34875Y-32101D03*
G54D23*
X08000Y-25550D03*
X08000Y-26150D03*
X05200Y-25600D03*
X05200Y-26200D03*
X06125Y-27350D03*
X06125Y-27950D03*
X05200Y-27375D03*
X05200Y-27975D03*
X22225Y-10100D03*
X22225Y-10700D03*
X18400Y-09300D03*
X18400Y-08700D03*
X08200Y-33400D03*
X08200Y-32800D03*
X07200Y-33400D03*
X07200Y-32800D03*
G54D22*
X04200Y-34425D03*
X04800Y-34425D03*
X04250Y-38700D03*
X04850Y-38700D03*
G54D23*
X03300Y-36300D03*
X03300Y-35700D03*
X02400Y-34950D03*
X02400Y-34350D03*
G54D22*
X29850Y-37400D03*
X30450Y-37400D03*
G54D23*
X31181Y-30123D03*
X31181Y-30723D03*
X27175Y-30125D03*
X27175Y-30725D03*
X27316Y-36914D03*
X27316Y-36314D03*
X28031Y-30123D03*
X28031Y-30723D03*
X26275Y-30725D03*
X26275Y-30125D03*
X26250Y-26925D03*
X26250Y-27525D03*
X25475Y-27525D03*
X25475Y-26925D03*
X26332Y-36314D03*
X26332Y-36914D03*
X21017Y-36314D03*
X21017Y-36914D03*
X24275Y-30725D03*
X24275Y-30125D03*
X25079Y-30723D03*
X25079Y-30123D03*
X24650Y-26925D03*
X24650Y-27525D03*
X23875Y-27525D03*
X23875Y-26925D03*
X21975Y-30725D03*
X21975Y-30125D03*
X22716Y-30723D03*
X22716Y-30123D03*
X22325Y-26900D03*
X22325Y-27500D03*
X21550Y-27500D03*
X21550Y-26900D03*
X20325Y-29225D03*
X20325Y-29825D03*
G54D22*
X34945Y-09459D03*
X34345Y-09459D03*
X31681Y-09500D03*
X31081Y-09500D03*
X31081Y-07950D03*
X31681Y-07950D03*
X29931Y-08700D03*
X30531Y-08700D03*
X33164Y-09459D03*
X33764Y-09459D03*
G54D23*
X16200Y-33400D03*
X16200Y-32800D03*
X17200Y-33400D03*
X17200Y-32800D03*
G54D22*
X16637Y-09459D03*
X16037Y-09459D03*
X13373Y-09500D03*
X12773Y-09500D03*
X12773Y-07950D03*
X13373Y-07950D03*
X11623Y-08700D03*
X12223Y-08700D03*
X14856Y-09459D03*
X15456Y-09459D03*
G54D23*
X12200Y-33400D03*
X12200Y-32800D03*
X13200Y-33400D03*
X13200Y-32800D03*
X01200Y-16800D03*
X01200Y-17400D03*
G54D22*
X27071Y-09459D03*
X26471Y-09459D03*
X23807Y-09500D03*
X23207Y-09500D03*
X23207Y-07950D03*
X23807Y-07950D03*
X22057Y-08700D03*
X22657Y-08700D03*
X25290Y-09459D03*
X25890Y-09459D03*
G54D23*
X14200Y-33400D03*
X14200Y-32800D03*
X15200Y-33400D03*
X15200Y-32800D03*
G54D22*
X08764Y-09459D03*
X08164Y-09459D03*
X05500Y-09500D03*
X04900Y-09500D03*
X04900Y-07950D03*
X05500Y-07950D03*
X03750Y-08700D03*
X04350Y-08700D03*
X06983Y-09459D03*
X07583Y-09459D03*
G54D23*
X10200Y-33400D03*
X10200Y-32800D03*
X11200Y-33400D03*
X11200Y-32800D03*
X31275Y-13000D03*
X31275Y-12400D03*
X30475Y-12400D03*
X30475Y-13000D03*
X09200Y-33400D03*
X09200Y-32800D03*
G54D38*
X33850Y-25532D03*
X33850Y-23918D03*
G54D28*
X25037Y-15650D03*
X25863Y-15650D03*
G54D39*
X37475Y-10025D03*
G54D40*
X37475Y-08025D03*
G54D41*
X16748Y-05850D03*
X17498Y-05850D03*
G54D21*
X11673Y-05875D03*
X11673Y-05125D03*
G54D41*
X27182Y-05850D03*
X27932Y-05850D03*
G54D21*
X22107Y-05875D03*
X22107Y-05125D03*
G54D41*
X08875Y-05850D03*
X09625Y-05850D03*
G54D21*
X03800Y-05875D03*
X03800Y-05125D03*
G54D41*
X36675Y-22275D03*
X37425Y-22275D03*
G54D23*
X18475Y-31125D03*
X18475Y-30525D03*
G54D22*
X12500Y-30525D03*
X13100Y-30525D03*
G54D42*
X23050Y-16875D03*
X11075Y-14775D03*
X11950Y-14775D03*
X10225Y-14775D03*
X20850Y-20850D03*
X25950Y-16850D03*
X24400Y-16850D03*
X13550Y-14775D03*
X12750Y-14775D03*
X24800Y-24575D03*
X38775Y-20800D03*
X19375Y-21100D03*
X37775Y-21350D03*
X24800Y-23150D03*
G54D23*
X06875Y-17850D03*
X06875Y-17250D03*
X06000Y-17850D03*
X06000Y-17250D03*
G54D28*
X07725Y-17312D03*
X07725Y-18138D03*
X08775Y-17312D03*
X08775Y-18138D03*
G54D43*
X13550Y-21000D03*
G54D44*
X14050Y-21000D03*
X13550Y-21500D03*
X14050Y-21500D03*
X13550Y-22000D03*
X14050Y-22000D03*
X13550Y-22500D03*
X14050Y-22500D03*
X13550Y-23000D03*
X14050Y-23000D03*
G54D18*
X33300Y-33625D03*
X33300Y-32925D03*
X34100Y-33275D03*
X34825Y-33625D03*
X34825Y-32925D03*
X35625Y-33275D03*
X04325Y-35375D03*
X05025Y-35375D03*
X04675Y-36175D03*
X04325Y-36975D03*
X05025Y-36975D03*
X04675Y-37775D03*
X25550Y-28425D03*
X26250Y-28425D03*
X25900Y-29225D03*
X23950Y-28425D03*
X24650Y-28425D03*
X24300Y-29225D03*
X21625Y-28400D03*
X22325Y-28400D03*
X21975Y-29200D03*
G54D45*
X19700Y-06300D03*
G54D46*
X17153Y-30525D03*
X14397Y-30525D03*
X22722Y-11525D03*
X25478Y-11525D03*
G54D47*
X29625Y-35372D03*
X30625Y-35372D03*
X30625Y-31828D03*
X29625Y-31828D03*
X27625Y-35372D03*
X28625Y-35372D03*
X28625Y-31828D03*
X27625Y-31828D03*
X26625Y-31828D03*
X25625Y-31828D03*
X25625Y-35372D03*
X26625Y-35372D03*
X24625Y-31828D03*
X23625Y-31828D03*
X23625Y-35372D03*
X24625Y-35372D03*
X22600Y-31828D03*
X21600Y-31828D03*
X21600Y-35372D03*
X22600Y-35372D03*
G54D48*
X04636Y-05837D03*
X04892Y-05837D03*
X05147Y-05837D03*
X05403Y-05837D03*
X05659Y-05837D03*
X05915Y-05837D03*
X06171Y-05837D03*
X06427Y-05837D03*
X06683Y-05837D03*
X06939Y-05837D03*
X07195Y-05837D03*
X07451Y-05837D03*
X07707Y-05837D03*
X07962Y-05837D03*
X07962Y-03633D03*
X07707Y-03633D03*
X07451Y-03633D03*
X07195Y-03633D03*
X06939Y-03633D03*
X06683Y-03633D03*
X06427Y-03633D03*
X06171Y-03633D03*
X05915Y-03633D03*
X05659Y-03633D03*
X05403Y-03633D03*
X05147Y-03633D03*
X04892Y-03633D03*
X04636Y-03633D03*
G54D49*
X06299Y-04735D03*
G54D48*
X22943Y-05837D03*
X23199Y-05837D03*
X23454Y-05837D03*
X23710Y-05837D03*
X23966Y-05837D03*
X24222Y-05837D03*
X24478Y-05837D03*
X24734Y-05837D03*
X24990Y-05837D03*
X25246Y-05837D03*
X25502Y-05837D03*
X25758Y-05837D03*
X26014Y-05837D03*
X26269Y-05837D03*
X26269Y-03633D03*
X26014Y-03633D03*
X25758Y-03633D03*
X25502Y-03633D03*
X25246Y-03633D03*
X24990Y-03633D03*
X24734Y-03633D03*
X24478Y-03633D03*
X24222Y-03633D03*
X23966Y-03633D03*
X23710Y-03633D03*
X23454Y-03633D03*
X23199Y-03633D03*
X22943Y-03633D03*
G54D49*
X24606Y-04735D03*
G54D48*
X12509Y-05837D03*
X12765Y-05837D03*
X13020Y-05837D03*
X13276Y-05837D03*
X13532Y-05837D03*
X13788Y-05837D03*
X14044Y-05837D03*
X14300Y-05837D03*
X14556Y-05837D03*
X14812Y-05837D03*
X15068Y-05837D03*
X15324Y-05837D03*
X15580Y-05837D03*
X15835Y-05837D03*
X15835Y-03633D03*
X15580Y-03633D03*
X15324Y-03633D03*
X15068Y-03633D03*
X14812Y-03633D03*
X14556Y-03633D03*
X14300Y-03633D03*
X14044Y-03633D03*
X13788Y-03633D03*
X13532Y-03633D03*
X13276Y-03633D03*
X13020Y-03633D03*
X12765Y-03633D03*
X12509Y-03633D03*
G54D49*
X14172Y-04735D03*
G54D48*
X30817Y-05837D03*
X31073Y-05837D03*
X31328Y-05837D03*
X31584Y-05837D03*
X31840Y-05837D03*
X32096Y-05837D03*
X32352Y-05837D03*
X32608Y-05837D03*
X32864Y-05837D03*
X33120Y-05837D03*
X33376Y-05837D03*
X33632Y-05837D03*
X33888Y-05837D03*
X34143Y-05837D03*
X34143Y-03633D03*
X33888Y-03633D03*
X33632Y-03633D03*
X33376Y-03633D03*
X33120Y-03633D03*
X32864Y-03633D03*
X32608Y-03633D03*
X32352Y-03633D03*
X32096Y-03633D03*
X31840Y-03633D03*
X31584Y-03633D03*
X31328Y-03633D03*
X31073Y-03633D03*
X30817Y-03633D03*
G54D49*
X32480Y-04735D03*
M02*
