M48
;DRILL file {PCBnew (2011-05-25)-stable} date 2011-12-18T12:59:00 CET
;FORMAT={-:-/ absolute / metric / decimal}
FMAT,2
METRIC,TZ
T1C0.300
T2C0.650
T3C0.813
T4C1.016
T5C1.524
T6C1.999
T7C2.301
T8C3.000
%
G90
G05
M71
T1
X2.413Y-85.916
X3.556Y-26.480
X3.556Y-28.702
X4.445Y-44.196
X4.763Y-22.416
X6.477Y-90.043
X6.985Y-7.366
X7.239Y-18.034
X7.239Y-88.773
X7.303Y-27.750
X7.620Y-19.939
X7.620Y-50.800
X7.620Y-52.324
X8.382Y-30.099
X9.652Y-12.319
X9.906Y-53.721
X10.287Y-80.391
X10.541Y-24.130
X10.922Y-4.953
X11.303Y-53.721
X11.621Y-32.004
X12.101Y-10.907
X12.101Y-12.027
X12.101Y-13.147
X12.446Y-21.146
X12.446Y-53.721
X13.335Y-51.943
X13.462Y-98.298
X13.589Y-18.034
X13.589Y-50.292
X13.724Y-10.907
X13.724Y-12.027
X13.724Y-13.147
X13.780Y-93.916
X14.699Y-10.907
X14.699Y-12.027
X14.699Y-13.147
X15.999Y-10.907
X15.999Y-12.027
X15.999Y-13.147
X16.002Y-3.429
X16.320Y-23.114
X17.145Y-37.338
X17.272Y-92.329
X17.300Y-10.907
X17.300Y-12.027
X17.300Y-13.147
X17.780Y-19.304
X18.275Y-10.907
X18.275Y-12.027
X18.275Y-13.147
X18.288Y-18.415
X18.288Y-37.338
X18.288Y-82.550
X18.288Y-90.678
X19.177Y-17.526
X19.241Y-21.019
X19.431Y-37.338
X19.558Y-80.264
X19.558Y-85.725
X19.898Y-10.907
X19.898Y-12.027
X19.898Y-13.147
X20.066Y-5.842
X20.701Y-37.338
X20.765Y-25.273
X20.828Y-82.550
X20.828Y-88.519
X21.082Y-40.386
X21.844Y-5.842
X21.971Y-41.148
X22.098Y-37.338
X22.225Y-23.178
X22.225Y-90.678
X23.368Y-82.550
X23.368Y-90.678
X23.749Y-5.715
X24.575Y-27.750
X24.638Y-25.400
X24.892Y-9.271
X24.956Y-75.184
X25.146Y-14.859
X25.400Y-18.415
X25.400Y-28.766
X25.718Y-74.295
X25.908Y-82.550
X25.908Y-88.519
X26.480Y-73.470
X26.924Y-49.022
X26.924Y-52.070
X27.051Y-7.493
X27.305Y-18.034
X27.305Y-72.454
X27.623Y-66.421
X27.813Y-24.130
X28.448Y-82.550
X28.448Y-90.678
X28.702Y-40.132
X29.591Y-11.938
X29.845Y-40.132
X30.353Y-4.699
X30.988Y-82.550
X30.988Y-88.519
X31.369Y-24.130
X31.877Y-46.038
X31.941Y-41.402
X31.941Y-42.989
X31.941Y-44.514
X32.098Y-10.907
X32.098Y-12.027
X32.098Y-13.147
X32.385Y-21.209
X32.512Y-46.863
X32.703Y-40.577
X32.703Y-42.227
X32.703Y-43.752
X32.703Y-45.276
X33.465Y-67.374
X33.528Y-82.550
X33.528Y-90.678
X33.655Y-18.034
X33.721Y-10.907
X33.721Y-12.027
X33.721Y-13.147
X34.163Y-77.470
X34.227Y-47.562
X34.227Y-48.641
X34.417Y-62.103
X34.696Y-10.907
X34.696Y-12.027
X34.696Y-13.147
X35.997Y-10.907
X35.997Y-12.027
X35.997Y-13.147
X36.068Y-3.556
X36.068Y-82.550
X36.068Y-88.519
X36.132Y-68.580
X36.132Y-69.850
X36.132Y-71.374
X36.195Y-23.051
X36.894Y-66.104
X36.894Y-67.183
X37.297Y-10.907
X37.297Y-12.027
X37.297Y-13.147
X37.402Y-51.054
X37.465Y-19.177
X38.227Y-18.415
X38.273Y-10.907
X38.273Y-12.027
X38.273Y-13.147
X38.291Y-52.388
X38.608Y-82.550
X38.608Y-90.678
X38.989Y-46.927
X38.989Y-48.451
X39.243Y-17.145
X39.243Y-20.955
X39.434Y-39.370
X39.497Y-37.656
X39.896Y-10.907
X39.896Y-12.027
X39.896Y-13.147
X40.132Y-5.715
X40.767Y-26.924
X40.958Y-37.656
X40.958Y-39.434
X41.148Y-82.550
X41.148Y-88.519
X41.275Y-41.910
X41.275Y-46.863
X41.974Y-36.894
X42.164Y-49.594
X42.227Y-23.051
X42.291Y-5.715
X42.418Y-38.989
X43.434Y-49.594
X43.688Y-52.451
X43.688Y-82.550
X43.688Y-90.678
X43.752Y-66.612
X44.260Y-40.704
X44.260Y-42.037
X44.323Y-10.287
X44.450Y-13.716
X44.577Y-5.715
X44.641Y-54.610
X44.704Y-31.306
X44.831Y-25.400
X44.958Y-84.836
X45.212Y-52.451
X45.593Y-28.766
X45.720Y-79.184
X45.911Y-49.848
X46.355Y-18.415
X46.672Y-27.496
X46.736Y-52.769
X46.863Y-46.927
X47.689Y-57.341
X47.816Y-40.640
X47.816Y-42.037
X47.943Y-49.784
X48.006Y-37.592
X48.006Y-39.306
X48.705Y-67.374
X48.895Y-28.702
X48.959Y-55.245
X49.149Y-42.926
X49.403Y-31.877
X49.594Y-37.592
X50.229Y-28.702
X50.800Y-38.799
X50.864Y-33.211
X51.054Y-42.863
X51.054Y-46.927
X51.117Y-39.942
X51.117Y-48.451
X51.181Y-41.275
X51.308Y-28.258
X51.435Y-60.198
X51.626Y-76.772
X52.705Y-36.132
X53.467Y-7.620
X53.467Y-50.419
X53.594Y-18.034
X54.356Y-45.530
X54.483Y-24.130
X54.483Y-92.329
X54.610Y-29.655
X54.928Y-71.056
X55.562Y-46.482
X56.007Y-24.511
X56.134Y-12.192
X56.706Y-46.546
X56.706Y-76.517
X56.769Y-4.699
X56.833Y-43.561
X57.468Y-50.165
X57.658Y-93.853
X58.039Y-24.130
X58.600Y-10.907
X58.600Y-12.027
X58.600Y-13.147
X58.946Y-21.146
X60.071Y-46.038
X60.071Y-52.832
X60.198Y-18.034
X60.198Y-58.103
X60.223Y-10.907
X60.223Y-12.027
X60.223Y-13.147
X60.833Y-71.056
X61.199Y-10.907
X61.199Y-12.027
X61.199Y-13.147
X61.722Y-92.329
X62.484Y-3.683
X62.499Y-10.907
X62.499Y-12.027
X62.499Y-13.147
X62.548Y-76.517
X62.802Y-22.987
X63.800Y-10.907
X63.800Y-12.027
X63.800Y-13.147
X64.199Y-19.304
X64.262Y-58.801
X64.770Y-18.415
X64.775Y-10.907
X64.775Y-12.027
X64.775Y-13.147
X64.897Y-71.056
X65.278Y-62.421
X65.596Y-17.526
X65.659Y-92.329
X65.786Y-21.019
X66.358Y-5.715
X66.398Y-10.907
X66.398Y-12.027
X66.398Y-13.147
X66.484Y-52.515
X66.802Y-50.737
X67.246Y-51.689
X67.627Y-90.996
X67.691Y-29.528
X67.691Y-42.227
X67.882Y-76.517
X68.453Y-5.715
X68.580Y-25.718
X68.580Y-27.750
X68.580Y-35.242
X68.644Y-41.085
X68.760Y-23.051
X69.406Y-94.996
X69.596Y-60.071
X69.596Y-66.865
X69.977Y-5.715
X70.866Y-10.287
X70.866Y-13.462
X70.930Y-25.400
X72.771Y-18.415
X73.406Y-7.684
X73.660Y-60.071
X74.105Y-18.034
X74.740Y-24.130
X74.930Y-94.996
X75.184Y-77.660
X75.248Y-75.248
X75.374Y-61.151
X76.136Y-12.129
X76.772Y-4.636
X78.105Y-24.130
X78.359Y-30.734
X78.486Y-59.246
X78.486Y-62.421
X78.600Y-10.907
X78.600Y-12.027
X78.600Y-13.147
X78.931Y-47.244
X78.946Y-21.146
X78.994Y-54.039
X79.629Y-99.060
X80.223Y-10.907
X80.223Y-12.027
X80.223Y-13.147
X80.264Y-18.034
X81.199Y-10.907
X81.199Y-12.027
X81.199Y-13.147
X82.360Y-3.620
X82.499Y-10.907
X82.499Y-12.027
X82.499Y-13.147
X82.804Y-23.051
X83.800Y-10.907
X83.800Y-12.027
X83.800Y-13.147
X83.884Y-19.177
X84.074Y-86.614
X84.709Y-18.415
X84.775Y-10.907
X84.775Y-12.027
X84.775Y-13.147
X85.662Y-17.018
X85.788Y-21.082
X86.233Y-26.226
X86.360Y-5.715
X86.398Y-10.907
X86.398Y-12.027
X86.398Y-13.147
X87.757Y-86.360
X87.821Y-87.965
X88.138Y-5.715
X88.646Y-12.002
X88.646Y-62.040
X88.760Y-22.987
X89.726Y-41.402
X89.853Y-5.779
X89.916Y-64.580
X90.932Y-25.400
X91.504Y-86.043
X92.075Y-18.415
X93.091Y-51.689
X93.091Y-64.580
X93.154Y-57.722
X93.218Y-3.683
X93.218Y-60.897
X95.250Y-63.310
T2
X34.417Y-53.340
X34.417Y-54.610
X34.417Y-55.880
X34.417Y-57.150
X34.417Y-58.420
X35.687Y-53.340
X35.687Y-54.610
X35.687Y-55.880
X35.687Y-57.150
X35.687Y-58.420
T3
X7.145Y-69.469
X7.145Y-72.009
X9.144Y-69.469
X9.144Y-72.009
X14.732Y-78.613
X14.732Y-81.153
X14.732Y-83.693
X14.732Y-86.233
X45.911Y-56.071
X45.911Y-58.611
X85.535Y-54.229
X90.615Y-54.229
T4
X4.064Y-36.767
X4.064Y-39.306
X6.604Y-36.767
X6.604Y-39.306
X9.144Y-36.767
X9.144Y-39.306
X11.176Y-1.778
X13.716Y-1.778
X15.748Y-94.996
X15.748Y-97.536
X16.256Y-1.778
X18.288Y-94.996
X18.288Y-97.536
X18.796Y-1.778
X20.828Y-94.996
X20.828Y-97.536
X23.368Y-94.996
X23.368Y-97.536
X25.908Y-94.996
X25.908Y-97.536
X28.448Y-94.996
X28.448Y-97.536
X30.988Y-94.996
X30.988Y-97.536
X31.173Y-1.778
X33.528Y-94.996
X33.528Y-97.536
X33.713Y-1.778
X36.068Y-94.996
X36.068Y-97.536
X36.253Y-1.778
X38.608Y-94.996
X38.608Y-97.536
X38.793Y-1.778
X39.688Y-56.706
X39.688Y-59.246
X39.688Y-61.786
X39.688Y-64.326
X39.688Y-66.865
X39.688Y-69.406
X41.148Y-94.996
X41.148Y-97.536
X43.688Y-94.996
X43.688Y-97.536
X48.768Y-18.542
X51.308Y-18.542
X54.031Y-97.498
X56.571Y-97.498
X57.676Y-1.778
X59.111Y-97.498
X60.216Y-1.778
X61.651Y-97.498
X62.756Y-1.778
X64.191Y-97.498
X65.296Y-1.778
X66.731Y-97.498
X72.611Y-97.498
X75.151Y-97.498
X77.676Y-1.778
X78.867Y-36.068
X78.867Y-38.608
X80.216Y-1.778
X82.756Y-1.778
X85.296Y-1.778
X86.550Y-94.933
X86.550Y-97.473
X89.091Y-94.933
X89.091Y-97.473
X92.583Y-68.644
X92.583Y-71.184
X92.583Y-73.724
X92.583Y-76.264
X92.583Y-78.803
X95.123Y-68.644
X95.123Y-71.184
X95.123Y-73.724
X95.123Y-76.264
X95.123Y-78.803
T5
X95.187Y-20.384
X95.187Y-25.463
T6
X50.038Y-16.002
T7
X4.445Y-64.740
X4.445Y-76.738
T8
X3.500Y-12.027
X3.500Y-96.502
X50.000Y-12.027
X96.500Y-12.027
X96.500Y-96.502
T0
M30
