G04 (created by PCBNEW-RS274X (2011-05-25)-stable) date 2011-12-18T13:02:58 CET*
G01*
G70*
G90*
%MOIN*%
G04 Gerber Fmt 3.4, Leading zero omitted, Abs format*
%FSLAX34Y34*%
G04 APERTURE LIST*
%ADD10C,0.006000*%
%ADD11C,0.015000*%
%ADD12C,0.080000*%
%ADD13C,0.126300*%
%ADD14R,0.100000X0.080000*%
%ADD15R,0.065000X0.045000*%
%ADD16R,0.045000X0.065000*%
%ADD17C,0.075000*%
%ADD18C,0.070000*%
%ADD19R,0.080000X0.080000*%
%ADD20R,0.095000X0.095000*%
%ADD21C,0.095000*%
%ADD22C,0.256200*%
%ADD23R,0.120000X0.120000*%
%ADD24C,0.120000*%
%ADD25R,0.059400X0.059400*%
%ADD26C,0.059400*%
%ADD27R,0.079100X0.051500*%
%ADD28R,0.075100X0.090900*%
%ADD29R,0.094800X0.075100*%
%ADD30C,0.098700*%
%ADD31C,0.010000*%
G04 APERTURE END LIST*
G54D10*
G54D11*
X39375Y-01325D02*
X39375Y-37975D01*
X01400Y00000D02*
X38100Y00000D01*
X00000Y-37925D02*
X00000Y-01325D01*
X38075Y-39375D02*
X01275Y-39375D01*
X01375Y-00001D02*
X01259Y-00004D01*
X01142Y-00017D01*
X01026Y-00040D01*
X00913Y-00073D01*
X00804Y-00116D01*
X00698Y-00169D01*
X00598Y-00230D01*
X00503Y-00300D01*
X00414Y-00378D01*
X00333Y-00463D01*
X00260Y-00555D01*
X00195Y-00653D01*
X00138Y-00757D01*
X00091Y-00865D01*
X00053Y-00976D01*
X00026Y-01091D01*
X00008Y-01207D01*
X00001Y-01325D01*
X00001Y-37950D02*
X-00001Y-38067D01*
X00008Y-38185D01*
X00027Y-38301D01*
X00056Y-38415D01*
X00095Y-38527D01*
X00144Y-38634D01*
X00201Y-38737D01*
X00268Y-38834D01*
X00343Y-38926D01*
X00425Y-39010D01*
X00514Y-39087D01*
X00610Y-39156D01*
X00712Y-39216D01*
X00818Y-39267D01*
X00928Y-39309D01*
X01042Y-39341D01*
X01158Y-39363D01*
X01275Y-39374D01*
X38074Y-39374D02*
X38191Y-39364D01*
X38307Y-39345D01*
X38421Y-39315D01*
X38532Y-39275D01*
X38639Y-39226D01*
X38742Y-39168D01*
X38839Y-39101D01*
X38930Y-39026D01*
X39013Y-38943D01*
X39090Y-38854D01*
X39158Y-38758D01*
X39218Y-38656D01*
X39268Y-38550D01*
X39309Y-38439D01*
X39340Y-38326D01*
X39362Y-38210D01*
X39373Y-38093D01*
X39374Y-37976D01*
X39374Y-01324D02*
X39371Y-01212D01*
X39359Y-01099D01*
X39336Y-00988D01*
X39304Y-00879D01*
X39263Y-00774D01*
X39213Y-00672D01*
X39154Y-00575D01*
X39086Y-00484D01*
X39011Y-00399D01*
X38929Y-00321D01*
X38840Y-00250D01*
X38746Y-00187D01*
X38646Y-00133D01*
X38542Y-00088D01*
X38435Y-00051D01*
X38325Y-00025D01*
X38213Y-00008D01*
X38099Y-00001D01*
G54D12*
X03600Y-28350D03*
X03600Y-27350D03*
X02813Y-27350D03*
X02813Y-28350D03*
G54D13*
X01750Y-30212D03*
X01750Y-25488D03*
G54D14*
X36650Y-23525D03*
X36650Y-24825D03*
G54D15*
X03350Y-20000D03*
X03350Y-20600D03*
X04900Y-19850D03*
X04900Y-20450D03*
X19775Y-16275D03*
X19775Y-16875D03*
X19775Y-19075D03*
X19775Y-18475D03*
G54D16*
X16125Y-15175D03*
X15525Y-15175D03*
G54D15*
X18875Y-19075D03*
X18875Y-18475D03*
G54D17*
X05800Y-31950D03*
X05800Y-30950D03*
X05800Y-33950D03*
X05800Y-32950D03*
G54D18*
X18075Y-23075D03*
X18075Y-22075D03*
G54D19*
X36450Y-27025D03*
G54D12*
X37450Y-27025D03*
X36450Y-28025D03*
X37450Y-28025D03*
X36450Y-29025D03*
X37450Y-29025D03*
X36450Y-30025D03*
X37450Y-30025D03*
X36450Y-31025D03*
X37450Y-31025D03*
G54D19*
X01600Y-15475D03*
G54D12*
X01600Y-14475D03*
X02600Y-15475D03*
X02600Y-14475D03*
X03600Y-15475D03*
X03600Y-14475D03*
G54D19*
X14200Y-38400D03*
G54D12*
X14200Y-37400D03*
G54D19*
X16200Y-38400D03*
G54D12*
X16200Y-37400D03*
G54D19*
X35075Y-38375D03*
G54D12*
X35075Y-37375D03*
G54D19*
X34075Y-38375D03*
G54D12*
X34075Y-37375D03*
G54D19*
X19200Y-07300D03*
G54D12*
X20200Y-07300D03*
G54D19*
X08200Y-38400D03*
G54D12*
X08200Y-37400D03*
G54D19*
X07200Y-38400D03*
G54D12*
X07200Y-37400D03*
G54D19*
X06200Y-38400D03*
G54D12*
X06200Y-37400D03*
G54D19*
X29587Y-38385D03*
G54D12*
X28587Y-38385D03*
G54D19*
X17200Y-38400D03*
G54D12*
X17200Y-37400D03*
G54D19*
X12200Y-38400D03*
G54D12*
X12200Y-37400D03*
G54D19*
X13200Y-38400D03*
G54D12*
X13200Y-37400D03*
G54D19*
X09200Y-38400D03*
G54D12*
X09200Y-37400D03*
G54D19*
X31050Y-14200D03*
G54D12*
X31050Y-15200D03*
G54D19*
X11200Y-38400D03*
G54D12*
X11200Y-37400D03*
G54D19*
X10200Y-38400D03*
G54D12*
X10200Y-37400D03*
G54D19*
X15200Y-38400D03*
G54D12*
X15200Y-37400D03*
G54D19*
X21272Y-38385D03*
G54D12*
X22272Y-38385D03*
X23272Y-38385D03*
X24272Y-38385D03*
X25272Y-38385D03*
X26272Y-38385D03*
G54D19*
X15625Y-27325D03*
G54D12*
X15625Y-26325D03*
X15625Y-25325D03*
X15625Y-24325D03*
X15625Y-23325D03*
X15625Y-22325D03*
G54D20*
X35675Y-21350D03*
G54D21*
X33675Y-21350D03*
G54D22*
X01378Y-04735D03*
X37992Y-37993D03*
X01378Y-37993D03*
X37992Y-04735D03*
X19685Y-04735D03*
G54D19*
X30581Y-00700D03*
G54D12*
X31581Y-00700D03*
X32581Y-00700D03*
X33581Y-00700D03*
G54D19*
X12273Y-00700D03*
G54D12*
X13273Y-00700D03*
X14273Y-00700D03*
X15273Y-00700D03*
G54D19*
X22707Y-00700D03*
G54D12*
X23707Y-00700D03*
X24707Y-00700D03*
X25707Y-00700D03*
G54D19*
X04400Y-00700D03*
G54D12*
X05400Y-00700D03*
X06400Y-00700D03*
X07400Y-00700D03*
G54D15*
X30900Y-23650D03*
X30900Y-24250D03*
X35400Y-24425D03*
X35400Y-25025D03*
G54D16*
X31900Y-23350D03*
X32500Y-23350D03*
X32500Y-24550D03*
X31900Y-24550D03*
G54D23*
X37475Y-10025D03*
G54D24*
X37475Y-08025D03*
G54D15*
X15700Y-18475D03*
X15700Y-19075D03*
G54D16*
X19500Y-15150D03*
X18900Y-15150D03*
X17250Y-19300D03*
X17850Y-19300D03*
G54D25*
X13550Y-21000D03*
G54D26*
X14050Y-21000D03*
X13550Y-21500D03*
X14050Y-21500D03*
X13550Y-22000D03*
X14050Y-22000D03*
X13550Y-22500D03*
X14050Y-22500D03*
X13550Y-23000D03*
X14050Y-23000D03*
G54D27*
X02150Y-09997D03*
X02308Y-10411D03*
X02170Y-10844D03*
X02072Y-11296D03*
X02178Y-11730D03*
X02072Y-12163D03*
X02178Y-12596D03*
X02178Y-13068D03*
G54D28*
X06127Y-10450D03*
X06127Y-12714D03*
G54D29*
X00581Y-08141D03*
X00952Y-13381D03*
G54D30*
X19700Y-06300D03*
G54D10*
G36*
X00275Y-06725D02*
X39100Y-06700D01*
X39100Y-02775D01*
X00275Y-02775D01*
X00275Y-06725D01*
X00275Y-06725D01*
G37*
G54D31*
X00275Y-06725D02*
X39100Y-06700D01*
X39100Y-02775D01*
X00275Y-02775D01*
X00275Y-06725D01*
M02*
