M48
;DRILL file {KiCad no-vcs-found-product} date Tue 29 Sep 2015 08:21:08 PM CEST
;FORMAT={-:-/ absolute / inch / decimal}
FMAT,2
INCH,TZ
T1C0.012
T2C0.026
T3C0.032
T4C0.032
T5C0.040
T6C0.079
T7C0.091
T8C0.118
%
G90
G05
M72
T1
X0.0625Y-3.5825
X0.095Y-3.3825
X0.1325Y-0.95
X0.1425Y-1.1275
X0.175Y-1.74
X0.2205Y-0.4173
X0.255Y-3.545
X0.285Y-0.8045
X0.285Y-3.495
X0.3Y-0.8795
X0.3Y-2.
X0.3Y-2.06
X0.335Y-1.1925
X0.38Y-0.5795
X0.3875Y-1.3275
X0.39Y-2.115
X0.4Y-1.1875
X0.405Y-3.165
X0.4055Y-0.3268
X0.415Y-1.045
X0.445Y-2.115
X0.4575Y-1.26
X0.4764Y-0.5239
X0.4764Y-0.568
X0.4764Y-0.6121
X0.49Y-0.927
X0.49Y-2.115
X0.515Y-1.405
X0.525Y-2.045
X0.53Y-3.87
X0.535Y-0.8045
X0.535Y-1.98
X0.5403Y-0.5239
X0.5403Y-0.568
X0.5403Y-0.6121
X0.5425Y-3.6975
X0.5787Y-0.5239
X0.5787Y-0.568
X0.5787Y-0.6121
X0.6299Y-0.5239
X0.6299Y-0.568
X0.6299Y-0.6121
X0.63Y-0.235
X0.6325Y-0.955
X0.675Y-1.47
X0.68Y-3.635
X0.6811Y-0.5239
X0.6811Y-0.568
X0.6811Y-0.6121
X0.698Y-2.4575
X0.7Y-0.8545
X0.7195Y-0.5239
X0.7195Y-0.568
X0.7195Y-0.6121
X0.72Y-0.8195
X0.72Y-1.47
X0.72Y-3.25
X0.72Y-3.57
X0.755Y-0.7845
X0.7575Y-0.922
X0.765Y-1.47
X0.77Y-3.16
X0.77Y-3.375
X0.7834Y-0.5239
X0.7834Y-0.568
X0.7834Y-0.6121
X0.79Y-0.3245
X0.8025Y-1.58
X0.815Y-1.47
X0.8175Y-1.0895
X0.82Y-3.25
X0.82Y-3.485
X0.86Y-0.3245
X0.87Y-1.47
X0.875Y-1.007
X0.875Y-3.57
X0.9175Y-1.4725
X0.9175Y-1.52
X0.92Y-3.25
X0.92Y-3.57
X0.935Y-0.3195
X0.935Y-2.055
X0.935Y-2.105
X0.9675Y-1.187
X0.97Y-1.0945
X0.98Y-0.4595
X0.9825Y-2.96
X0.99Y-0.6795
X0.9975Y-1.2175
X1.Y-0.8195
X1.0125Y-2.925
X1.02Y-3.25
X1.02Y-3.485
X1.0425Y-1.5825
X1.0425Y-2.8425
X1.0425Y-2.8925
X1.065Y-0.3895
X1.0675Y-3.085
X1.075Y-0.8045
X1.085Y-1.5825
X1.0875Y-2.5375
X1.0875Y-2.5775
X1.0875Y-2.62
X1.0875Y-2.6675
X1.095Y-1.0445
X1.12Y-3.25
X1.12Y-3.57
X1.1275Y-1.5825
X1.165Y-0.5645
X1.1725Y-1.5825
X1.195Y-0.2795
X1.22Y-3.25
X1.22Y-3.485
X1.235Y-1.0445
X1.255Y-1.8125
X1.2575Y-1.63
X1.2575Y-1.6925
X1.2575Y-1.7525
X1.2637Y-0.5239
X1.2637Y-0.568
X1.2637Y-0.6121
X1.275Y-0.9295
X1.28Y-1.845
X1.2875Y-1.5975
X1.2875Y-1.6625
X1.2875Y-1.7225
X1.2875Y-1.7825
X1.32Y-3.25
X1.32Y-3.57
X1.325Y-0.8045
X1.3276Y-0.5239
X1.3276Y-0.568
X1.3276Y-0.6121
X1.34Y-2.5775
X1.345Y-3.05
X1.3475Y-1.8725
X1.3475Y-1.915
X1.355Y-2.445
X1.3625Y-2.96
X1.366Y-0.5239
X1.366Y-0.568
X1.366Y-0.6121
X1.3725Y-2.61
X1.395Y-2.655
X1.4172Y-0.5239
X1.4172Y-0.568
X1.4172Y-0.6121
X1.42Y-0.2345
X1.42Y-3.25
X1.42Y-3.485
X1.4225Y-2.7
X1.4225Y-2.75
X1.4225Y-2.81
X1.425Y-1.002
X1.4525Y-2.6025
X1.4525Y-2.645
X1.4684Y-0.5239
X1.4684Y-0.568
X1.4684Y-0.6121
X1.4725Y-2.01
X1.475Y-0.8495
X1.505Y-0.8195
X1.5068Y-0.5239
X1.5068Y-0.568
X1.5068Y-0.6121
X1.5075Y-2.0625
X1.52Y-3.25
X1.52Y-3.57
X1.535Y-1.8475
X1.535Y-1.9075
X1.545Y-0.7695
X1.545Y-0.9195
X1.5525Y-1.55
X1.555Y-1.4825
X1.5707Y-0.5239
X1.5707Y-0.568
X1.5707Y-0.6121
X1.58Y-0.3195
X1.605Y-1.08
X1.6125Y-1.4825
X1.6125Y-1.5525
X1.62Y-3.25
X1.62Y-3.485
X1.625Y-1.65
X1.625Y-1.845
X1.6525Y-1.4525
X1.66Y-1.9525
X1.6625Y-1.002
X1.665Y-0.3195
X1.67Y-1.535
X1.71Y-1.9525
X1.72Y-2.065
X1.72Y-3.25
X1.72Y-3.57
X1.7225Y-2.6225
X1.74Y-1.0125
X1.74Y-1.2825
X1.7425Y-1.6025
X1.7425Y-1.655
X1.745Y-0.4995
X1.745Y-2.935
X1.745Y-2.9775
X1.7475Y-2.885
X1.75Y-0.6345
X1.755Y-0.3195
X1.7575Y-2.15
X1.7675Y-1.1275
X1.78Y-2.065
X1.78Y-3.115
X1.78Y-3.3425
X1.8075Y-1.9625
X1.8175Y-0.9225
X1.82Y-3.63
X1.825Y-0.8195
X1.825Y-1.0975
X1.83Y-3.165
X1.835Y-1.2075
X1.84Y-2.0775
X1.845Y-1.8475
X1.8775Y-2.2575
X1.8825Y-1.6
X1.8825Y-1.655
X1.8875Y-1.96
X1.89Y-1.48
X1.89Y-1.5475
X1.895Y-2.9175
X1.9125Y-2.6525
X1.9275Y-2.175
X1.935Y-1.69
X1.9375Y-2.11
X1.945Y-1.255
X1.9525Y-1.48
X1.96Y-1.1325
X1.98Y-2.6825
X2.Y-1.5275
X2.0075Y-1.3025
X2.01Y-1.6875
X2.01Y-1.8475
X2.0125Y-1.5725
X2.0125Y-1.9075
X2.015Y-1.625
X2.02Y-1.13
X2.025Y-2.37
X2.035Y-3.6775
X2.1025Y-0.9225
X2.105Y-0.3945
X2.105Y-1.985
X2.11Y-0.8045
X2.11Y-1.165
X2.12Y-2.87
X2.14Y-1.7925
X2.14Y-2.1075
X2.145Y-1.0445
X2.155Y-1.3575
X2.1675Y-2.93
X2.1875Y-1.83
X2.21Y-0.5745
X2.2325Y-1.8325
X2.235Y-0.2795
X2.245Y-2.6825
X2.2525Y-2.8675
X2.285Y-1.0445
X2.3071Y-0.5239
X2.3071Y-0.568
X2.3071Y-0.6121
X2.32Y-3.0075
X2.3207Y-0.927
X2.3425Y-1.1625
X2.365Y-3.0075
X2.37Y-0.8045
X2.371Y-0.5239
X2.371Y-0.568
X2.371Y-0.6121
X2.3775Y-2.4475
X2.4094Y-0.5239
X2.4094Y-0.568
X2.4094Y-0.6121
X2.42Y-3.205
X2.45Y-3.5125
X2.46Y-0.2395
X2.4606Y-0.5239
X2.4606Y-0.568
X2.4606Y-0.6121
X2.4625Y-2.575
X2.4725Y-0.9995
X2.4775Y-1.1625
X2.48Y-1.085
X2.4875Y-2.6925
X2.5118Y-0.5239
X2.5118Y-0.568
X2.5118Y-0.6121
X2.5275Y-0.8545
X2.53Y-2.4825
X2.53Y-2.6325
X2.53Y-2.95
X2.54Y-1.7125
X2.55Y-0.8195
X2.5502Y-0.5239
X2.5502Y-0.568
X2.5502Y-0.6121
X2.5675Y-2.575
X2.58Y-3.33
X2.58Y-3.595
X2.5825Y-0.7845
X2.5875Y-1.83
X2.59Y-0.922
X2.5925Y-3.2175
X2.6125Y-0.3195
X2.6141Y-0.5239
X2.6141Y-0.568
X2.6141Y-0.6121
X2.6175Y-2.0675
X2.62Y-1.16
X2.63Y-1.9975
X2.6475Y-2.035
X2.6625Y-2.4475
X2.665Y-1.7925
X2.6725Y-1.16
X2.6725Y-1.48
X2.685Y-3.245
X2.695Y-0.3195
X2.7Y-1.095
X2.7Y-2.9525
X2.7025Y-1.6925
X2.7071Y-1.002
X2.755Y-0.3195
X2.765Y-1.565
X2.77Y-2.9525
X2.785Y-2.8825
X2.79Y-0.4995
X2.79Y-0.6245
X2.7925Y-1.0945
X2.8125Y-2.8325
X2.84Y-2.68
X2.84Y-2.7225
X2.84Y-2.765
X2.855Y-3.7225
X2.865Y-0.8195
X2.875Y-3.2925
X2.8825Y-1.1525
X2.89Y-0.397
X2.9075Y-1.42
X2.9175Y-0.8045
X2.92Y-2.
X2.9425Y-1.0445
X2.9725Y-2.095
X2.995Y-1.0025
X2.9975Y-0.572
X3.0075Y-1.86
X3.0225Y-0.277
X3.025Y-1.1625
X3.075Y-1.0445
X3.075Y-1.1625
X3.0865Y-1.327
X3.0915Y-2.4495
X3.0915Y-2.5745
X3.0945Y-0.5239
X3.0945Y-0.568
X3.0945Y-0.6121
X3.1081Y-0.927
X3.1115Y-2.2445
X3.1375Y-1.48
X3.1375Y-1.6025
X3.14Y-1.7325
X3.1584Y-0.5239
X3.1584Y-0.568
X3.1584Y-0.6121
X3.16Y-0.8045
X3.1968Y-0.5239
X3.1968Y-0.568
X3.1968Y-0.6121
X3.2125Y-1.0025
X3.2425Y-0.237
X3.248Y-0.5239
X3.248Y-0.568
X3.248Y-0.6121
X3.26Y-1.002
X3.2992Y-0.5239
X3.2992Y-0.568
X3.2992Y-0.6121
X3.3025Y-0.8495
X3.32Y-3.395
X3.33Y-3.73
X3.335Y-0.8195
X3.3376Y-0.5239
X3.3376Y-0.568
X3.3376Y-0.6121
X3.345Y-3.61
X3.365Y-3.015
X3.365Y-3.215
X3.365Y-3.445
X3.3725Y-0.7645
X3.3775Y-0.9245
X3.4Y-0.3195
X3.4015Y-0.5239
X3.4015Y-0.568
X3.4015Y-0.6121
X3.445Y-3.78
X3.47Y-0.3195
X3.49Y-0.567
X3.4915Y-2.5595
X3.4945Y-0.9995
X3.5375Y-0.322
X3.5415Y-2.6595
X3.57Y-3.52
X3.58Y-1.0945
X3.5925Y-0.8075
X3.62Y-3.445
X3.6425Y-1.49
X3.669Y-2.3895
X3.6715Y-2.5145
X3.7515Y-2.6095
T2
X1.355Y-2.1
X1.355Y-2.15
X1.355Y-2.2
X1.355Y-2.25
X1.355Y-2.3
X1.405Y-2.1
X1.405Y-2.15
X1.405Y-2.2
X1.405Y-2.25
X1.405Y-2.3
T3
X3.5825Y-0.115
X3.5845Y-0.1881
X3.6428Y-1.3828
X3.6665Y-2.6595
X3.67Y-0.115
X3.67Y-0.2025
X3.67Y-0.2875
X3.7403Y-2.2133
X3.7525Y-0.115
X3.7525Y-0.2025
X3.7525Y-0.29
X3.835Y-0.2025
X3.8375Y-0.115
X3.8375Y-0.285
T4
X0.2813Y-2.735
X0.2813Y-2.835
X0.36Y-2.735
X0.36Y-2.835
X0.58Y-3.095
X0.58Y-3.195
X0.58Y-3.295
X0.58Y-3.395
X1.8075Y-2.2075
X1.8075Y-2.3075
X3.369Y-2.252
X3.569Y-2.252
T5
X0.16Y-1.4475
X0.16Y-1.5475
X0.26Y-1.4475
X0.26Y-1.5475
X0.36Y-1.4475
X0.36Y-1.5475
X0.4435Y-0.114
X0.5435Y-0.114
X0.62Y-3.74
X0.62Y-3.84
X0.6435Y-0.114
X0.72Y-3.74
X0.72Y-3.84
X0.7435Y-0.114
X0.82Y-3.74
X0.82Y-3.84
X0.92Y-3.74
X0.92Y-3.84
X1.02Y-3.74
X1.02Y-3.84
X1.12Y-3.74
X1.12Y-3.84
X1.22Y-3.74
X1.22Y-3.84
X1.2319Y-0.1142
X1.32Y-3.74
X1.32Y-3.84
X1.3319Y-0.1142
X1.42Y-3.74
X1.42Y-3.84
X1.4319Y-0.1142
X1.52Y-3.74
X1.52Y-3.84
X1.5319Y-0.1142
X1.5625Y-2.2325
X1.5625Y-2.3325
X1.5625Y-2.4325
X1.5625Y-2.5325
X1.5625Y-2.6325
X1.5625Y-2.7325
X1.62Y-3.74
X1.62Y-3.84
X1.72Y-3.74
X1.72Y-3.84
X1.82Y-3.74
X1.82Y-3.84
X1.92Y-0.8245
X1.92Y-3.74
X1.92Y-3.84
X2.02Y-0.8245
X2.02Y-3.74
X2.02Y-3.84
X2.12Y-3.74
X2.12Y-3.84
X2.22Y-3.74
X2.22Y-3.84
X2.2707Y-0.1145
X2.32Y-3.74
X2.32Y-3.84
X2.3707Y-0.1145
X2.42Y-3.74
X2.42Y-3.84
X2.4707Y-0.1145
X2.52Y-3.74
X2.52Y-3.84
X2.5707Y-0.1145
X3.0581Y-0.1145
X3.1375Y-2.13
X3.1581Y-0.1145
X3.2225Y-1.215
X3.2375Y-2.13
X3.2581Y-0.1145
X3.3225Y-1.215
X3.3581Y-0.1145
X3.4225Y-1.215
X3.815Y-2.98
X3.815Y-3.08
X3.815Y-3.205
X3.815Y-3.305
X3.815Y-3.405
X3.815Y-3.505
X3.815Y-3.605
X3.821Y-0.7775
X3.821Y-0.8775
X3.821Y-0.9775
X3.821Y-1.0775
X3.821Y-1.1775
X3.821Y-1.2775
T6
X1.97Y-0.7245
T7
X0.175Y-2.5488
X0.175Y-3.0212
T8
X0.1378Y-0.568
X0.1378Y-3.7993
X1.9685Y-0.568
X3.7992Y-0.568
X3.7992Y-3.7993
T0
M30
