G04 #@! TF.FileFunction,Legend,Bot*
%FSLAX46Y46*%
G04 Gerber Fmt 4.6, Leading zero omitted, Abs format (unit mm)*
G04 Created by KiCad (PCBNEW no-vcs-found-product) date Tue 29 Sep 2015 08:38:25 PM CEST*
%MOMM*%
G01*
G04 APERTURE LIST*
%ADD10C,0.150000*%
%ADD11C,0.381000*%
%ADD12C,0.127000*%
%ADD13C,0.114300*%
%ADD14R,2.032000X2.032000*%
%ADD15C,2.032000*%
%ADD16R,2.009140X1.308100*%
%ADD17R,1.907540X2.308860*%
%ADD18R,2.407920X1.907540*%
%ADD19R,1.508760X1.508760*%
%ADD20C,1.508760*%
%ADD21R,1.143000X1.651000*%
%ADD22R,1.651000X1.143000*%
%ADD23C,6.507480*%
%ADD24R,2.413000X2.413000*%
%ADD25C,2.413000*%
%ADD26C,1.778000*%
%ADD27C,1.905000*%
%ADD28R,2.540000X2.032000*%
%ADD29C,3.208020*%
%ADD30C,2.506980*%
%ADD31O,3.556000X2.032000*%
%ADD32O,2.032000X3.556000*%
%ADD33C,0.254000*%
G04 APERTURE END LIST*
D10*
D11*
X100012500Y-3365500D02*
X100012500Y-96456500D01*
X3556000Y0D02*
X96774000Y0D01*
X0Y-96329500D02*
X0Y-3365500D01*
X96710500Y-100012500D02*
X3238500Y-100012500D01*
X3492500Y0D02*
G75*
G03X0Y-3365500I-63500J-3429000D01*
G01*
X0Y-96393000D02*
G75*
G03X3238500Y-100012500I3429000J-190500D01*
G01*
X96710500Y-100012500D02*
G75*
G03X100012500Y-96456500I-127000J3429000D01*
G01*
X100012500Y-3365500D02*
G75*
G03X96774000Y0I-3302000J63500D01*
G01*
X414020Y-34795460D02*
X414020Y-19895820D01*
X16413480Y-19895820D02*
X16512540Y-19895820D01*
X16512540Y-19895820D02*
X16512540Y-20096480D01*
X414020Y-19895820D02*
X16413480Y-19895820D01*
X16512540Y-34798000D02*
X16512540Y-20096480D01*
X414020Y-34795460D02*
X16512540Y-34795460D01*
D12*
X43434000Y-49657000D02*
X45720000Y-49657000D01*
X45720000Y-49657000D02*
X45720000Y-48387000D01*
X45720000Y-48387000D02*
X43434000Y-48387000D01*
X43434000Y-48387000D02*
X43434000Y-49657000D01*
X49911000Y-37846000D02*
X47625000Y-37846000D01*
X47625000Y-37846000D02*
X47625000Y-39116000D01*
X47625000Y-39116000D02*
X49911000Y-39116000D01*
X49911000Y-39116000D02*
X49911000Y-37846000D01*
X39243000Y-46545500D02*
X39243000Y-48831500D01*
X39243000Y-48831500D02*
X40513000Y-48831500D01*
X40513000Y-48831500D02*
X40513000Y-46545500D01*
X40513000Y-46545500D02*
X39243000Y-46545500D01*
X82969100Y-64693800D02*
X80683100Y-64693800D01*
X80683100Y-64693800D02*
X80683100Y-65963800D01*
X80683100Y-65963800D02*
X82969100Y-65963800D01*
X82969100Y-65963800D02*
X82969100Y-64693800D01*
X80683100Y-62915800D02*
X82969100Y-62915800D01*
X82969100Y-62915800D02*
X82969100Y-61645800D01*
X82969100Y-61645800D02*
X80683100Y-61645800D01*
X80683100Y-61645800D02*
X80683100Y-62915800D01*
X62103000Y-29400500D02*
X59817000Y-29400500D01*
X59817000Y-29400500D02*
X59817000Y-30670500D01*
X59817000Y-30670500D02*
X62103000Y-30670500D01*
X62103000Y-30670500D02*
X62103000Y-29400500D01*
X89319100Y-64630300D02*
X89319100Y-66916300D01*
X89319100Y-66916300D02*
X90589100Y-66916300D01*
X90589100Y-66916300D02*
X90589100Y-64630300D01*
X90589100Y-64630300D02*
X89319100Y-64630300D01*
X77889100Y-62661800D02*
X77889100Y-64947800D01*
X77889100Y-64947800D02*
X79159100Y-64947800D01*
X79159100Y-64947800D02*
X79159100Y-62661800D01*
X79159100Y-62661800D02*
X77889100Y-62661800D01*
X48577500Y-48831500D02*
X48577500Y-46545500D01*
X48577500Y-46545500D02*
X47307500Y-46545500D01*
X47307500Y-46545500D02*
X47307500Y-48831500D01*
X47307500Y-48831500D02*
X48577500Y-48831500D01*
X41338500Y-37909500D02*
X39052500Y-37909500D01*
X39052500Y-37909500D02*
X39052500Y-39179500D01*
X39052500Y-39179500D02*
X41338500Y-39179500D01*
X41338500Y-39179500D02*
X41338500Y-37909500D01*
X50863500Y-48831500D02*
X50863500Y-46545500D01*
X50863500Y-46545500D02*
X49593500Y-46545500D01*
X49593500Y-46545500D02*
X49593500Y-48831500D01*
X49593500Y-48831500D02*
X50863500Y-48831500D01*
X49593500Y-40957500D02*
X49593500Y-43243500D01*
X49593500Y-43243500D02*
X50863500Y-43243500D01*
X50863500Y-43243500D02*
X50863500Y-40957500D01*
X50863500Y-40957500D02*
X49593500Y-40957500D01*
X11811000Y-50038000D02*
X11811000Y-52324000D01*
X11811000Y-52324000D02*
X13081000Y-52324000D01*
X13081000Y-52324000D02*
X13081000Y-50038000D01*
X13081000Y-50038000D02*
X11811000Y-50038000D01*
X7874000Y-50419000D02*
X7874000Y-52705000D01*
X7874000Y-52705000D02*
X9144000Y-52705000D01*
X9144000Y-52705000D02*
X9144000Y-50419000D01*
X9144000Y-50419000D02*
X7874000Y-50419000D01*
X91986100Y-61836300D02*
X94272100Y-61836300D01*
X94272100Y-61836300D02*
X94272100Y-63487300D01*
X91986100Y-65265300D02*
X91986100Y-66916300D01*
X91986100Y-66916300D02*
X94272100Y-66916300D01*
X94272100Y-66916300D02*
X94272100Y-65265300D01*
X91986100Y-63487300D02*
X91986100Y-61836300D01*
D13*
X3913293Y-20680982D02*
X3913293Y-21038397D01*
X3937121Y-21109880D01*
X3984776Y-21157535D01*
X4056259Y-21181362D01*
X4103914Y-21181362D01*
X3698845Y-20728638D02*
X3675017Y-20704810D01*
X3627362Y-20680982D01*
X3508224Y-20680982D01*
X3460568Y-20704810D01*
X3436741Y-20728638D01*
X3412913Y-20776293D01*
X3412913Y-20823948D01*
X3436741Y-20895431D01*
X3722672Y-21181362D01*
X3412913Y-21181362D01*
X8989362Y-8155759D02*
X8488982Y-8155759D01*
X8846397Y-8322552D01*
X8488982Y-8489346D01*
X8989362Y-8489346D01*
X8989362Y-8727622D02*
X8488982Y-8727622D01*
X8941707Y-9251830D02*
X8965535Y-9228002D01*
X8989362Y-9156519D01*
X8989362Y-9108864D01*
X8965535Y-9037381D01*
X8917880Y-8989726D01*
X8870224Y-8965898D01*
X8774914Y-8942070D01*
X8703431Y-8942070D01*
X8608120Y-8965898D01*
X8560465Y-8989726D01*
X8512810Y-9037381D01*
X8488982Y-9108864D01*
X8488982Y-9156519D01*
X8512810Y-9228002D01*
X8536638Y-9251830D01*
X8989362Y-9752210D02*
X8751086Y-9585416D01*
X8989362Y-9466278D02*
X8488982Y-9466278D01*
X8488982Y-9656899D01*
X8512810Y-9704554D01*
X8536638Y-9728382D01*
X8584293Y-9752210D01*
X8655776Y-9752210D01*
X8703431Y-9728382D01*
X8727259Y-9704554D01*
X8751086Y-9656899D01*
X8751086Y-9466278D01*
X8488982Y-10061969D02*
X8488982Y-10157279D01*
X8512810Y-10204934D01*
X8560465Y-10252590D01*
X8655776Y-10276417D01*
X8822569Y-10276417D01*
X8917880Y-10252590D01*
X8965535Y-10204934D01*
X8989362Y-10157279D01*
X8989362Y-10061969D01*
X8965535Y-10014313D01*
X8917880Y-9966658D01*
X8822569Y-9942830D01*
X8655776Y-9942830D01*
X8560465Y-9966658D01*
X8512810Y-10014313D01*
X8488982Y-10061969D01*
X8965535Y-10467038D02*
X8989362Y-10538521D01*
X8989362Y-10657659D01*
X8965535Y-10705315D01*
X8941707Y-10729142D01*
X8894052Y-10752970D01*
X8846397Y-10752970D01*
X8798741Y-10729142D01*
X8774914Y-10705315D01*
X8751086Y-10657659D01*
X8727259Y-10562349D01*
X8703431Y-10514694D01*
X8679603Y-10490866D01*
X8631948Y-10467038D01*
X8584293Y-10467038D01*
X8536638Y-10490866D01*
X8512810Y-10514694D01*
X8488982Y-10562349D01*
X8488982Y-10681487D01*
X8512810Y-10752970D01*
X8989362Y-10967418D02*
X8488982Y-10967418D01*
X8488982Y-11086556D01*
X8512810Y-11158039D01*
X8560465Y-11205694D01*
X8608120Y-11229522D01*
X8703431Y-11253350D01*
X8774914Y-11253350D01*
X8870224Y-11229522D01*
X8917880Y-11205694D01*
X8965535Y-11158039D01*
X8989362Y-11086556D01*
X8989362Y-10967418D01*
X44898672Y-47295707D02*
X44922500Y-47319535D01*
X44993983Y-47343362D01*
X45041638Y-47343362D01*
X45113121Y-47319535D01*
X45160776Y-47271880D01*
X45184604Y-47224224D01*
X45208432Y-47128914D01*
X45208432Y-47057431D01*
X45184604Y-46962120D01*
X45160776Y-46914465D01*
X45113121Y-46866810D01*
X45041638Y-46842982D01*
X44993983Y-46842982D01*
X44922500Y-46866810D01*
X44898672Y-46890638D01*
X44469775Y-47009776D02*
X44469775Y-47343362D01*
X44588913Y-46819155D02*
X44708052Y-47176569D01*
X44398292Y-47176569D01*
X44231500Y-46890638D02*
X44207672Y-46866810D01*
X44160017Y-46842982D01*
X44040879Y-46842982D01*
X43993223Y-46866810D01*
X43969396Y-46890638D01*
X43945568Y-46938293D01*
X43945568Y-46985948D01*
X43969396Y-47057431D01*
X44255327Y-47343362D01*
X43945568Y-47343362D01*
X45351397Y-48105362D02*
X45637329Y-48105362D01*
X45494363Y-48105362D02*
X45494363Y-47604982D01*
X45542018Y-47676465D01*
X45589673Y-47724120D01*
X45637329Y-47747948D01*
X45041638Y-47604982D02*
X44993983Y-47604982D01*
X44946328Y-47628810D01*
X44922500Y-47652638D01*
X44898673Y-47700293D01*
X44874845Y-47795603D01*
X44874845Y-47914741D01*
X44898673Y-48010052D01*
X44922500Y-48057707D01*
X44946328Y-48081535D01*
X44993983Y-48105362D01*
X45041638Y-48105362D01*
X45089294Y-48081535D01*
X45113121Y-48057707D01*
X45136949Y-48010052D01*
X45160777Y-47914741D01*
X45160777Y-47795603D01*
X45136949Y-47700293D01*
X45113121Y-47652638D01*
X45089294Y-47628810D01*
X45041638Y-47604982D01*
X44565086Y-47604982D02*
X44517431Y-47604982D01*
X44469776Y-47628810D01*
X44445948Y-47652638D01*
X44422121Y-47700293D01*
X44398293Y-47795603D01*
X44398293Y-47914741D01*
X44422121Y-48010052D01*
X44445948Y-48057707D01*
X44469776Y-48081535D01*
X44517431Y-48105362D01*
X44565086Y-48105362D01*
X44612742Y-48081535D01*
X44636569Y-48057707D01*
X44660397Y-48010052D01*
X44684225Y-47914741D01*
X44684225Y-47795603D01*
X44660397Y-47700293D01*
X44636569Y-47652638D01*
X44612742Y-47628810D01*
X44565086Y-47604982D01*
X44183845Y-47771776D02*
X44183845Y-48105362D01*
X44183845Y-47819431D02*
X44160017Y-47795603D01*
X44112362Y-47771776D01*
X44040879Y-47771776D01*
X43993224Y-47795603D01*
X43969396Y-47843259D01*
X43969396Y-48105362D01*
X43564327Y-47843259D02*
X43731120Y-47843259D01*
X43731120Y-48105362D02*
X43731120Y-47604982D01*
X43492844Y-47604982D01*
X46994172Y-38024707D02*
X47018000Y-38048535D01*
X47089483Y-38072362D01*
X47137138Y-38072362D01*
X47208621Y-38048535D01*
X47256276Y-38000880D01*
X47280104Y-37953224D01*
X47303932Y-37857914D01*
X47303932Y-37786431D01*
X47280104Y-37691120D01*
X47256276Y-37643465D01*
X47208621Y-37595810D01*
X47137138Y-37571982D01*
X47089483Y-37571982D01*
X47018000Y-37595810D01*
X46994172Y-37619638D01*
X46517620Y-38072362D02*
X46803552Y-38072362D01*
X46660586Y-38072362D02*
X46660586Y-37571982D01*
X46708241Y-37643465D01*
X46755896Y-37691120D01*
X46803552Y-37714948D01*
X46279344Y-38072362D02*
X46184034Y-38072362D01*
X46136379Y-38048535D01*
X46112551Y-38024707D01*
X46064896Y-37953224D01*
X46041068Y-37857914D01*
X46041068Y-37667293D01*
X46064896Y-37619638D01*
X46088723Y-37595810D01*
X46136379Y-37571982D01*
X46231689Y-37571982D01*
X46279344Y-37595810D01*
X46303172Y-37619638D01*
X46327000Y-37667293D01*
X46327000Y-37786431D01*
X46303172Y-37834086D01*
X46279344Y-37857914D01*
X46231689Y-37881741D01*
X46136379Y-37881741D01*
X46088723Y-37857914D01*
X46064896Y-37834086D01*
X46041068Y-37786431D01*
X47002397Y-39215362D02*
X47288329Y-39215362D01*
X47145363Y-39215362D02*
X47145363Y-38714982D01*
X47193018Y-38786465D01*
X47240673Y-38834120D01*
X47288329Y-38857948D01*
X46692638Y-38714982D02*
X46644983Y-38714982D01*
X46597328Y-38738810D01*
X46573500Y-38762638D01*
X46549673Y-38810293D01*
X46525845Y-38905603D01*
X46525845Y-39024741D01*
X46549673Y-39120052D01*
X46573500Y-39167707D01*
X46597328Y-39191535D01*
X46644983Y-39215362D01*
X46692638Y-39215362D01*
X46740294Y-39191535D01*
X46764121Y-39167707D01*
X46787949Y-39120052D01*
X46811777Y-39024741D01*
X46811777Y-38905603D01*
X46787949Y-38810293D01*
X46764121Y-38762638D01*
X46740294Y-38738810D01*
X46692638Y-38714982D01*
X46216086Y-38714982D02*
X46168431Y-38714982D01*
X46120776Y-38738810D01*
X46096948Y-38762638D01*
X46073121Y-38810293D01*
X46049293Y-38905603D01*
X46049293Y-39024741D01*
X46073121Y-39120052D01*
X46096948Y-39167707D01*
X46120776Y-39191535D01*
X46168431Y-39215362D01*
X46216086Y-39215362D01*
X46263742Y-39191535D01*
X46287569Y-39167707D01*
X46311397Y-39120052D01*
X46335225Y-39024741D01*
X46335225Y-38905603D01*
X46311397Y-38810293D01*
X46287569Y-38762638D01*
X46263742Y-38738810D01*
X46216086Y-38714982D01*
X45834845Y-38881776D02*
X45834845Y-39215362D01*
X45834845Y-38929431D02*
X45811017Y-38905603D01*
X45763362Y-38881776D01*
X45691879Y-38881776D01*
X45644224Y-38905603D01*
X45620396Y-38953259D01*
X45620396Y-39215362D01*
X45215327Y-38953259D02*
X45382120Y-38953259D01*
X45382120Y-39215362D02*
X45382120Y-38714982D01*
X45143844Y-38714982D01*
X40199672Y-46152707D02*
X40223500Y-46176535D01*
X40294983Y-46200362D01*
X40342638Y-46200362D01*
X40414121Y-46176535D01*
X40461776Y-46128880D01*
X40485604Y-46081224D01*
X40509432Y-45985914D01*
X40509432Y-45914431D01*
X40485604Y-45819120D01*
X40461776Y-45771465D01*
X40414121Y-45723810D01*
X40342638Y-45699982D01*
X40294983Y-45699982D01*
X40223500Y-45723810D01*
X40199672Y-45747638D01*
X40032879Y-45699982D02*
X39723120Y-45699982D01*
X39889913Y-45890603D01*
X39818431Y-45890603D01*
X39770775Y-45914431D01*
X39746948Y-45938259D01*
X39723120Y-45985914D01*
X39723120Y-46105052D01*
X39746948Y-46152707D01*
X39770775Y-46176535D01*
X39818431Y-46200362D01*
X39961396Y-46200362D01*
X40009052Y-46176535D01*
X40032879Y-46152707D01*
X39556327Y-45699982D02*
X39246568Y-45699982D01*
X39413361Y-45890603D01*
X39341879Y-45890603D01*
X39294223Y-45914431D01*
X39270396Y-45938259D01*
X39246568Y-45985914D01*
X39246568Y-46105052D01*
X39270396Y-46152707D01*
X39294223Y-46176535D01*
X39341879Y-46200362D01*
X39484844Y-46200362D01*
X39532500Y-46176535D01*
X39556327Y-46152707D01*
X40652397Y-49629362D02*
X40938329Y-49629362D01*
X40795363Y-49629362D02*
X40795363Y-49128982D01*
X40843018Y-49200465D01*
X40890673Y-49248120D01*
X40938329Y-49271948D01*
X40342638Y-49128982D02*
X40294983Y-49128982D01*
X40247328Y-49152810D01*
X40223500Y-49176638D01*
X40199673Y-49224293D01*
X40175845Y-49319603D01*
X40175845Y-49438741D01*
X40199673Y-49534052D01*
X40223500Y-49581707D01*
X40247328Y-49605535D01*
X40294983Y-49629362D01*
X40342638Y-49629362D01*
X40390294Y-49605535D01*
X40414121Y-49581707D01*
X40437949Y-49534052D01*
X40461777Y-49438741D01*
X40461777Y-49319603D01*
X40437949Y-49224293D01*
X40414121Y-49176638D01*
X40390294Y-49152810D01*
X40342638Y-49128982D01*
X39866086Y-49128982D02*
X39818431Y-49128982D01*
X39770776Y-49152810D01*
X39746948Y-49176638D01*
X39723121Y-49224293D01*
X39699293Y-49319603D01*
X39699293Y-49438741D01*
X39723121Y-49534052D01*
X39746948Y-49581707D01*
X39770776Y-49605535D01*
X39818431Y-49629362D01*
X39866086Y-49629362D01*
X39913742Y-49605535D01*
X39937569Y-49581707D01*
X39961397Y-49534052D01*
X39985225Y-49438741D01*
X39985225Y-49319603D01*
X39961397Y-49224293D01*
X39937569Y-49176638D01*
X39913742Y-49152810D01*
X39866086Y-49128982D01*
X39484845Y-49295776D02*
X39484845Y-49629362D01*
X39484845Y-49343431D02*
X39461017Y-49319603D01*
X39413362Y-49295776D01*
X39341879Y-49295776D01*
X39294224Y-49319603D01*
X39270396Y-49367259D01*
X39270396Y-49629362D01*
X38865327Y-49367259D02*
X39032120Y-49367259D01*
X39032120Y-49629362D02*
X39032120Y-49128982D01*
X38793844Y-49128982D01*
X82147772Y-66888662D02*
X82314566Y-66650386D01*
X82433704Y-66888662D02*
X82433704Y-66388282D01*
X82243083Y-66388282D01*
X82195428Y-66412110D01*
X82171600Y-66435938D01*
X82147772Y-66483593D01*
X82147772Y-66555076D01*
X82171600Y-66602731D01*
X82195428Y-66626559D01*
X82243083Y-66650386D01*
X82433704Y-66650386D01*
X81909496Y-66888662D02*
X81814186Y-66888662D01*
X81766531Y-66864835D01*
X81742703Y-66841007D01*
X81695048Y-66769524D01*
X81671220Y-66674214D01*
X81671220Y-66483593D01*
X81695048Y-66435938D01*
X81718875Y-66412110D01*
X81766531Y-66388282D01*
X81861841Y-66388282D01*
X81909496Y-66412110D01*
X81933324Y-66435938D01*
X81957152Y-66483593D01*
X81957152Y-66602731D01*
X81933324Y-66650386D01*
X81909496Y-66674214D01*
X81861841Y-66698041D01*
X81766531Y-66698041D01*
X81718875Y-66674214D01*
X81695048Y-66650386D01*
X81671220Y-66602731D01*
X81361461Y-66388282D02*
X81313806Y-66388282D01*
X81266151Y-66412110D01*
X81242323Y-66435938D01*
X81218496Y-66483593D01*
X81194668Y-66578903D01*
X81194668Y-66698041D01*
X81218496Y-66793352D01*
X81242323Y-66841007D01*
X81266151Y-66864835D01*
X81313806Y-66888662D01*
X81361461Y-66888662D01*
X81409117Y-66864835D01*
X81432944Y-66841007D01*
X81456772Y-66793352D01*
X81480600Y-66698041D01*
X81480600Y-66578903D01*
X81456772Y-66483593D01*
X81432944Y-66435938D01*
X81409117Y-66412110D01*
X81361461Y-66388282D01*
X82123945Y-67587162D02*
X82409877Y-67587162D01*
X82266911Y-67587162D02*
X82266911Y-67086782D01*
X82314566Y-67158265D01*
X82362221Y-67205920D01*
X82409877Y-67229748D01*
X81647393Y-67587162D02*
X81933325Y-67587162D01*
X81790359Y-67587162D02*
X81790359Y-67086782D01*
X81838014Y-67158265D01*
X81885669Y-67205920D01*
X81933325Y-67229748D01*
X81432945Y-67587162D02*
X81432945Y-67086782D01*
X81385290Y-67396541D02*
X81242324Y-67587162D01*
X81242324Y-67253576D02*
X81432945Y-67444197D01*
X82147772Y-61364162D02*
X82314566Y-61125886D01*
X82433704Y-61364162D02*
X82433704Y-60863782D01*
X82243083Y-60863782D01*
X82195428Y-60887610D01*
X82171600Y-60911438D01*
X82147772Y-60959093D01*
X82147772Y-61030576D01*
X82171600Y-61078231D01*
X82195428Y-61102059D01*
X82243083Y-61125886D01*
X82433704Y-61125886D01*
X81861841Y-61078231D02*
X81909496Y-61054403D01*
X81933324Y-61030576D01*
X81957152Y-60982920D01*
X81957152Y-60959093D01*
X81933324Y-60911438D01*
X81909496Y-60887610D01*
X81861841Y-60863782D01*
X81766531Y-60863782D01*
X81718875Y-60887610D01*
X81695048Y-60911438D01*
X81671220Y-60959093D01*
X81671220Y-60982920D01*
X81695048Y-61030576D01*
X81718875Y-61054403D01*
X81766531Y-61078231D01*
X81861841Y-61078231D01*
X81909496Y-61102059D01*
X81933324Y-61125886D01*
X81957152Y-61173541D01*
X81957152Y-61268852D01*
X81933324Y-61316507D01*
X81909496Y-61340335D01*
X81861841Y-61364162D01*
X81766531Y-61364162D01*
X81718875Y-61340335D01*
X81695048Y-61316507D01*
X81671220Y-61268852D01*
X81671220Y-61173541D01*
X81695048Y-61125886D01*
X81718875Y-61102059D01*
X81766531Y-61078231D01*
X81432944Y-61364162D02*
X81337634Y-61364162D01*
X81289979Y-61340335D01*
X81266151Y-61316507D01*
X81218496Y-61245024D01*
X81194668Y-61149714D01*
X81194668Y-60959093D01*
X81218496Y-60911438D01*
X81242323Y-60887610D01*
X81289979Y-60863782D01*
X81385289Y-60863782D01*
X81432944Y-60887610D01*
X81456772Y-60911438D01*
X81480600Y-60959093D01*
X81480600Y-61078231D01*
X81456772Y-61125886D01*
X81432944Y-61149714D01*
X81385289Y-61173541D01*
X81289979Y-61173541D01*
X81242323Y-61149714D01*
X81218496Y-61125886D01*
X81194668Y-61078231D01*
X82123945Y-60538662D02*
X82409877Y-60538662D01*
X82266911Y-60538662D02*
X82266911Y-60038282D01*
X82314566Y-60109765D01*
X82362221Y-60157420D01*
X82409877Y-60181248D01*
X81838014Y-60252731D02*
X81885669Y-60228903D01*
X81909497Y-60205076D01*
X81933325Y-60157420D01*
X81933325Y-60133593D01*
X81909497Y-60085938D01*
X81885669Y-60062110D01*
X81838014Y-60038282D01*
X81742704Y-60038282D01*
X81695048Y-60062110D01*
X81671221Y-60085938D01*
X81647393Y-60133593D01*
X81647393Y-60157420D01*
X81671221Y-60205076D01*
X81695048Y-60228903D01*
X81742704Y-60252731D01*
X81838014Y-60252731D01*
X81885669Y-60276559D01*
X81909497Y-60300386D01*
X81933325Y-60348041D01*
X81933325Y-60443352D01*
X81909497Y-60491007D01*
X81885669Y-60514835D01*
X81838014Y-60538662D01*
X81742704Y-60538662D01*
X81695048Y-60514835D01*
X81671221Y-60491007D01*
X81647393Y-60443352D01*
X81647393Y-60348041D01*
X81671221Y-60300386D01*
X81695048Y-60276559D01*
X81742704Y-60252731D01*
X81432945Y-60538662D02*
X81432945Y-60038282D01*
X81385290Y-60348041D02*
X81242324Y-60538662D01*
X81242324Y-60205076D02*
X81432945Y-60395697D01*
X61322312Y-31326122D02*
X61489106Y-31087846D01*
X61608244Y-31326122D02*
X61608244Y-30825742D01*
X61417623Y-30825742D01*
X61369968Y-30849570D01*
X61346140Y-30873398D01*
X61322312Y-30921053D01*
X61322312Y-30992536D01*
X61346140Y-31040191D01*
X61369968Y-31064019D01*
X61417623Y-31087846D01*
X61608244Y-31087846D01*
X60845760Y-31326122D02*
X61131692Y-31326122D01*
X60988726Y-31326122D02*
X60988726Y-30825742D01*
X61036381Y-30897225D01*
X61084036Y-30944880D01*
X61131692Y-30968708D01*
X60393036Y-30825742D02*
X60631312Y-30825742D01*
X60655140Y-31064019D01*
X60631312Y-31040191D01*
X60583657Y-31016363D01*
X60464519Y-31016363D01*
X60416863Y-31040191D01*
X60393036Y-31064019D01*
X60369208Y-31111674D01*
X60369208Y-31230812D01*
X60393036Y-31278467D01*
X60416863Y-31302295D01*
X60464519Y-31326122D01*
X60583657Y-31326122D01*
X60631312Y-31302295D01*
X60655140Y-31278467D01*
X61298485Y-32027162D02*
X61584417Y-32027162D01*
X61441451Y-32027162D02*
X61441451Y-31526782D01*
X61489106Y-31598265D01*
X61536761Y-31645920D01*
X61584417Y-31669748D01*
X60988726Y-31526782D02*
X60941071Y-31526782D01*
X60893416Y-31550610D01*
X60869588Y-31574438D01*
X60845761Y-31622093D01*
X60821933Y-31717403D01*
X60821933Y-31836541D01*
X60845761Y-31931852D01*
X60869588Y-31979507D01*
X60893416Y-32003335D01*
X60941071Y-32027162D01*
X60988726Y-32027162D01*
X61036382Y-32003335D01*
X61060209Y-31979507D01*
X61084037Y-31931852D01*
X61107865Y-31836541D01*
X61107865Y-31717403D01*
X61084037Y-31622093D01*
X61060209Y-31574438D01*
X61036382Y-31550610D01*
X60988726Y-31526782D01*
X60607485Y-32027162D02*
X60607485Y-31526782D01*
X60559830Y-31836541D02*
X60416864Y-32027162D01*
X60416864Y-31693576D02*
X60607485Y-31884197D01*
X88624772Y-66015507D02*
X88648600Y-66039335D01*
X88720083Y-66063162D01*
X88767738Y-66063162D01*
X88839221Y-66039335D01*
X88886876Y-65991680D01*
X88910704Y-65944024D01*
X88934532Y-65848714D01*
X88934532Y-65777231D01*
X88910704Y-65681920D01*
X88886876Y-65634265D01*
X88839221Y-65586610D01*
X88767738Y-65562782D01*
X88720083Y-65562782D01*
X88648600Y-65586610D01*
X88624772Y-65610438D01*
X88338841Y-65777231D02*
X88386496Y-65753403D01*
X88410324Y-65729576D01*
X88434152Y-65681920D01*
X88434152Y-65658093D01*
X88410324Y-65610438D01*
X88386496Y-65586610D01*
X88338841Y-65562782D01*
X88243531Y-65562782D01*
X88195875Y-65586610D01*
X88172048Y-65610438D01*
X88148220Y-65658093D01*
X88148220Y-65681920D01*
X88172048Y-65729576D01*
X88195875Y-65753403D01*
X88243531Y-65777231D01*
X88338841Y-65777231D01*
X88386496Y-65801059D01*
X88410324Y-65824886D01*
X88434152Y-65872541D01*
X88434152Y-65967852D01*
X88410324Y-66015507D01*
X88386496Y-66039335D01*
X88338841Y-66063162D01*
X88243531Y-66063162D01*
X88195875Y-66039335D01*
X88172048Y-66015507D01*
X88148220Y-65967852D01*
X88148220Y-65872541D01*
X88172048Y-65824886D01*
X88195875Y-65801059D01*
X88243531Y-65777231D01*
X87981427Y-65562782D02*
X87671668Y-65562782D01*
X87838461Y-65753403D01*
X87766979Y-65753403D01*
X87719323Y-65777231D01*
X87695496Y-65801059D01*
X87671668Y-65848714D01*
X87671668Y-65967852D01*
X87695496Y-66015507D01*
X87719323Y-66039335D01*
X87766979Y-66063162D01*
X87909944Y-66063162D01*
X87957600Y-66039335D01*
X87981427Y-66015507D01*
X88839342Y-66729731D02*
X88886997Y-66705903D01*
X88910825Y-66682076D01*
X88934653Y-66634420D01*
X88934653Y-66610593D01*
X88910825Y-66562938D01*
X88886997Y-66539110D01*
X88839342Y-66515282D01*
X88744032Y-66515282D01*
X88696376Y-66539110D01*
X88672549Y-66562938D01*
X88648721Y-66610593D01*
X88648721Y-66634420D01*
X88672549Y-66682076D01*
X88696376Y-66705903D01*
X88744032Y-66729731D01*
X88839342Y-66729731D01*
X88886997Y-66753559D01*
X88910825Y-66777386D01*
X88934653Y-66825041D01*
X88934653Y-66920352D01*
X88910825Y-66968007D01*
X88886997Y-66991835D01*
X88839342Y-67015662D01*
X88744032Y-67015662D01*
X88696376Y-66991835D01*
X88672549Y-66968007D01*
X88648721Y-66920352D01*
X88648721Y-66825041D01*
X88672549Y-66777386D01*
X88696376Y-66753559D01*
X88744032Y-66729731D01*
X88458101Y-66562938D02*
X88434273Y-66539110D01*
X88386618Y-66515282D01*
X88267480Y-66515282D01*
X88219824Y-66539110D01*
X88195997Y-66562938D01*
X88172169Y-66610593D01*
X88172169Y-66658248D01*
X88195997Y-66729731D01*
X88481928Y-67015662D01*
X88172169Y-67015662D01*
X87957721Y-66682076D02*
X87957721Y-67182456D01*
X87957721Y-66705903D02*
X87910066Y-66682076D01*
X87814755Y-66682076D01*
X87767100Y-66705903D01*
X87743272Y-66729731D01*
X87719445Y-66777386D01*
X87719445Y-66920352D01*
X87743272Y-66968007D01*
X87767100Y-66991835D01*
X87814755Y-67015662D01*
X87910066Y-67015662D01*
X87957721Y-66991835D01*
X87338203Y-66753559D02*
X87504996Y-66753559D01*
X87504996Y-67015662D02*
X87504996Y-66515282D01*
X87266720Y-66515282D01*
X77321772Y-63158007D02*
X77345600Y-63181835D01*
X77417083Y-63205662D01*
X77464738Y-63205662D01*
X77536221Y-63181835D01*
X77583876Y-63134180D01*
X77607704Y-63086524D01*
X77631532Y-62991214D01*
X77631532Y-62919731D01*
X77607704Y-62824420D01*
X77583876Y-62776765D01*
X77536221Y-62729110D01*
X77464738Y-62705282D01*
X77417083Y-62705282D01*
X77345600Y-62729110D01*
X77321772Y-62752938D01*
X77154979Y-62705282D02*
X76821392Y-62705282D01*
X77035841Y-63205662D01*
X76416323Y-62705282D02*
X76511634Y-62705282D01*
X76559289Y-62729110D01*
X76583117Y-62752938D01*
X76630772Y-62824420D01*
X76654600Y-62919731D01*
X76654600Y-63110352D01*
X76630772Y-63158007D01*
X76606944Y-63181835D01*
X76559289Y-63205662D01*
X76463979Y-63205662D01*
X76416323Y-63181835D01*
X76392496Y-63158007D01*
X76368668Y-63110352D01*
X76368668Y-62991214D01*
X76392496Y-62943559D01*
X76416323Y-62919731D01*
X76463979Y-62895903D01*
X76559289Y-62895903D01*
X76606944Y-62919731D01*
X76630772Y-62943559D01*
X76654600Y-62991214D01*
X77251256Y-64904076D02*
X77251256Y-65237662D01*
X77370394Y-64713455D02*
X77489533Y-65070869D01*
X77179773Y-65070869D01*
X76989153Y-65190007D02*
X76965325Y-65213835D01*
X76989153Y-65237662D01*
X77012981Y-65213835D01*
X76989153Y-65190007D01*
X76989153Y-65237662D01*
X76798532Y-64737282D02*
X76464945Y-64737282D01*
X76679394Y-65237662D01*
X76059876Y-64904076D02*
X76059876Y-65237662D01*
X76274325Y-64904076D02*
X76274325Y-65166180D01*
X76250497Y-65213835D01*
X76202842Y-65237662D01*
X76131359Y-65237662D01*
X76083704Y-65213835D01*
X76059876Y-65190007D01*
X75654807Y-64975559D02*
X75821600Y-64975559D01*
X75821600Y-65237662D02*
X75821600Y-64737282D01*
X75583324Y-64737282D01*
X75035289Y-64713455D02*
X75464186Y-65356800D01*
X74654046Y-64737282D02*
X74749357Y-64737282D01*
X74797012Y-64761110D01*
X74820840Y-64784938D01*
X74868495Y-64856420D01*
X74892323Y-64951731D01*
X74892323Y-65142352D01*
X74868495Y-65190007D01*
X74844667Y-65213835D01*
X74797012Y-65237662D01*
X74701702Y-65237662D01*
X74654046Y-65213835D01*
X74630219Y-65190007D01*
X74606391Y-65142352D01*
X74606391Y-65023214D01*
X74630219Y-64975559D01*
X74654046Y-64951731D01*
X74701702Y-64927903D01*
X74797012Y-64927903D01*
X74844667Y-64951731D01*
X74868495Y-64975559D01*
X74892323Y-65023214D01*
X74391943Y-65190007D02*
X74368115Y-65213835D01*
X74391943Y-65237662D01*
X74415771Y-65213835D01*
X74391943Y-65190007D01*
X74391943Y-65237662D01*
X74201322Y-64737282D02*
X73891563Y-64737282D01*
X74058356Y-64927903D01*
X73986874Y-64927903D01*
X73939218Y-64951731D01*
X73915391Y-64975559D01*
X73891563Y-65023214D01*
X73891563Y-65142352D01*
X73915391Y-65190007D01*
X73939218Y-65213835D01*
X73986874Y-65237662D01*
X74129839Y-65237662D01*
X74177495Y-65213835D01*
X74201322Y-65190007D01*
X73748598Y-64737282D02*
X73581804Y-65237662D01*
X73415011Y-64737282D01*
X48264172Y-46152707D02*
X48288000Y-46176535D01*
X48359483Y-46200362D01*
X48407138Y-46200362D01*
X48478621Y-46176535D01*
X48526276Y-46128880D01*
X48550104Y-46081224D01*
X48573932Y-45985914D01*
X48573932Y-45914431D01*
X48550104Y-45819120D01*
X48526276Y-45771465D01*
X48478621Y-45723810D01*
X48407138Y-45699982D01*
X48359483Y-45699982D01*
X48288000Y-45723810D01*
X48264172Y-45747638D01*
X47978241Y-45914431D02*
X48025896Y-45890603D01*
X48049724Y-45866776D01*
X48073552Y-45819120D01*
X48073552Y-45795293D01*
X48049724Y-45747638D01*
X48025896Y-45723810D01*
X47978241Y-45699982D01*
X47882931Y-45699982D01*
X47835275Y-45723810D01*
X47811448Y-45747638D01*
X47787620Y-45795293D01*
X47787620Y-45819120D01*
X47811448Y-45866776D01*
X47835275Y-45890603D01*
X47882931Y-45914431D01*
X47978241Y-45914431D01*
X48025896Y-45938259D01*
X48049724Y-45962086D01*
X48073552Y-46009741D01*
X48073552Y-46105052D01*
X48049724Y-46152707D01*
X48025896Y-46176535D01*
X47978241Y-46200362D01*
X47882931Y-46200362D01*
X47835275Y-46176535D01*
X47811448Y-46152707D01*
X47787620Y-46105052D01*
X47787620Y-46009741D01*
X47811448Y-45962086D01*
X47835275Y-45938259D01*
X47882931Y-45914431D01*
X47501689Y-45914431D02*
X47549344Y-45890603D01*
X47573172Y-45866776D01*
X47597000Y-45819120D01*
X47597000Y-45795293D01*
X47573172Y-45747638D01*
X47549344Y-45723810D01*
X47501689Y-45699982D01*
X47406379Y-45699982D01*
X47358723Y-45723810D01*
X47334896Y-45747638D01*
X47311068Y-45795293D01*
X47311068Y-45819120D01*
X47334896Y-45866776D01*
X47358723Y-45890603D01*
X47406379Y-45914431D01*
X47501689Y-45914431D01*
X47549344Y-45938259D01*
X47573172Y-45962086D01*
X47597000Y-46009741D01*
X47597000Y-46105052D01*
X47573172Y-46152707D01*
X47549344Y-46176535D01*
X47501689Y-46200362D01*
X47406379Y-46200362D01*
X47358723Y-46176535D01*
X47334896Y-46152707D01*
X47311068Y-46105052D01*
X47311068Y-46009741D01*
X47334896Y-45962086D01*
X47358723Y-45938259D01*
X47406379Y-45914431D01*
X48780397Y-49629362D02*
X49066329Y-49629362D01*
X48923363Y-49629362D02*
X48923363Y-49128982D01*
X48971018Y-49200465D01*
X49018673Y-49248120D01*
X49066329Y-49271948D01*
X48470638Y-49128982D02*
X48422983Y-49128982D01*
X48375328Y-49152810D01*
X48351500Y-49176638D01*
X48327673Y-49224293D01*
X48303845Y-49319603D01*
X48303845Y-49438741D01*
X48327673Y-49534052D01*
X48351500Y-49581707D01*
X48375328Y-49605535D01*
X48422983Y-49629362D01*
X48470638Y-49629362D01*
X48518294Y-49605535D01*
X48542121Y-49581707D01*
X48565949Y-49534052D01*
X48589777Y-49438741D01*
X48589777Y-49319603D01*
X48565949Y-49224293D01*
X48542121Y-49176638D01*
X48518294Y-49152810D01*
X48470638Y-49128982D01*
X47994086Y-49128982D02*
X47946431Y-49128982D01*
X47898776Y-49152810D01*
X47874948Y-49176638D01*
X47851121Y-49224293D01*
X47827293Y-49319603D01*
X47827293Y-49438741D01*
X47851121Y-49534052D01*
X47874948Y-49581707D01*
X47898776Y-49605535D01*
X47946431Y-49629362D01*
X47994086Y-49629362D01*
X48041742Y-49605535D01*
X48065569Y-49581707D01*
X48089397Y-49534052D01*
X48113225Y-49438741D01*
X48113225Y-49319603D01*
X48089397Y-49224293D01*
X48065569Y-49176638D01*
X48041742Y-49152810D01*
X47994086Y-49128982D01*
X47612845Y-49295776D02*
X47612845Y-49629362D01*
X47612845Y-49343431D02*
X47589017Y-49319603D01*
X47541362Y-49295776D01*
X47469879Y-49295776D01*
X47422224Y-49319603D01*
X47398396Y-49367259D01*
X47398396Y-49629362D01*
X46993327Y-49367259D02*
X47160120Y-49367259D01*
X47160120Y-49629362D02*
X47160120Y-49128982D01*
X46921844Y-49128982D01*
X42676172Y-38024707D02*
X42700000Y-38048535D01*
X42771483Y-38072362D01*
X42819138Y-38072362D01*
X42890621Y-38048535D01*
X42938276Y-38000880D01*
X42962104Y-37953224D01*
X42985932Y-37857914D01*
X42985932Y-37786431D01*
X42962104Y-37691120D01*
X42938276Y-37643465D01*
X42890621Y-37595810D01*
X42819138Y-37571982D01*
X42771483Y-37571982D01*
X42700000Y-37595810D01*
X42676172Y-37619638D01*
X42390241Y-37786431D02*
X42437896Y-37762603D01*
X42461724Y-37738776D01*
X42485552Y-37691120D01*
X42485552Y-37667293D01*
X42461724Y-37619638D01*
X42437896Y-37595810D01*
X42390241Y-37571982D01*
X42294931Y-37571982D01*
X42247275Y-37595810D01*
X42223448Y-37619638D01*
X42199620Y-37667293D01*
X42199620Y-37691120D01*
X42223448Y-37738776D01*
X42247275Y-37762603D01*
X42294931Y-37786431D01*
X42390241Y-37786431D01*
X42437896Y-37810259D01*
X42461724Y-37834086D01*
X42485552Y-37881741D01*
X42485552Y-37977052D01*
X42461724Y-38024707D01*
X42437896Y-38048535D01*
X42390241Y-38072362D01*
X42294931Y-38072362D01*
X42247275Y-38048535D01*
X42223448Y-38024707D01*
X42199620Y-37977052D01*
X42199620Y-37881741D01*
X42223448Y-37834086D01*
X42247275Y-37810259D01*
X42294931Y-37786431D01*
X41723068Y-38072362D02*
X42009000Y-38072362D01*
X41866034Y-38072362D02*
X41866034Y-37571982D01*
X41913689Y-37643465D01*
X41961344Y-37691120D01*
X42009000Y-37714948D01*
X43509897Y-39151862D02*
X43795829Y-39151862D01*
X43652863Y-39151862D02*
X43652863Y-38651482D01*
X43700518Y-38722965D01*
X43748173Y-38770620D01*
X43795829Y-38794448D01*
X43200138Y-38651482D02*
X43152483Y-38651482D01*
X43104828Y-38675310D01*
X43081000Y-38699138D01*
X43057173Y-38746793D01*
X43033345Y-38842103D01*
X43033345Y-38961241D01*
X43057173Y-39056552D01*
X43081000Y-39104207D01*
X43104828Y-39128035D01*
X43152483Y-39151862D01*
X43200138Y-39151862D01*
X43247794Y-39128035D01*
X43271621Y-39104207D01*
X43295449Y-39056552D01*
X43319277Y-38961241D01*
X43319277Y-38842103D01*
X43295449Y-38746793D01*
X43271621Y-38699138D01*
X43247794Y-38675310D01*
X43200138Y-38651482D01*
X42723586Y-38651482D02*
X42675931Y-38651482D01*
X42628276Y-38675310D01*
X42604448Y-38699138D01*
X42580621Y-38746793D01*
X42556793Y-38842103D01*
X42556793Y-38961241D01*
X42580621Y-39056552D01*
X42604448Y-39104207D01*
X42628276Y-39128035D01*
X42675931Y-39151862D01*
X42723586Y-39151862D01*
X42771242Y-39128035D01*
X42795069Y-39104207D01*
X42818897Y-39056552D01*
X42842725Y-38961241D01*
X42842725Y-38842103D01*
X42818897Y-38746793D01*
X42795069Y-38699138D01*
X42771242Y-38675310D01*
X42723586Y-38651482D01*
X42342345Y-38818276D02*
X42342345Y-39151862D01*
X42342345Y-38865931D02*
X42318517Y-38842103D01*
X42270862Y-38818276D01*
X42199379Y-38818276D01*
X42151724Y-38842103D01*
X42127896Y-38889759D01*
X42127896Y-39151862D01*
X41722827Y-38889759D02*
X41889620Y-38889759D01*
X41889620Y-39151862D02*
X41889620Y-38651482D01*
X41651344Y-38651482D01*
X50550172Y-46152707D02*
X50574000Y-46176535D01*
X50645483Y-46200362D01*
X50693138Y-46200362D01*
X50764621Y-46176535D01*
X50812276Y-46128880D01*
X50836104Y-46081224D01*
X50859932Y-45985914D01*
X50859932Y-45914431D01*
X50836104Y-45819120D01*
X50812276Y-45771465D01*
X50764621Y-45723810D01*
X50693138Y-45699982D01*
X50645483Y-45699982D01*
X50574000Y-45723810D01*
X50550172Y-45747638D01*
X50383379Y-45699982D02*
X50049792Y-45699982D01*
X50264241Y-46200362D01*
X49835344Y-46200362D02*
X49740034Y-46200362D01*
X49692379Y-46176535D01*
X49668551Y-46152707D01*
X49620896Y-46081224D01*
X49597068Y-45985914D01*
X49597068Y-45795293D01*
X49620896Y-45747638D01*
X49644723Y-45723810D01*
X49692379Y-45699982D01*
X49787689Y-45699982D01*
X49835344Y-45723810D01*
X49859172Y-45747638D01*
X49883000Y-45795293D01*
X49883000Y-45914431D01*
X49859172Y-45962086D01*
X49835344Y-45985914D01*
X49787689Y-46009741D01*
X49692379Y-46009741D01*
X49644723Y-45985914D01*
X49620896Y-45962086D01*
X49597068Y-45914431D01*
X51320397Y-49629362D02*
X51606329Y-49629362D01*
X51463363Y-49629362D02*
X51463363Y-49128982D01*
X51511018Y-49200465D01*
X51558673Y-49248120D01*
X51606329Y-49271948D01*
X51010638Y-49128982D02*
X50962983Y-49128982D01*
X50915328Y-49152810D01*
X50891500Y-49176638D01*
X50867673Y-49224293D01*
X50843845Y-49319603D01*
X50843845Y-49438741D01*
X50867673Y-49534052D01*
X50891500Y-49581707D01*
X50915328Y-49605535D01*
X50962983Y-49629362D01*
X51010638Y-49629362D01*
X51058294Y-49605535D01*
X51082121Y-49581707D01*
X51105949Y-49534052D01*
X51129777Y-49438741D01*
X51129777Y-49319603D01*
X51105949Y-49224293D01*
X51082121Y-49176638D01*
X51058294Y-49152810D01*
X51010638Y-49128982D01*
X50534086Y-49128982D02*
X50486431Y-49128982D01*
X50438776Y-49152810D01*
X50414948Y-49176638D01*
X50391121Y-49224293D01*
X50367293Y-49319603D01*
X50367293Y-49438741D01*
X50391121Y-49534052D01*
X50414948Y-49581707D01*
X50438776Y-49605535D01*
X50486431Y-49629362D01*
X50534086Y-49629362D01*
X50581742Y-49605535D01*
X50605569Y-49581707D01*
X50629397Y-49534052D01*
X50653225Y-49438741D01*
X50653225Y-49319603D01*
X50629397Y-49224293D01*
X50605569Y-49176638D01*
X50581742Y-49152810D01*
X50534086Y-49128982D01*
X50152845Y-49295776D02*
X50152845Y-49629362D01*
X50152845Y-49343431D02*
X50129017Y-49319603D01*
X50081362Y-49295776D01*
X50009879Y-49295776D01*
X49962224Y-49319603D01*
X49938396Y-49367259D01*
X49938396Y-49629362D01*
X49533327Y-49367259D02*
X49700120Y-49367259D01*
X49700120Y-49629362D02*
X49700120Y-49128982D01*
X49461844Y-49128982D01*
X50423172Y-40691707D02*
X50447000Y-40715535D01*
X50518483Y-40739362D01*
X50566138Y-40739362D01*
X50637621Y-40715535D01*
X50685276Y-40667880D01*
X50709104Y-40620224D01*
X50732932Y-40524914D01*
X50732932Y-40453431D01*
X50709104Y-40358120D01*
X50685276Y-40310465D01*
X50637621Y-40262810D01*
X50566138Y-40238982D01*
X50518483Y-40238982D01*
X50447000Y-40262810D01*
X50423172Y-40286638D01*
X50256379Y-40238982D02*
X49922792Y-40238982D01*
X50137241Y-40739362D01*
X49779827Y-40238982D02*
X49446240Y-40238982D01*
X49660689Y-40739362D01*
X51066397Y-44168362D02*
X51352329Y-44168362D01*
X51209363Y-44168362D02*
X51209363Y-43667982D01*
X51257018Y-43739465D01*
X51304673Y-43787120D01*
X51352329Y-43810948D01*
X50756638Y-43667982D02*
X50708983Y-43667982D01*
X50661328Y-43691810D01*
X50637500Y-43715638D01*
X50613673Y-43763293D01*
X50589845Y-43858603D01*
X50589845Y-43977741D01*
X50613673Y-44073052D01*
X50637500Y-44120707D01*
X50661328Y-44144535D01*
X50708983Y-44168362D01*
X50756638Y-44168362D01*
X50804294Y-44144535D01*
X50828121Y-44120707D01*
X50851949Y-44073052D01*
X50875777Y-43977741D01*
X50875777Y-43858603D01*
X50851949Y-43763293D01*
X50828121Y-43715638D01*
X50804294Y-43691810D01*
X50756638Y-43667982D01*
X50280086Y-43667982D02*
X50232431Y-43667982D01*
X50184776Y-43691810D01*
X50160948Y-43715638D01*
X50137121Y-43763293D01*
X50113293Y-43858603D01*
X50113293Y-43977741D01*
X50137121Y-44073052D01*
X50160948Y-44120707D01*
X50184776Y-44144535D01*
X50232431Y-44168362D01*
X50280086Y-44168362D01*
X50327742Y-44144535D01*
X50351569Y-44120707D01*
X50375397Y-44073052D01*
X50399225Y-43977741D01*
X50399225Y-43858603D01*
X50375397Y-43763293D01*
X50351569Y-43715638D01*
X50327742Y-43691810D01*
X50280086Y-43667982D01*
X49898845Y-43834776D02*
X49898845Y-44168362D01*
X49898845Y-43882431D02*
X49875017Y-43858603D01*
X49827362Y-43834776D01*
X49755879Y-43834776D01*
X49708224Y-43858603D01*
X49684396Y-43906259D01*
X49684396Y-44168362D01*
X49279327Y-43906259D02*
X49446120Y-43906259D01*
X49446120Y-44168362D02*
X49446120Y-43667982D01*
X49207844Y-43667982D01*
X12704172Y-49581707D02*
X12728000Y-49605535D01*
X12799483Y-49629362D01*
X12847138Y-49629362D01*
X12918621Y-49605535D01*
X12966276Y-49557880D01*
X12990104Y-49510224D01*
X13013932Y-49414914D01*
X13013932Y-49343431D01*
X12990104Y-49248120D01*
X12966276Y-49200465D01*
X12918621Y-49152810D01*
X12847138Y-49128982D01*
X12799483Y-49128982D01*
X12728000Y-49152810D01*
X12704172Y-49176638D01*
X12275275Y-49295776D02*
X12275275Y-49629362D01*
X12394413Y-49105155D02*
X12513552Y-49462569D01*
X12203792Y-49462569D01*
X11798723Y-49295776D02*
X11798723Y-49629362D01*
X11917861Y-49105155D02*
X12037000Y-49462569D01*
X11727240Y-49462569D01*
X13220397Y-53248862D02*
X13506329Y-53248862D01*
X13363363Y-53248862D02*
X13363363Y-52748482D01*
X13411018Y-52819965D01*
X13458673Y-52867620D01*
X13506329Y-52891448D01*
X12910638Y-52748482D02*
X12862983Y-52748482D01*
X12815328Y-52772310D01*
X12791500Y-52796138D01*
X12767673Y-52843793D01*
X12743845Y-52939103D01*
X12743845Y-53058241D01*
X12767673Y-53153552D01*
X12791500Y-53201207D01*
X12815328Y-53225035D01*
X12862983Y-53248862D01*
X12910638Y-53248862D01*
X12958294Y-53225035D01*
X12982121Y-53201207D01*
X13005949Y-53153552D01*
X13029777Y-53058241D01*
X13029777Y-52939103D01*
X13005949Y-52843793D01*
X12982121Y-52796138D01*
X12958294Y-52772310D01*
X12910638Y-52748482D01*
X12434086Y-52748482D02*
X12386431Y-52748482D01*
X12338776Y-52772310D01*
X12314948Y-52796138D01*
X12291121Y-52843793D01*
X12267293Y-52939103D01*
X12267293Y-53058241D01*
X12291121Y-53153552D01*
X12314948Y-53201207D01*
X12338776Y-53225035D01*
X12386431Y-53248862D01*
X12434086Y-53248862D01*
X12481742Y-53225035D01*
X12505569Y-53201207D01*
X12529397Y-53153552D01*
X12553225Y-53058241D01*
X12553225Y-52939103D01*
X12529397Y-52843793D01*
X12505569Y-52796138D01*
X12481742Y-52772310D01*
X12434086Y-52748482D01*
X12052845Y-52915276D02*
X12052845Y-53248862D01*
X12052845Y-52962931D02*
X12029017Y-52939103D01*
X11981362Y-52915276D01*
X11909879Y-52915276D01*
X11862224Y-52939103D01*
X11838396Y-52986759D01*
X11838396Y-53248862D01*
X11433327Y-52986759D02*
X11600120Y-52986759D01*
X11600120Y-53248862D02*
X11600120Y-52748482D01*
X11361844Y-52748482D01*
X8703672Y-49835707D02*
X8727500Y-49859535D01*
X8798983Y-49883362D01*
X8846638Y-49883362D01*
X8918121Y-49859535D01*
X8965776Y-49811880D01*
X8989604Y-49764224D01*
X9013432Y-49668914D01*
X9013432Y-49597431D01*
X8989604Y-49502120D01*
X8965776Y-49454465D01*
X8918121Y-49406810D01*
X8846638Y-49382982D01*
X8798983Y-49382982D01*
X8727500Y-49406810D01*
X8703672Y-49430638D01*
X8274775Y-49549776D02*
X8274775Y-49883362D01*
X8393913Y-49359155D02*
X8513052Y-49716569D01*
X8203292Y-49716569D01*
X8060327Y-49382982D02*
X7750568Y-49382982D01*
X7917361Y-49573603D01*
X7845879Y-49573603D01*
X7798223Y-49597431D01*
X7774396Y-49621259D01*
X7750568Y-49668914D01*
X7750568Y-49788052D01*
X7774396Y-49835707D01*
X7798223Y-49859535D01*
X7845879Y-49883362D01*
X7988844Y-49883362D01*
X8036500Y-49859535D01*
X8060327Y-49835707D01*
X9283397Y-53502862D02*
X9569329Y-53502862D01*
X9426363Y-53502862D02*
X9426363Y-53002482D01*
X9474018Y-53073965D01*
X9521673Y-53121620D01*
X9569329Y-53145448D01*
X8973638Y-53002482D02*
X8925983Y-53002482D01*
X8878328Y-53026310D01*
X8854500Y-53050138D01*
X8830673Y-53097793D01*
X8806845Y-53193103D01*
X8806845Y-53312241D01*
X8830673Y-53407552D01*
X8854500Y-53455207D01*
X8878328Y-53479035D01*
X8925983Y-53502862D01*
X8973638Y-53502862D01*
X9021294Y-53479035D01*
X9045121Y-53455207D01*
X9068949Y-53407552D01*
X9092777Y-53312241D01*
X9092777Y-53193103D01*
X9068949Y-53097793D01*
X9045121Y-53050138D01*
X9021294Y-53026310D01*
X8973638Y-53002482D01*
X8497086Y-53002482D02*
X8449431Y-53002482D01*
X8401776Y-53026310D01*
X8377948Y-53050138D01*
X8354121Y-53097793D01*
X8330293Y-53193103D01*
X8330293Y-53312241D01*
X8354121Y-53407552D01*
X8377948Y-53455207D01*
X8401776Y-53479035D01*
X8449431Y-53502862D01*
X8497086Y-53502862D01*
X8544742Y-53479035D01*
X8568569Y-53455207D01*
X8592397Y-53407552D01*
X8616225Y-53312241D01*
X8616225Y-53193103D01*
X8592397Y-53097793D01*
X8568569Y-53050138D01*
X8544742Y-53026310D01*
X8497086Y-53002482D01*
X8115845Y-53169276D02*
X8115845Y-53502862D01*
X8115845Y-53216931D02*
X8092017Y-53193103D01*
X8044362Y-53169276D01*
X7972879Y-53169276D01*
X7925224Y-53193103D01*
X7901396Y-53240759D01*
X7901396Y-53502862D01*
X7496327Y-53240759D02*
X7663120Y-53240759D01*
X7663120Y-53502862D02*
X7663120Y-53002482D01*
X7424844Y-53002482D01*
X94839428Y-62713507D02*
X94815600Y-62737335D01*
X94744117Y-62761162D01*
X94696462Y-62761162D01*
X94624979Y-62737335D01*
X94577324Y-62689680D01*
X94553496Y-62642024D01*
X94529668Y-62546714D01*
X94529668Y-62475231D01*
X94553496Y-62379920D01*
X94577324Y-62332265D01*
X94624979Y-62284610D01*
X94696462Y-62260782D01*
X94744117Y-62260782D01*
X94815600Y-62284610D01*
X94839428Y-62308438D01*
X95125359Y-62475231D02*
X95077704Y-62451403D01*
X95053876Y-62427576D01*
X95030048Y-62379920D01*
X95030048Y-62356093D01*
X95053876Y-62308438D01*
X95077704Y-62284610D01*
X95125359Y-62260782D01*
X95220669Y-62260782D01*
X95268325Y-62284610D01*
X95292152Y-62308438D01*
X95315980Y-62356093D01*
X95315980Y-62379920D01*
X95292152Y-62427576D01*
X95268325Y-62451403D01*
X95220669Y-62475231D01*
X95125359Y-62475231D01*
X95077704Y-62499059D01*
X95053876Y-62522886D01*
X95030048Y-62570541D01*
X95030048Y-62665852D01*
X95053876Y-62713507D01*
X95077704Y-62737335D01*
X95125359Y-62761162D01*
X95220669Y-62761162D01*
X95268325Y-62737335D01*
X95292152Y-62713507D01*
X95315980Y-62665852D01*
X95315980Y-62570541D01*
X95292152Y-62522886D01*
X95268325Y-62499059D01*
X95220669Y-62475231D01*
X95744877Y-62427576D02*
X95744877Y-62761162D01*
X95625739Y-62236955D02*
X95506600Y-62594369D01*
X95816360Y-62594369D01*
X91639875Y-61554662D02*
X91353943Y-61554662D01*
X91496909Y-61554662D02*
X91496909Y-61054282D01*
X91449254Y-61125765D01*
X91401599Y-61173420D01*
X91353943Y-61197248D01*
X91949634Y-61054282D02*
X91997289Y-61054282D01*
X92044944Y-61078110D01*
X92068772Y-61101938D01*
X92092599Y-61149593D01*
X92116427Y-61244903D01*
X92116427Y-61364041D01*
X92092599Y-61459352D01*
X92068772Y-61507007D01*
X92044944Y-61530835D01*
X91997289Y-61554662D01*
X91949634Y-61554662D01*
X91901978Y-61530835D01*
X91878151Y-61507007D01*
X91854323Y-61459352D01*
X91830495Y-61364041D01*
X91830495Y-61244903D01*
X91854323Y-61149593D01*
X91878151Y-61101938D01*
X91901978Y-61078110D01*
X91949634Y-61054282D01*
X92545324Y-61221076D02*
X92545324Y-61554662D01*
X92330875Y-61221076D02*
X92330875Y-61483180D01*
X92354703Y-61530835D01*
X92402358Y-61554662D01*
X92473841Y-61554662D01*
X92521496Y-61530835D01*
X92545324Y-61507007D01*
X92950393Y-61292559D02*
X92783600Y-61292559D01*
X92783600Y-61554662D02*
X92783600Y-61054282D01*
X93021876Y-61054282D01*
X93569911Y-61030455D02*
X93141014Y-61673800D01*
X93689050Y-61054282D02*
X93998809Y-61054282D01*
X93832016Y-61244903D01*
X93903498Y-61244903D01*
X93951154Y-61268731D01*
X93974981Y-61292559D01*
X93998809Y-61340214D01*
X93998809Y-61459352D01*
X93974981Y-61507007D01*
X93951154Y-61530835D01*
X93903498Y-61554662D01*
X93760533Y-61554662D01*
X93712877Y-61530835D01*
X93689050Y-61507007D01*
X94451533Y-61054282D02*
X94213257Y-61054282D01*
X94189429Y-61292559D01*
X94213257Y-61268731D01*
X94260912Y-61244903D01*
X94380050Y-61244903D01*
X94427706Y-61268731D01*
X94451533Y-61292559D01*
X94475361Y-61340214D01*
X94475361Y-61459352D01*
X94451533Y-61507007D01*
X94427706Y-61530835D01*
X94380050Y-61554662D01*
X94260912Y-61554662D01*
X94213257Y-61530835D01*
X94189429Y-61507007D01*
X94618326Y-61054282D02*
X94785120Y-61554662D01*
X94951913Y-61054282D01*
%LPC*%
D14*
X46228000Y-97536000D03*
D15*
X46228000Y-94996000D03*
X48768000Y-97536000D03*
X48768000Y-94996000D03*
X51308000Y-97536000D03*
X51308000Y-94996000D03*
X53848000Y-97536000D03*
X53848000Y-94996000D03*
X56388000Y-97536000D03*
X56388000Y-94996000D03*
X58928000Y-97536000D03*
X58928000Y-94996000D03*
X61468000Y-97536000D03*
X61468000Y-94996000D03*
X64008000Y-97536000D03*
X64008000Y-94996000D03*
D16*
X5461000Y-25392380D03*
X5862320Y-26443940D03*
X5511800Y-27543760D03*
X5262880Y-28691840D03*
X5532120Y-29794200D03*
X5262880Y-30894020D03*
X5532120Y-31993840D03*
X5532120Y-33192720D03*
D17*
X15562580Y-26543000D03*
X15562580Y-32293560D03*
D18*
X1475740Y-20678140D03*
X2418080Y-33987740D03*
D19*
X34417000Y-53340000D03*
D20*
X35687000Y-53340000D03*
X34417000Y-54610000D03*
X35687000Y-54610000D03*
X34417000Y-55880000D03*
X35687000Y-55880000D03*
X34417000Y-57150000D03*
X35687000Y-57150000D03*
X34417000Y-58420000D03*
X35687000Y-58420000D03*
D21*
X43815000Y-49022000D03*
X45339000Y-49022000D03*
X49530000Y-38481000D03*
X48006000Y-38481000D03*
D22*
X39878000Y-46926500D03*
X39878000Y-48450500D03*
D21*
X82588100Y-65328800D03*
X81064100Y-65328800D03*
X81064100Y-62280800D03*
X82588100Y-62280800D03*
X61722000Y-30035500D03*
X60198000Y-30035500D03*
D22*
X89954100Y-65011300D03*
X89954100Y-66535300D03*
X78524100Y-63042800D03*
X78524100Y-64566800D03*
D23*
X49999900Y-14427200D03*
X96499680Y-14427200D03*
X3500120Y-96502220D03*
X96499680Y-96502220D03*
X3500120Y-14427200D03*
D24*
X90652600Y-57200800D03*
D25*
X85572600Y-57200800D03*
D14*
X39687500Y-69405500D03*
D15*
X39687500Y-66865500D03*
X39687500Y-64325500D03*
X39687500Y-61785500D03*
X39687500Y-59245500D03*
X39687500Y-56705500D03*
D14*
X38608000Y-97536000D03*
D15*
X38608000Y-94996000D03*
D14*
X25908000Y-97536000D03*
D15*
X25908000Y-94996000D03*
D14*
X28448000Y-97536000D03*
D15*
X28448000Y-94996000D03*
D14*
X23368000Y-97536000D03*
D15*
X23368000Y-94996000D03*
D14*
X33528000Y-97536000D03*
D15*
X33528000Y-94996000D03*
D14*
X30988000Y-97536000D03*
D15*
X30988000Y-94996000D03*
D14*
X43688000Y-97536000D03*
D15*
X43688000Y-94996000D03*
D14*
X15748000Y-97536000D03*
D15*
X15748000Y-94996000D03*
D14*
X18288000Y-97536000D03*
D15*
X18288000Y-94996000D03*
D14*
X20828000Y-97536000D03*
D15*
X20828000Y-94996000D03*
D14*
X48768000Y-20942300D03*
D15*
X51308000Y-20942300D03*
D14*
X41148000Y-97536000D03*
D15*
X41148000Y-94996000D03*
D14*
X36068000Y-97536000D03*
D15*
X36068000Y-94996000D03*
D14*
X4064000Y-39306500D03*
D15*
X4064000Y-36766500D03*
X6604000Y-39306500D03*
X6604000Y-36766500D03*
X9144000Y-39306500D03*
X9144000Y-36766500D03*
D26*
X45910500Y-58610500D03*
X45910500Y-56070500D03*
D27*
X14732000Y-86233000D03*
X14732000Y-83693000D03*
X14732000Y-81153000D03*
X14732000Y-78613000D03*
D22*
X47942500Y-48450500D03*
X47942500Y-46926500D03*
D21*
X40957500Y-38544500D03*
X39433500Y-38544500D03*
D22*
X50228500Y-48450500D03*
X50228500Y-46926500D03*
X50228500Y-41338500D03*
X50228500Y-42862500D03*
X12446000Y-50419000D03*
X12446000Y-51943000D03*
X8509000Y-50800000D03*
X8509000Y-52324000D03*
D28*
X93129100Y-62725300D03*
X93129100Y-66027300D03*
D15*
X9144000Y-72009000D03*
X9144000Y-69469000D03*
X7145020Y-69469000D03*
X7145020Y-72009000D03*
D29*
X4445000Y-76738480D03*
X4445000Y-64739520D03*
D30*
X50038000Y-18402300D03*
D31*
X96901000Y-75692000D03*
X96901000Y-78232000D03*
D32*
X79692500Y-54102000D03*
X82232500Y-54102000D03*
D33*
G36*
X99187000Y-19291381D02*
X825500Y-19354718D01*
X825500Y-9575800D01*
X99187000Y-9575800D01*
X99187000Y-19291381D01*
X99187000Y-19291381D01*
G37*
X99187000Y-19291381D02*
X825500Y-19354718D01*
X825500Y-9575800D01*
X99187000Y-9575800D01*
X99187000Y-19291381D01*
M02*
