G04 #@! TF.FileFunction,Soldermask,Bot*
%FSLAX46Y46*%
G04 Gerber Fmt 4.6, Leading zero omitted, Abs format (unit mm)*
G04 Created by KiCad (PCBNEW no-vcs-found-product) date Tue 29 Sep 2015 08:38:25 PM CEST*
%MOMM*%
G01*
G04 APERTURE LIST*
%ADD10C,0.150000*%
%ADD11C,0.381000*%
%ADD12R,2.032000X2.032000*%
%ADD13C,2.032000*%
%ADD14R,2.009140X1.308100*%
%ADD15R,1.907540X2.308860*%
%ADD16R,2.407920X1.907540*%
%ADD17R,1.508760X1.508760*%
%ADD18C,1.508760*%
%ADD19R,1.143000X1.651000*%
%ADD20R,1.651000X1.143000*%
%ADD21C,6.507480*%
%ADD22R,2.413000X2.413000*%
%ADD23C,2.413000*%
%ADD24C,1.778000*%
%ADD25C,1.905000*%
%ADD26R,2.540000X2.032000*%
%ADD27C,3.208020*%
%ADD28C,2.506980*%
%ADD29O,3.556000X2.032000*%
%ADD30O,2.032000X3.556000*%
%ADD31C,0.254000*%
G04 APERTURE END LIST*
D10*
D11*
X100012500Y-3365500D02*
X100012500Y-96456500D01*
X3556000Y0D02*
X96774000Y0D01*
X0Y-96329500D02*
X0Y-3365500D01*
X96710500Y-100012500D02*
X3238500Y-100012500D01*
X3492500Y0D02*
G75*
G03X0Y-3365500I-63500J-3429000D01*
G01*
X0Y-96393000D02*
G75*
G03X3238500Y-100012500I3429000J-190500D01*
G01*
X96710500Y-100012500D02*
G75*
G03X100012500Y-96456500I-127000J3429000D01*
G01*
X100012500Y-3365500D02*
G75*
G03X96774000Y0I-3302000J63500D01*
G01*
D12*
X46228000Y-97536000D03*
D13*
X46228000Y-94996000D03*
X48768000Y-97536000D03*
X48768000Y-94996000D03*
X51308000Y-97536000D03*
X51308000Y-94996000D03*
X53848000Y-97536000D03*
X53848000Y-94996000D03*
X56388000Y-97536000D03*
X56388000Y-94996000D03*
X58928000Y-97536000D03*
X58928000Y-94996000D03*
X61468000Y-97536000D03*
X61468000Y-94996000D03*
X64008000Y-97536000D03*
X64008000Y-94996000D03*
D14*
X5461000Y-25392380D03*
X5862320Y-26443940D03*
X5511800Y-27543760D03*
X5262880Y-28691840D03*
X5532120Y-29794200D03*
X5262880Y-30894020D03*
X5532120Y-31993840D03*
X5532120Y-33192720D03*
D15*
X15562580Y-26543000D03*
X15562580Y-32293560D03*
D16*
X1475740Y-20678140D03*
X2418080Y-33987740D03*
D17*
X34417000Y-53340000D03*
D18*
X35687000Y-53340000D03*
X34417000Y-54610000D03*
X35687000Y-54610000D03*
X34417000Y-55880000D03*
X35687000Y-55880000D03*
X34417000Y-57150000D03*
X35687000Y-57150000D03*
X34417000Y-58420000D03*
X35687000Y-58420000D03*
D19*
X43815000Y-49022000D03*
X45339000Y-49022000D03*
X49530000Y-38481000D03*
X48006000Y-38481000D03*
D20*
X39878000Y-46926500D03*
X39878000Y-48450500D03*
D19*
X82588100Y-65328800D03*
X81064100Y-65328800D03*
X81064100Y-62280800D03*
X82588100Y-62280800D03*
X61722000Y-30035500D03*
X60198000Y-30035500D03*
D20*
X89954100Y-65011300D03*
X89954100Y-66535300D03*
X78524100Y-63042800D03*
X78524100Y-64566800D03*
D21*
X49999900Y-14427200D03*
X96499680Y-14427200D03*
X3500120Y-96502220D03*
X96499680Y-96502220D03*
X3500120Y-14427200D03*
D22*
X90652600Y-57200800D03*
D23*
X85572600Y-57200800D03*
D12*
X39687500Y-69405500D03*
D13*
X39687500Y-66865500D03*
X39687500Y-64325500D03*
X39687500Y-61785500D03*
X39687500Y-59245500D03*
X39687500Y-56705500D03*
D12*
X38608000Y-97536000D03*
D13*
X38608000Y-94996000D03*
D12*
X25908000Y-97536000D03*
D13*
X25908000Y-94996000D03*
D12*
X28448000Y-97536000D03*
D13*
X28448000Y-94996000D03*
D12*
X23368000Y-97536000D03*
D13*
X23368000Y-94996000D03*
D12*
X33528000Y-97536000D03*
D13*
X33528000Y-94996000D03*
D12*
X30988000Y-97536000D03*
D13*
X30988000Y-94996000D03*
D12*
X43688000Y-97536000D03*
D13*
X43688000Y-94996000D03*
D12*
X15748000Y-97536000D03*
D13*
X15748000Y-94996000D03*
D12*
X18288000Y-97536000D03*
D13*
X18288000Y-94996000D03*
D12*
X20828000Y-97536000D03*
D13*
X20828000Y-94996000D03*
D12*
X48768000Y-20942300D03*
D13*
X51308000Y-20942300D03*
D12*
X41148000Y-97536000D03*
D13*
X41148000Y-94996000D03*
D12*
X36068000Y-97536000D03*
D13*
X36068000Y-94996000D03*
D12*
X4064000Y-39306500D03*
D13*
X4064000Y-36766500D03*
X6604000Y-39306500D03*
X6604000Y-36766500D03*
X9144000Y-39306500D03*
X9144000Y-36766500D03*
D24*
X45910500Y-58610500D03*
X45910500Y-56070500D03*
D25*
X14732000Y-86233000D03*
X14732000Y-83693000D03*
X14732000Y-81153000D03*
X14732000Y-78613000D03*
D20*
X47942500Y-48450500D03*
X47942500Y-46926500D03*
D19*
X40957500Y-38544500D03*
X39433500Y-38544500D03*
D20*
X50228500Y-48450500D03*
X50228500Y-46926500D03*
X50228500Y-41338500D03*
X50228500Y-42862500D03*
X12446000Y-50419000D03*
X12446000Y-51943000D03*
X8509000Y-50800000D03*
X8509000Y-52324000D03*
D26*
X93129100Y-62725300D03*
X93129100Y-66027300D03*
D13*
X9144000Y-72009000D03*
X9144000Y-69469000D03*
X7145020Y-69469000D03*
X7145020Y-72009000D03*
D27*
X4445000Y-76738480D03*
X4445000Y-64739520D03*
D28*
X50038000Y-18402300D03*
D29*
X96901000Y-75692000D03*
X96901000Y-78232000D03*
D30*
X79692500Y-54102000D03*
X82232500Y-54102000D03*
D31*
G36*
X99187000Y-19291381D02*
X825500Y-19354718D01*
X825500Y-9575800D01*
X99187000Y-9575800D01*
X99187000Y-19291381D01*
X99187000Y-19291381D01*
G37*
X99187000Y-19291381D02*
X825500Y-19354718D01*
X825500Y-9575800D01*
X99187000Y-9575800D01*
X99187000Y-19291381D01*
M02*
